<svg width="71" height="71" viewBox="0 0 71 71" fill="none" xmlns="http://www.w3.org/2000/svg">
<path d="M68.6801 40.0137C68.6825 37.0977 67.8517 34.2418 66.2854 31.7823C64.719 29.3228 62.4824 27.3621 59.839 26.1312C57.1956 24.9003 54.2555 24.4504 51.365 24.8346C48.4745 25.2188 45.7539 26.421 43.5238 28.2996C40.7719 25.9729 37.2838 24.6978 33.6801 24.7012V11.5762C33.6775 10.7067 33.3309 9.87364 32.7161 9.25885C32.1013 8.64405 31.2682 8.29752 30.3988 8.29492H10.7113C9.84186 8.29752 9.00877 8.64405 8.39398 9.25885C7.77919 9.87364 7.43265 10.7067 7.43005 11.5762V20.1184L3.2738 30.4871C3.13166 30.8724 3.05764 31.2795 3.05505 31.6902V42.934C3.05219 44.1177 3.43627 45.27 4.1488 46.2152L4.87068 47.1777C5.31847 47.7774 5.63956 48.4619 5.81443 49.1896C5.9893 49.9172 6.01429 50.6729 5.88787 51.4105L4.15974 67.2371C4.14335 67.3905 4.1592 67.5457 4.20629 67.6926C4.25338 67.8395 4.33066 67.9749 4.43318 68.0902C4.53544 68.2035 4.66028 68.2942 4.79967 68.3563C4.93907 68.4185 5.08993 68.4508 5.24255 68.4512H17.2738C17.4293 68.4523 17.5832 68.4197 17.7249 68.3555C17.8665 68.2913 17.9925 68.197 18.0941 68.0793C18.1973 67.9648 18.2743 67.8291 18.3197 67.6817C18.365 67.5344 18.3776 67.3789 18.3566 67.2262L16.3113 50.5355C16.2636 50.2533 16.3263 49.9635 16.4863 49.7262L17.1316 48.7637H20.9816C21.6406 49.9051 22.375 51.0013 23.1801 52.0449H19.4613V54.2324H25.0066C31.4597 61.4184 40.7238 66.6684 43.5238 66.6684C46.3676 66.6684 55.6535 61.4949 62.1066 54.2324H67.5863V52.0449H63.9113C66.7332 48.3371 68.6801 44.2137 68.6801 40.0137ZM14.3097 40.7902L14.9004 41.3809C15.0251 41.4976 15.1386 41.6258 15.2394 41.7637C15.2394 41.7746 15.2504 41.7746 15.2613 41.7746L15.2504 41.7855C15.8505 42.5501 16.1778 43.4933 16.1801 44.4652V44.9246C16.1814 45.7887 15.9263 46.6337 15.4472 47.3527L14.6707 48.5121C14.2065 49.1979 14.0225 50.0355 14.1566 50.8527L16.0379 66.2637H6.46755L8.05349 51.7168C8.21835 50.6952 8.17648 49.6509 7.93037 48.6457C7.68425 47.6406 7.23889 46.6951 6.62068 45.8652L5.8988 44.9027C5.47409 44.3341 5.24396 43.6437 5.24255 42.934V31.6902C5.24041 31.548 5.26643 31.4067 5.31912 31.2746L7.43005 26.0027V33.0027C7.43148 33.58 7.65925 34.1337 8.06443 34.5449L9.33318 35.8137C9.68103 36.1564 10.1325 36.3744 10.6172 36.4338C11.1019 36.4931 11.5926 36.3905 12.0129 36.1418L13.4566 35.2668L15.4363 34.0855C15.6044 33.9901 15.7991 33.9523 15.9907 33.978C16.1823 34.0037 16.3602 34.0914 16.4972 34.2277C16.6406 34.3654 16.732 34.5484 16.7559 34.7457C16.7799 34.9431 16.7348 35.1426 16.6285 35.3105L14.1457 39.4559C14.0231 39.6656 13.9728 39.9097 14.0025 40.1507C14.0321 40.3918 14.1401 40.6165 14.3097 40.7902ZM16.6285 40.0137C16.5738 39.959 16.5191 39.9043 16.4644 39.8387L18.5097 36.4371C18.864 35.8486 19.0112 35.1586 18.928 34.4768C18.8447 33.7949 18.5358 33.1606 18.0504 32.6746C17.5586 32.203 16.9273 31.9034 16.251 31.8206C15.5747 31.7377 14.8898 31.8762 14.2988 32.2152L13.9926 32.4012V14.8574H27.1176V40.0137H16.6285ZM18.1379 46.5762C18.2861 46.038 18.3633 45.4828 18.3676 44.9246V44.4652C18.3619 43.6921 18.2212 42.9259 17.9519 42.2012H28.2113C28.5014 42.2012 28.7796 42.0859 28.9847 41.8808C29.1898 41.6757 29.3051 41.3975 29.3051 41.1074V13.7637C29.3051 13.4736 29.1898 13.1954 28.9847 12.9903C28.7796 12.7852 28.5014 12.6699 28.2113 12.6699H12.8988C12.6087 12.6699 12.3305 12.7852 12.1254 12.9903C11.9203 13.1954 11.8051 13.4736 11.8051 13.7637V33.7027L10.8863 34.2605L9.61755 33.0027V11.5762C9.61755 11.2861 9.73279 11.0079 9.93791 10.8028C10.143 10.5977 10.4212 10.4824 10.7113 10.4824H30.3988C30.6889 10.4824 30.9671 10.5977 31.1722 10.8028C31.3773 11.0079 31.4926 11.2861 31.4926 11.5762V45.4824C31.4926 45.7725 31.3773 46.0507 31.1722 46.2558C30.9671 46.4609 30.6889 46.5762 30.3988 46.5762H18.1379ZM43.5238 64.4809C41.7847 64.4809 34.041 60.3355 27.9926 54.2324H34.7738C34.9846 54.2338 35.1912 54.1734 35.368 54.0587C35.5449 53.944 35.6843 53.7801 35.7691 53.5871L39.0066 46.3137L43.5785 60.0512C43.6519 60.2684 43.7917 60.4571 43.9781 60.5906C44.1646 60.724 44.3883 60.7955 44.6176 60.7949H44.6613C44.8974 60.7831 45.1235 60.6961 45.3065 60.5465C45.4896 60.3969 45.6199 60.1927 45.6785 59.9637L49.791 43.5137L51.191 53.2918C51.2279 53.5527 51.3577 53.7916 51.5567 53.9644C51.7556 54.1372 52.0103 54.2324 52.2738 54.2324H59.0769C53.1051 60.259 45.3941 64.4809 43.5238 64.4809ZM61.0894 52.0449H53.2254L51.1691 37.673C51.1315 37.4222 51.0088 37.1919 50.8217 37.0206C50.6345 36.8494 50.3942 36.7477 50.141 36.7324C49.8875 36.72 49.6375 36.7961 49.434 36.9478C49.2304 37.0995 49.086 37.3172 49.0254 37.5637L44.4644 55.7965L40.1879 42.9449C40.1177 42.7363 39.9862 42.5537 39.8106 42.421C39.6349 42.2883 39.4234 42.2117 39.2035 42.2012C38.9849 42.1959 38.7694 42.2541 38.5831 42.3686C38.3968 42.4831 38.2476 42.6491 38.1535 42.8465L34.0629 52.0449H25.9801C25.0872 51.0101 24.2685 49.9137 23.5301 48.7637H30.3988C31.2682 48.7611 32.1013 48.4145 32.7161 47.7997C33.3309 47.185 33.6775 46.3519 33.6801 45.4824V26.8887C37.0696 26.8887 40.3273 28.202 42.7691 30.5527C42.9725 30.7466 43.2428 30.8548 43.5238 30.8548C43.8048 30.8548 44.0751 30.7466 44.2785 30.5527C46.1333 28.7688 48.4718 27.5697 51.003 27.1048C53.5341 26.6399 56.1461 26.9297 58.5138 27.9381C60.8815 28.9465 62.9003 30.629 64.319 32.7761C65.7377 34.9232 66.4936 37.4402 66.4926 40.0137C66.4926 44.2137 64.2176 48.3809 61.0894 52.0449Z" fill="#FFFF00"/>
<path d="M24.9301 23.6074C24.9301 22.7421 24.6735 21.8963 24.1927 21.1768C23.712 20.4573 23.0287 19.8966 22.2293 19.5655C21.4299 19.2343 20.5502 19.1477 19.7015 19.3165C18.8529 19.4853 18.0733 19.902 17.4615 20.5138C16.8496 21.1257 16.4329 21.9052 16.2641 22.7539C16.0953 23.6026 16.1819 24.4822 16.5131 25.2817C16.8442 26.0811 17.405 26.7644 18.1244 27.2451C18.8439 27.7258 19.6898 27.9824 20.5551 27.9824C21.7154 27.9824 22.8282 27.5215 23.6486 26.701C24.4691 25.8805 24.9301 24.7677 24.9301 23.6074ZM18.3676 23.6074C18.3676 23.1748 18.4959 22.7518 18.7362 22.3921C18.9766 22.0324 19.3182 21.752 19.7179 21.5864C20.1176 21.4209 20.5575 21.3776 20.9818 21.462C21.4061 21.5464 21.7959 21.7547 22.1019 22.0606C22.4078 22.3666 22.6161 22.7563 22.7005 23.1807C22.7849 23.605 22.7416 24.0448 22.576 24.4445C22.4105 24.8443 22.1301 25.1859 21.7704 25.4263C21.4106 25.6666 20.9877 25.7949 20.5551 25.7949C19.9749 25.7949 19.4185 25.5645 19.0083 25.1542C18.598 24.744 18.3676 24.1876 18.3676 23.6074Z" fill="#FFFF00"/>
<path d="M48.5397 18.7796C48.2337 19.0855 48.0253 19.4753 47.9409 19.8997C47.8564 20.324 47.8997 20.7639 48.0653 21.1636C48.2308 21.5634 48.5112 21.9051 48.8709 22.1455C49.2307 22.3858 49.6536 22.5142 50.0863 22.5142C50.519 22.5142 50.9419 22.3858 51.3017 22.1455C51.6614 21.9051 51.9418 21.5634 52.1074 21.1636C52.2729 20.7639 52.3162 20.324 52.2317 19.8997C52.1473 19.4753 51.9389 19.0855 51.6329 18.7796C51.2227 18.3695 50.6664 18.1392 50.0863 18.1392C49.5063 18.1392 48.95 18.3695 48.5397 18.7796Z" fill="#FFFF00"/>
<path d="M54.7271 15.6855C53.4954 14.4564 51.8264 13.7661 50.0863 13.7661C48.3463 13.7661 46.6773 14.4564 45.4455 15.6855L46.9921 17.232C47.8136 16.413 48.9263 15.9531 50.0863 15.9531C51.2463 15.9531 52.359 16.413 53.1805 17.232L54.7271 15.6855Z" fill="#FFFF00"/>
<path d="M57.8202 12.5924C55.769 10.5412 52.9871 9.38892 50.0863 9.38892C47.1855 9.38892 44.4036 10.5412 42.3524 12.5924L43.899 14.1389C44.7115 13.3264 45.6761 12.6818 46.7377 12.242C47.7994 11.8023 48.9372 11.5759 50.0863 11.5759C51.2354 11.5759 52.3733 11.8023 53.4349 12.242C54.4965 12.6818 55.4611 13.3264 56.2737 14.1389L57.8202 12.5924Z" fill="#FFFF00"/>
<path d="M59.3668 11.0456L60.9144 9.49795C58.0407 6.6297 54.1465 5.0188 50.0863 5.0188C46.0261 5.0188 42.1319 6.6297 39.2582 9.49795L40.8047 11.0445C43.2682 8.58657 46.6061 7.20627 50.086 7.20647C53.5659 7.20668 56.9036 8.58737 59.3668 11.0456Z" fill="#FFFF00"/>
</svg>
