<svg width="71" height="71" viewBox="0 0 71 71" fill="none" xmlns="http://www.w3.org/2000/svg">
<g clip-path="url(#clip0_1_93)">
<path d="M54.7453 44.0897C54.8574 44.1293 54.974 44.1494 55.0919 44.1494C55.5311 44.1494 55.9249 43.8708 56.0714 43.456C56.2623 42.9158 55.9781 42.3209 55.4379 42.1299L51.3935 40.7008C51.1764 37.0741 48.4728 34.1084 44.9681 33.4869C46.8565 31.2647 48.1296 28.485 48.2413 25.8468C49.733 25.8261 50.9407 24.608 50.9407 23.1114V19.7825C50.939 19.2457 50.7184 18.7489 50.3518 18.39L50.7058 12.7252C50.7072 12.7036 50.7078 12.682 50.7078 12.6604C50.7078 6.35413 45.5774 1.22363 39.2711 1.22363H30.8761C24.5699 1.22363 19.4394 6.35413 19.4394 12.6604C19.4394 12.682 19.4401 12.7037 19.4414 12.7255L19.7991 18.4332C19.4574 18.7885 19.256 19.2673 19.2544 19.7856V23.1114C19.2544 24.6078 20.4616 25.8259 21.9529 25.8468C22.0571 28.4812 23.3245 31.2633 25.2085 33.4903C21.7129 34.1189 19.0183 37.0805 18.8016 40.701L8.05906 44.4963C4.35741 45.8044 1.60923 49.0162 0.886948 52.8781C0.835952 53.151 0.894331 53.4274 1.05101 53.6564C1.20796 53.8853 1.44462 54.0395 1.71738 54.0906C1.78081 54.1025 1.84562 54.1085 1.90947 54.1085C2.4089 54.1085 2.83806 53.7517 2.92993 53.2602C3.51632 50.125 5.74702 47.5177 8.75141 46.456L18.7857 42.9103V45.3145C16.9331 45.8086 15.509 47.4363 15.3541 49.4228L14.5395 59.8772C14.5021 60.3586 14.6684 60.838 14.9964 61.1925C15.3243 61.5468 15.7893 61.7501 16.2719 61.7501H17.6661C18.2391 61.7501 18.7053 61.2839 18.7053 60.7109C18.7053 60.138 18.2391 59.6717 17.6661 59.6717H16.6402L17.4262 49.5844C17.5287 48.2686 18.643 47.2377 19.9627 47.2377C21.2825 47.2377 22.3966 48.2685 22.4993 49.5842L23.2854 59.6717H22.2593C21.6863 59.6717 21.2201 60.138 21.2201 60.7109C21.2201 61.2839 21.6863 61.7501 22.2593 61.7501H23.6536C24.1365 61.7501 24.6015 61.5468 24.9292 61.1925C25.2572 60.838 25.4237 60.3586 25.3861 59.8774L24.5714 49.4228C24.4088 47.3388 22.8497 45.6488 20.864 45.2495V42.1762L24.1268 41.0232L34.0036 64.3649C34.0037 64.3652 34.0036 64.3649 34.0037 64.3652C34.0167 64.3959 34.0311 64.426 34.0471 64.4554C34.2277 64.7884 34.5425 65.0106 34.9104 65.0646C34.9681 65.0738 35.0253 65.0783 35.0852 65.0783L35.0938 65.0646L35.102 65.0783H35.1107H35.1109C35.1697 65.0783 35.2226 65.0745 35.2726 65.0665C35.648 65.0113 35.9669 64.7886 36.1475 64.4555C36.1635 64.4261 36.178 64.3961 36.1908 64.3653L46.0678 41.0233L49.3305 42.1763V51.2526C46.9644 51.7898 45.1922 53.9086 45.1922 56.4351C45.1922 59.366 47.5766 61.7504 50.5076 61.7504C53.4385 61.7504 55.8229 59.3659 55.8229 56.4351C55.8229 53.8114 53.9118 51.6272 51.4089 51.1977V42.9107L54.7453 44.0897ZM48.6921 20.8187C48.7489 20.8061 48.8057 20.7917 48.8623 20.7741V23.1109C48.8623 23.4569 48.5954 23.7428 48.252 23.768L48.2517 20.8663L48.2684 20.8665C48.4058 20.8665 48.5441 20.8505 48.6818 20.8207C48.6852 20.82 48.6887 20.8195 48.6921 20.8187ZM21.9427 23.768C21.5994 23.7428 21.3324 23.4569 21.3324 23.1109V20.7849C21.3692 20.7953 21.4062 20.804 21.4433 20.8124C21.4498 20.8139 21.4564 20.8159 21.4629 20.8173C21.5297 20.8317 21.5969 20.8416 21.6645 20.8492C21.6668 20.8494 21.6693 20.8497 21.6716 20.8498C21.7438 20.8576 21.8161 20.8628 21.8887 20.8628C21.9067 20.8628 21.9249 20.8626 21.943 20.8622L21.9427 23.768ZM23.4069 12.5439C23.2079 12.5439 23.014 12.6007 22.8464 12.708C22.5466 12.8999 22.3677 13.2271 22.3677 13.5831V17.6937C22.3677 17.7385 22.3649 17.7831 22.3606 17.8273C22.3595 17.8389 22.3582 17.8505 22.3567 17.8621C22.3523 17.8989 22.3466 17.9354 22.3393 17.9715C22.3377 17.9794 22.3366 17.9874 22.3348 17.9952C22.3255 18.038 22.314 18.0802 22.3008 18.1218C22.2975 18.132 22.2936 18.142 22.2901 18.1521C22.2794 18.183 22.2677 18.2134 22.255 18.2434C22.2491 18.2574 22.2432 18.2713 22.2368 18.2851C22.2234 18.3141 22.2087 18.3424 22.1934 18.3703C22.1809 18.3932 22.1675 18.4156 22.1536 18.4377C22.1418 18.457 22.1296 18.4761 22.1166 18.4949C22.0886 18.5355 22.0585 18.5743 22.0266 18.6115C22.0228 18.6159 22.0195 18.6207 22.0157 18.625C21.9796 18.6663 21.9412 18.7054 21.9009 18.7419L21.5176 12.6287C21.5344 7.48575 25.7327 3.30162 30.876 3.30162H39.2709C44.4143 3.30162 48.6124 7.48575 48.6293 12.6277L48.246 18.7444C48.1743 18.6796 48.1088 18.607 48.0511 18.5281C48.051 18.528 48.051 18.5278 48.0509 18.5277C48.0429 18.5169 48.0361 18.5055 48.0286 18.4946C48.0111 18.469 47.9939 18.4433 47.9781 18.4168C47.9703 18.4038 47.9631 18.3904 47.9557 18.3772C47.9398 18.3483 47.9248 18.319 47.911 18.2892C47.9065 18.2794 47.9017 18.2697 47.8973 18.2598C47.8611 18.1767 47.8329 18.0902 47.8131 18.0012C47.8112 17.9923 47.8096 17.9834 47.8078 17.9745C47.8005 17.9387 47.7949 17.9026 47.7906 17.8661C47.7892 17.8549 47.7877 17.8437 47.7866 17.8323C47.7822 17.7874 47.7795 17.7421 47.7795 17.6964C47.7795 16.806 47.2862 15.9995 46.4921 15.5915C46.3674 15.5274 46.2373 15.4748 46.1039 15.4337C45.8814 15.3655 45.6497 15.3302 45.4186 15.3302C44.9311 15.3302 44.463 15.4812 44.0644 15.7665C42.8937 16.6054 41.2752 17.0308 39.2537 17.0308C38.0632 17.0308 36.4433 16.8795 34.321 16.3945C33.7557 16.2653 33.1559 16.1131 32.5177 15.9328C32.5135 15.9315 32.509 15.9302 32.5046 15.9289C30.9906 15.5009 29.2681 14.9197 27.3174 14.1386C26.504 13.8129 25.6494 13.4511 24.7554 13.0527C24.4548 12.9187 24.1512 12.782 23.8414 12.6392C23.7042 12.5761 23.5579 12.5439 23.4069 12.5439ZM24.0216 25.4968L24.0211 23.5165L24.0215 19.364C24.16 19.1102 24.2654 18.8394 24.3369 18.5575C24.337 18.5568 24.3373 18.5561 24.3375 18.5553C24.3543 18.4889 24.3692 18.4219 24.3822 18.3542C24.3831 18.3489 24.3843 18.3435 24.3853 18.3382C24.3968 18.2763 24.4066 18.2138 24.4148 18.1509C24.4162 18.1409 24.4178 18.1311 24.4191 18.1211C24.4262 18.0624 24.4316 18.0034 24.4358 17.944C24.4367 17.9313 24.4382 17.9186 24.439 17.9058C24.4433 17.8353 24.4457 17.7647 24.4457 17.6936V15.1889C29.6939 17.4856 34.1903 18.7855 37.8102 19.0524C38.2844 19.0874 38.7507 19.1052 39.1959 19.1052C41.7021 19.1052 43.7472 18.5502 45.2748 17.4558C45.3196 17.4237 45.3676 17.4074 45.4174 17.4074C45.4584 17.4074 45.5005 17.4183 45.5424 17.4398C45.6017 17.4703 45.7012 17.5441 45.7012 17.696C45.7012 17.7693 45.7039 17.8423 45.7085 17.9148C45.7096 17.9334 45.7117 17.9518 45.7131 17.9704C45.7174 18.0258 45.7227 18.0809 45.7295 18.1357C45.7318 18.1544 45.7347 18.1732 45.7374 18.1919C45.7454 18.2481 45.7547 18.304 45.7653 18.3597C45.7682 18.3748 45.7712 18.39 45.7744 18.4052C45.7873 18.4681 45.802 18.5304 45.8182 18.5924C45.82 18.5993 45.8218 18.6063 45.8237 18.6133C45.9031 18.9069 46.0207 19.1875 46.1732 19.4493V25.4704C46.1732 28.8121 43.5871 32.746 40.4723 34.6472C40.4511 34.6601 40.4299 34.6725 40.4087 34.6852C40.3228 34.7368 40.2366 34.7864 40.1499 34.8346C40.1124 34.8556 40.075 34.8765 40.0375 34.8966C39.9605 34.9381 39.8832 34.9779 39.8058 35.017C39.769 35.0355 39.7322 35.0549 39.6956 35.0728C39.5881 35.125 39.4804 35.1748 39.3721 35.2218C39.3382 35.2366 39.3043 35.2497 39.2704 35.2639C39.191 35.2972 39.1114 35.3294 39.0317 35.3598C38.9905 35.3755 38.9495 35.3903 38.9085 35.405C38.8312 35.4329 38.7539 35.4593 38.6765 35.4842C38.64 35.496 38.6035 35.5081 38.567 35.5192C38.4545 35.5535 38.3418 35.5858 38.2291 35.6138L38.0958 35.6469C37.6828 35.7496 37.313 35.8376 36.9734 35.9101C36.2264 36.0695 35.626 36.1537 35.0349 36.1537C34.166 36.1537 33.276 35.9706 31.9375 35.6332C31.8236 35.6045 31.7099 35.5716 31.5962 35.5366C31.5602 35.5253 31.5239 35.513 31.4878 35.5011C31.4091 35.4754 31.3303 35.4485 31.2519 35.4198C31.2111 35.4049 31.1702 35.3896 31.1294 35.3739C31.0517 35.3439 30.9742 35.3123 30.8969 35.2797C30.8597 35.2639 30.8226 35.2489 30.7854 35.2325C30.6801 35.1861 30.5752 35.1376 30.4706 35.0863C30.4631 35.0827 30.4556 35.0794 30.4479 35.0757C30.3311 35.018 30.2147 34.9569 30.0989 34.8932C30.081 34.8833 30.0631 34.8727 30.045 34.8627C29.9425 34.8054 29.8404 34.7465 29.7389 34.6848C29.7273 34.6777 29.7157 34.6704 29.7041 34.6633C26.5993 32.7582 24.0216 28.8279 24.0216 25.4968ZM40.1883 39.8349L35.0972 43.3246L30.0058 39.8347C30.1376 39.5822 30.2072 39.2969 30.2072 39.0088L30.2075 37.2461C30.2571 37.2663 30.3069 37.2846 30.3565 37.3039C30.4359 37.3345 30.5152 37.3648 30.5951 37.3932C30.6966 37.4296 30.7981 37.4639 30.8995 37.4964C30.9425 37.5101 30.9854 37.5235 31.0285 37.5365C31.1624 37.5772 31.2963 37.6156 31.4293 37.6493C32.902 38.0206 33.9641 38.2355 35.0343 38.2355C35.8288 38.2355 36.6175 38.1178 37.5758 37.9063C37.8951 37.8359 38.2334 37.7549 38.5969 37.6646L38.7302 37.6315C38.8637 37.5983 38.998 37.5601 39.1327 37.5197C39.1782 37.506 39.2238 37.4919 39.2692 37.4776C39.3602 37.4487 39.4513 37.4179 39.5423 37.3859C39.6464 37.3496 39.7499 37.3108 39.8531 37.2706C39.8975 37.2532 39.9421 37.2369 39.9865 37.2189L39.9867 39.0091C39.9868 39.2973 40.0565 39.5826 40.1883 39.8349ZM21.003 39.9223C21.5748 37.3624 23.8633 35.4426 26.593 35.4426H27.2009C27.5029 35.6867 27.8126 35.9161 28.1293 36.1294L28.1291 38.5479L28.0502 38.4938C27.6434 38.2149 27.1662 38.0675 26.67 38.0675C26.3927 38.0675 26.1204 38.114 25.8604 38.206L21.003 39.9223ZM26.0902 40.3292L26.5526 40.1658C26.5908 40.1523 26.6309 40.1455 26.6716 40.1455C26.7445 40.1455 26.8148 40.1672 26.8748 40.2082L33.3514 44.6473L32.711 45.1581L30.5199 46.9058C30.5188 46.9067 30.5178 46.9078 30.5166 46.9088L29.2887 47.8883L26.0902 40.3292ZM31.9754 54.237L30.1302 49.8764L30.715 49.4098L32.2217 52.0146C32.2448 52.0545 32.2712 52.0917 32.2982 52.1284L31.9754 54.237ZM35.0973 61.6153L33.5192 57.8858L34.3183 52.6675H35.8764L36.677 57.8822L35.0973 61.6153ZM36.4042 50.589H33.7984L32.3579 48.0991L35.0973 45.9136L37.8368 48.0991L36.4042 50.589ZM38.2196 54.2372L37.8966 52.1286C37.9234 52.0919 37.9498 52.0549 37.9728 52.0151L39.4798 49.4099L40.0647 49.8765L38.2196 54.2372ZM40.9058 47.8881L39.6781 46.9088C39.677 46.9078 39.676 46.9067 39.6748 46.9058L37.4836 45.1581L36.8432 44.6473L43.3199 40.208C43.3797 40.1669 43.4499 40.1453 43.523 40.1453C43.5638 40.1453 43.6038 40.1522 43.6418 40.1656L44.1043 40.3291L40.9058 47.8881ZM44.3343 38.206C44.0744 38.1142 43.8021 38.0676 43.5248 38.0676C43.0285 38.0676 42.5512 38.215 42.1448 38.4938L42.0651 38.5485L42.0641 36.1033C42.3698 35.8976 42.6689 35.677 42.9608 35.4429H43.6018C46.3316 35.4429 48.6202 37.3627 49.1918 39.9226L44.3343 38.206ZM53.7445 56.4345C53.7445 58.2195 52.2924 59.6715 50.5076 59.6715C48.7227 59.6715 47.2706 58.2194 47.2706 56.4345C47.2706 54.6497 48.7228 53.1976 50.5076 53.1976C52.2924 53.1976 53.7445 54.6497 53.7445 56.4345Z" fill="#FFFF00"/>
<path d="M70.0914 65.547L69.4744 54.2123C69.2227 50.2511 66.8527 46.7129 63.2894 44.9788C63.1461 44.9091 62.9934 44.8738 62.8353 44.8738C62.4341 44.8738 62.0757 45.0977 61.9001 45.4584C61.6493 45.9737 61.8645 46.5968 62.3797 46.8476C65.2718 48.2552 67.1953 51.1241 67.3994 54.3347L68.0166 65.6695C68.0367 65.9891 67.9274 66.2935 67.7087 66.5266C67.4907 66.7587 67.1956 66.8865 66.8778 66.8865H59.3803V55.9398C59.3803 55.3668 58.9141 54.9006 58.3411 54.9006C57.7681 54.9006 57.3019 55.3668 57.3019 55.9398V66.8865H12.7589V55.9398C12.7589 55.3668 12.2927 54.9006 11.7197 54.9006C11.1467 54.9006 10.6805 55.3668 10.6805 55.9398V66.8865H3.31714C2.99913 66.8865 2.70409 66.7587 2.4863 66.5266C2.26755 66.2935 2.15845 65.9857 2.17909 65.66L2.43243 61.0068C2.46361 60.4347 2.02324 59.9438 1.45121 59.9127C1.43111 59.9114 1.41142 59.9109 1.3916 59.9109C0.841441 59.9109 0.386989 60.3427 0.356911 60.8938L0.104118 65.5374C0.047927 66.4231 0.363747 67.302 0.97064 67.9487C1.57671 68.5944 2.43189 68.9649 3.31714 68.9649H66.8778C67.7631 68.9649 68.6181 68.5946 69.2243 67.9487C69.8312 67.3019 70.1473 66.4265 70.0914 65.547Z" fill="#FFFF00"/>
</g>
<defs>
<clipPath id="clip0_1_93">
<rect width="70" height="70" fill="white" transform="translate(0.0975342 0.0942383)"/>
</clipPath>
</defs>
</svg>
