<svg width="71" height="71" viewBox="0 0 71 71" fill="none" xmlns="http://www.w3.org/2000/svg">
<g clip-path="url(#clip0_1_104)">
<path d="M35.3525 28.0308H32.0713V24.7495C32.0713 24.1447 31.5813 23.6558 30.9775 23.6558H26.6025C25.9988 23.6558 25.5088 24.1447 25.5088 24.7495V28.0308H22.2275C21.6238 28.0308 21.1338 28.5197 21.1338 29.1245V33.4995C21.1338 34.1044 21.6238 34.5933 22.2275 34.5933H25.5088V37.8745C25.5088 38.4794 25.9988 38.9683 26.6025 38.9683H30.9775C31.5813 38.9683 32.0713 38.4794 32.0713 37.8745V34.5933H35.3525C35.9563 34.5933 36.4463 34.1044 36.4463 33.4995V29.1245C36.4463 28.5197 35.9563 28.0308 35.3525 28.0308ZM34.2588 32.4058H30.9775C30.3738 32.4058 29.8838 32.8947 29.8838 33.4995V36.7808H27.6963V33.4995C27.6963 32.8947 27.2063 32.4058 26.6025 32.4058H23.3213V30.2183H26.6025C27.2063 30.2183 27.6963 29.7294 27.6963 29.1245V25.8433H29.8838V29.1245C29.8838 29.7294 30.3738 30.2183 30.9775 30.2183H34.2588V32.4058Z" fill="#FFFF00"/>
<path d="M69.2588 43.3433H55.04V21.4683H56.1338C56.7375 21.4683 57.2275 20.9794 57.2275 20.3745V14.9058C57.2275 14.3009 56.7375 13.812 56.1338 13.812H47.3838V11.6245H49.5713C50.175 11.6245 50.665 11.1356 50.665 10.5308V1.78076C50.665 1.17592 50.175 0.687012 49.5713 0.687012H8.00879C7.40504 0.687012 6.91504 1.17592 6.91504 1.78076V10.5308C6.91504 11.1356 7.40504 11.6245 8.00879 11.6245H10.1963V13.812H1.44629C0.842539 13.812 0.352539 14.3009 0.352539 14.9058V20.3745C0.352539 20.9794 0.842539 21.4683 1.44629 21.4683H2.54004V69.5933C2.54004 70.1981 3.03004 70.687 3.63379 70.687H67.0713C67.675 70.687 68.165 70.1981 68.165 69.5933V50.9995H69.2588C69.8625 50.9995 70.3525 50.5106 70.3525 49.9058V44.437C70.3525 43.8322 69.8625 43.3433 69.2588 43.3433ZM45.1963 13.812H43.0088V11.6245H45.1963V13.812ZM40.8213 11.6245V13.812H16.7588V11.6245H40.8213ZM9.10254 2.87451H48.4775V9.43701H9.10254V2.87451ZM12.3838 11.6245H14.5713V13.812H12.3838V11.6245ZM2.54004 15.9995H55.04V19.2808H2.54004V15.9995ZM40.8213 43.3433V48.812H38.6338V43.3433H40.8213ZM36.4463 48.812H30.9775V43.3433H36.4463V48.812ZM28.79 48.812H23.3213V43.3433H28.79V48.812ZM21.1338 48.812H15.665V43.3433H21.1338V48.812ZM13.4775 48.812H9.10254V43.3433H13.4775V48.812ZM6.91504 48.812H4.72754V43.3433H6.91504V48.812ZM37.54 59.7495V68.4995H28.79V59.7495H37.54ZM15.665 57.562V55.3745H39.7275V57.562H15.665ZM26.6025 59.7495V68.4995H17.8525V59.7495H26.6025ZM52.8525 68.4995H39.7275V59.7495H40.8213C41.425 59.7495 41.915 59.2606 41.915 58.6558V54.2808C41.915 53.6759 41.425 53.187 40.8213 53.187H14.5713C13.9675 53.187 13.4775 53.6759 13.4775 54.2808V58.6558C13.4775 59.2606 13.9675 59.7495 14.5713 59.7495H15.665V68.4995H4.72754V50.9995H41.915C42.5188 50.9995 43.0088 50.5106 43.0088 49.9058V42.2495C43.0088 41.6447 42.5188 41.1558 41.915 41.1558H4.72754V21.4683H52.8525V68.4995ZM68.165 48.812H57.2275C56.6238 48.812 56.1338 49.3009 56.1338 49.9058C56.1338 50.5106 56.6238 50.9995 57.2275 50.9995H65.9775V68.4995H55.04V45.5308H68.165V48.812Z" fill="#FFFF00"/>
<path d="M57.2275 64.1245H63.79C64.3938 64.1245 64.8838 63.6356 64.8838 63.0308V54.2808C64.8838 53.6759 64.3938 53.187 63.79 53.187H57.2275C56.6238 53.187 56.1338 53.6759 56.1338 54.2808V63.0308C56.1338 63.6356 56.6238 64.1245 57.2275 64.1245ZM58.3213 59.7495H59.415V61.937H58.3213V59.7495ZM61.6025 61.937V59.7495H62.6963V61.937H61.6025ZM62.6963 57.562H61.6025V55.3745H62.6963V57.562ZM59.415 55.3745V57.562H58.3213V55.3745H59.415Z" fill="#FFFF00"/>
<path d="M49.5713 24.7495H45.1963C44.5925 24.7495 44.1025 25.2384 44.1025 25.8433V30.2183C44.1025 30.8231 44.5925 31.312 45.1963 31.312H49.5713C50.175 31.312 50.665 30.8231 50.665 30.2183V25.8433C50.665 25.2384 50.175 24.7495 49.5713 24.7495ZM48.4775 29.1245H46.29V26.937H48.4775V29.1245Z" fill="#FFFF00"/>
<path d="M49.5713 33.4995H45.1963C44.5925 33.4995 44.1025 33.9884 44.1025 34.5933V38.9683C44.1025 39.5731 44.5925 40.062 45.1963 40.062H49.5713C50.175 40.062 50.665 39.5731 50.665 38.9683V34.5933C50.665 33.9884 50.175 33.4995 49.5713 33.4995ZM48.4775 37.8745H46.29V35.687H48.4775V37.8745Z" fill="#FFFF00"/>
<path d="M49.5713 42.2495H45.1963C44.5925 42.2495 44.1025 42.7384 44.1025 43.3433V47.7183C44.1025 48.3231 44.5925 48.812 45.1963 48.812H49.5713C50.175 48.812 50.665 48.3231 50.665 47.7183V43.3433C50.665 42.7384 50.175 42.2495 49.5713 42.2495ZM48.4775 46.6245H46.29V44.437H48.4775V46.6245Z" fill="#FFFF00"/>
<path d="M49.5713 50.9995H45.1963C44.5925 50.9995 44.1025 51.4884 44.1025 52.0933V56.4683C44.1025 57.0731 44.5925 57.562 45.1963 57.562H49.5713C50.175 57.562 50.665 57.0731 50.665 56.4683V52.0933C50.665 51.4884 50.175 50.9995 49.5713 50.9995ZM48.4775 55.3745H46.29V53.187H48.4775V55.3745Z" fill="#FFFF00"/>
<path d="M49.5713 59.7495H45.1963C44.5925 59.7495 44.1025 60.2384 44.1025 60.8433V65.2183C44.1025 65.8231 44.5925 66.312 45.1963 66.312H49.5713C50.175 66.312 50.665 65.8231 50.665 65.2183V60.8433C50.665 60.2384 50.175 59.7495 49.5713 59.7495ZM48.4775 64.1245H46.29V61.937H48.4775V64.1245Z" fill="#FFFF00"/>
<path d="M45.1963 5.06201H12.3838C11.78 5.06201 11.29 5.55092 11.29 6.15576C11.29 6.76061 11.78 7.24951 12.3838 7.24951H45.1963C45.8 7.24951 46.29 6.76061 46.29 6.15576C46.29 5.55092 45.8 5.06201 45.1963 5.06201Z" fill="#FFFF00"/>
</g>
<defs>
<clipPath id="clip0_1_104">
<rect width="70" height="70" fill="white" transform="translate(0.352539 0.687012)"/>
</clipPath>
</defs>
</svg>
