<svg width="24" height="24" viewBox="0 0 24 24" fill="none" xmlns="http://www.w3.org/2000/svg">
<g clip-path="url(#clip0_1_729)">
<path d="M22.9903 10.4543C22.5886 7.52618 21.0401 4.87761 18.6856 3.09122C16.3311 1.30482 13.3633 0.52693 10.4352 0.92867C7.50714 1.33041 4.85857 2.87888 3.07217 5.23342C1.28578 7.58796 0.507887 10.5557 0.909627 13.4838C1.24061 15.9073 2.35431 18.1563 4.08123 19.8885C5.80815 21.6208 8.05372 22.7414 10.4762 23.0798C10.9719 23.1448 11.4713 23.1774 11.9712 23.1776C13.991 23.1809 15.973 22.6297 17.7011 21.5841C17.8224 21.5111 17.9281 21.4148 18.0122 21.3009C18.0963 21.187 18.1571 21.0576 18.1912 20.9202C18.2253 20.7828 18.232 20.64 18.2109 20.5C18.1899 20.36 18.1414 20.2255 18.0683 20.1042C17.9953 19.9829 17.8991 19.8772 17.7852 19.7931C17.6712 19.709 17.5419 19.6482 17.4045 19.6141C17.1269 19.5452 16.8334 19.5894 16.5884 19.7369C15.3584 20.4752 13.9695 20.9082 12.5378 20.9997C11.1061 21.0912 9.67333 20.8386 8.35931 20.2629C7.0453 19.6872 5.88825 18.8052 4.98495 17.6907C4.08166 16.5762 3.45839 15.2616 3.16727 13.8568C2.87616 12.4521 2.92567 10.998 3.31166 9.61632C3.69766 8.23462 4.40891 6.96545 5.38592 5.91497C6.36294 4.86449 7.5773 4.06324 8.92743 3.57825C10.2776 3.09327 11.7242 2.93865 13.1463 3.12733C14.4673 3.30296 15.7326 3.77023 16.8506 4.49528C17.9687 5.22033 18.9114 6.185 19.6106 7.31941C20.3098 8.45382 20.7478 9.72955 20.8931 11.0542C21.0383 12.3788 20.887 13.7191 20.4503 14.9781C20.337 15.2808 20.1322 15.5408 19.8644 15.7218C19.5967 15.9029 19.2792 15.9962 18.956 15.9886C18.5301 15.9881 18.1219 15.8186 17.8207 15.5175C17.5196 15.2164 17.3502 14.8081 17.3496 14.3822V7.72301C17.3496 7.43708 17.236 7.16285 17.0338 6.96066C16.8316 6.75848 16.5574 6.64489 16.2715 6.64489C15.9855 6.64489 15.7113 6.75848 15.5091 6.96066C15.3069 7.16285 15.1933 7.43708 15.1933 7.72301V7.73308C14.376 7.1162 13.3999 6.74488 12.3792 6.66257C11.3586 6.58025 10.3356 6.79035 9.42994 7.26828C8.52433 7.7462 7.77357 8.47218 7.26553 9.36125C6.7575 10.2503 6.51319 11.2657 6.56121 12.2886C6.60924 13.3114 6.9476 14.2994 7.5367 15.137C8.12581 15.9746 8.94128 16.627 9.88769 17.018C10.8341 17.4089 11.8723 17.5223 12.8808 17.3447C13.8892 17.1671 14.8263 16.706 15.5822 16.0152C15.8876 16.6514 16.3661 17.1886 16.9628 17.5653C17.5596 17.9419 18.2503 18.1428 18.956 18.1449C19.7274 18.1523 20.482 17.9193 21.1149 17.4783C21.7479 17.0373 22.2277 16.4101 22.4879 15.6839C23.069 14.0055 23.2412 12.2126 22.9903 10.4543ZM11.959 15.2699C11.3193 15.2699 10.6939 15.0802 10.162 14.7248C9.63016 14.3694 9.2156 13.8643 8.9708 13.2733C8.726 12.6823 8.66194 12.0319 8.78674 11.4045C8.91154 10.7771 9.21959 10.2008 9.67192 9.74847C10.1243 9.29613 10.7006 8.98808 11.328 8.86329C11.9554 8.73849 12.6057 8.80254 13.1967 9.04734C13.7877 9.29214 14.2929 9.7067 14.6483 10.2386C15.0037 10.7705 15.1933 11.3958 15.1933 12.0355C15.1924 12.893 14.8513 13.7152 14.245 14.3215C13.6386 14.9279 12.8165 15.2689 11.959 15.2699Z" fill="black"/>
</g>
<defs>
<clipPath id="clip0_1_729">
<rect width="23" height="23" fill="white" transform="translate(0.458984 0.535156)"/>
</clipPath>
</defs>
</svg>
