<svg width="59" height="59" viewBox="0 0 59 59" fill="none" xmlns="http://www.w3.org/2000/svg">
<circle cx="29.12" cy="29.12" r="29.12" fill="#FFFF00"/>
<g clip-path="url(#clip0_1_6517)">
<path d="M28.894 31.1597L38.269 38.1909C38.9597 38.7089 39.9386 38.569 40.4565 37.8784C40.9745 37.1878 40.8347 36.2089 40.144 35.6909L31.4644 29.1206V15.8394C31.4644 14.9761 30.7651 14.2769 29.9019 14.2769C29.0386 14.2769 28.3394 14.9761 28.3394 15.8394V29.9019C28.3394 30.4206 28.5565 30.8878 28.894 31.1597Z" fill="black"/>
<path d="M30.6832 5.68311C19.2465 5.68311 9.48009 13.9378 7.57384 25.2144L6.98009 24.3315C6.49649 23.6151 5.52462 23.4261 4.80821 23.9097C4.09181 24.3933 3.90274 25.3651 4.38634 26.0815L7.51134 30.769C7.76837 31.1597 8.18712 31.4151 8.65196 31.4644H8.80821C9.22227 31.4628 9.61837 31.2972 9.90977 31.0034L13.816 27.0972C14.4262 26.487 14.4262 25.4964 13.816 24.8862C13.2059 24.2761 12.2152 24.2761 11.6051 24.8862L10.6363 25.8628C12.4356 14.7894 22.8707 7.27217 33.9434 9.07139C45.016 10.8706 52.5348 21.305 50.7356 32.3784C49.1379 42.2112 40.6449 49.4347 30.6832 49.4331C24.4004 49.5472 18.4582 46.5831 14.7691 41.4956C14.2684 40.7925 13.2926 40.6276 12.5895 41.1284C11.8863 41.6292 11.7215 42.605 12.2223 43.3081C16.4941 49.2237 23.3879 52.6776 30.6832 52.5581C43.6277 52.5581 54.1207 42.0651 54.1207 29.1206C54.1207 16.1761 43.6277 5.68311 30.6832 5.68311Z" fill="black"/>
</g>
<defs>
<clipPath id="clip0_1_6517">
<rect width="50" height="50" fill="white" transform="translate(4.12061 4.12061)"/>
</clipPath>
</defs>
</svg>
