<svg width="59" height="60" viewBox="0 0 59 60" fill="none" xmlns="http://www.w3.org/2000/svg">
<circle cx="29.12" cy="29.9994" r="29.12" fill="#FFFF00"/>
<g clip-path="url(#clip0_181_546)">
<path d="M32.4615 40.2272C31.9503 40.2749 31.4372 40.1595 30.9956 39.8976C30.6729 39.5664 30.5182 39.1065 30.5751 38.6476C30.5871 38.2656 30.6327 37.8853 30.7115 37.5113C30.7877 37.0822 30.8863 36.6574 31.0069 36.2385L32.3478 31.6249C32.4861 31.1695 32.5775 30.7011 32.6206 30.2271C32.6206 29.7158 32.6887 29.3634 32.6887 29.159C32.7172 28.2475 32.3281 27.3729 31.6319 26.784C30.7755 26.1265 29.7091 25.8034 28.6319 25.8749C27.8599 25.8865 27.0939 26.0129 26.3591 26.2499C25.5561 26.4999 24.7114 26.7991 23.825 27.1476L23.4387 28.6476C23.7 28.5567 24.0183 28.4545 24.3819 28.3408C24.7288 28.2381 25.0883 28.1844 25.45 28.1817C25.9575 28.1267 26.4682 28.2513 26.8932 28.534C27.1819 28.8784 27.3173 29.3258 27.2682 29.7726C27.2669 30.1548 27.225 30.5357 27.1432 30.909C27.0636 31.3067 26.9614 31.7271 26.8364 32.1703L25.4841 36.8066C25.3751 37.2376 25.2879 37.6737 25.2228 38.1134C25.1697 38.4899 25.1431 38.8696 25.1432 39.2498C25.1376 40.1674 25.5573 41.036 26.2795 41.602C27.1491 42.2697 28.2307 42.6006 29.325 42.5339C30.0955 42.5497 30.8633 42.4383 31.5977 42.2043C32.2417 41.9845 33.1015 41.6702 34.1773 41.2611L34.541 39.8293C34.2496 39.9502 33.9495 40.0489 33.6432 40.1247C33.2559 40.2132 32.8583 40.2475 32.4615 40.2272Z" fill="black"/>
<path d="M33.8819 18.3522C33.2635 17.7842 32.4486 17.4787 31.6092 17.4999C30.7702 17.481 29.9561 17.7863 29.3364 18.3522C28.2005 19.3317 28.0736 21.0466 29.0532 22.1827C29.1405 22.2839 29.2351 22.3786 29.3364 22.4659C30.6305 23.6234 32.5878 23.6234 33.8818 22.4659C35.0178 21.4767 35.1368 19.754 34.1476 18.6181C34.0654 18.5235 33.9765 18.4346 33.8819 18.3522Z" fill="black"/>
<path d="M29.1206 5C15.3135 5 4.12061 16.1929 4.12061 30C4.12061 43.8071 15.3135 55 29.1206 55C42.9277 55 54.1206 43.8071 54.1206 30C54.1206 16.1929 42.9277 5 29.1206 5ZM29.1206 52.7272C16.5687 52.7272 6.39336 42.552 6.39336 30C6.39336 17.448 16.5687 7.27275 29.1206 7.27275C41.6726 7.27275 51.8479 17.448 51.8479 30C51.8479 42.552 41.6726 52.7272 29.1206 52.7272Z" fill="black"/>
</g>
<defs>
<clipPath id="clip0_181_546">
<rect width="50" height="50" fill="white" transform="translate(4.12061 5)"/>
</clipPath>
</defs>
</svg>
