<svg width="33" height="32" viewBox="0 0 33 32" fill="none" xmlns="http://www.w3.org/2000/svg">
<g clip-path="url(#clip0_231_919)">
<path d="M2.56836 30.375H17.5684C18.2029 30.375 18.8779 30.1681 19.4385 29.7453C19.9759 30.1501 20.6345 30.375 21.3184 30.375H29.5684C31.2915 30.375 32.6934 28.9731 32.6934 27.25C32.6934 25.5269 31.2915 24.125 29.5684 24.125H25.1008C26.2899 22.9042 26.2808 20.9442 25.0722 19.7356C23.8537 18.5172 21.8712 18.5172 20.6527 19.7356L19.4434 20.9447V12.25C19.4434 10.5269 18.0415 9.125 16.3184 9.125H15.6934V7.875H17.5684C17.9135 7.875 18.1934 7.59519 18.1934 7.25V3.5C18.1934 2.46613 17.3522 1.625 16.3184 1.625H3.81836C2.78448 1.625 1.94336 2.46613 1.94336 3.5V7.25C1.94336 7.59519 2.22317 7.875 2.56836 7.875H4.44336V9.125H3.81836C2.09523 9.125 0.693359 10.5269 0.693359 12.25V28.5C0.693359 29.5339 1.53448 30.375 2.56836 30.375ZM1.94336 28.5V26.6244H14.4964C14.3209 27.4909 14.5198 28.4052 15.0605 29.125H2.56836C2.22373 29.125 1.94336 28.8446 1.94336 28.5ZM18.443 23.7129L21.0945 26.3644L18.8845 28.5743C18.1407 29.3182 16.953 29.2945 16.2328 28.5743C15.5059 27.8475 15.4954 26.6599 16.2328 25.9226L18.443 23.7129ZM20.3634 28.8632C21.3623 27.8643 22.8513 26.3753 23.8516 25.375H25.1934V29.125H21.3184C20.9789 29.125 20.6497 29.0326 20.3634 28.8632ZM31.4434 27.25C31.4434 28.2839 30.6022 29.125 29.5684 29.125H26.4434V25.375H29.5684C30.6022 25.375 31.4434 26.2161 31.4434 27.25ZM21.5365 20.6194C22.2674 19.8886 23.4571 19.8882 24.1883 20.6194C24.9194 21.3506 24.9194 22.5401 24.1883 23.2712C24.0365 23.4229 24.857 22.6027 21.9783 25.4805L19.3269 22.8291L21.5365 20.6194ZM3.19336 3.5C3.19336 3.15538 3.47373 2.875 3.81836 2.875H16.3184C16.663 2.875 16.9434 3.15538 16.9434 3.5V6.625H15.6934V4.75C15.6934 4.40481 15.4135 4.125 15.0684 4.125C14.7232 4.125 14.4434 4.40481 14.4434 4.75V6.625H13.1934V4.75C13.1934 4.40481 12.9135 4.125 12.5684 4.125C12.2232 4.125 11.9434 4.40481 11.9434 4.75V6.625H10.6934V4.75C10.6934 4.40481 10.4135 4.125 10.0684 4.125C9.72317 4.125 9.44336 4.40481 9.44336 4.75V6.625H8.19336V4.75C8.19336 4.40481 7.91355 4.125 7.56836 4.125C7.22317 4.125 6.94336 4.40481 6.94336 4.75V6.625H5.69336V4.75C5.69336 4.40481 5.41355 4.125 5.06836 4.125C4.72317 4.125 4.44336 4.40481 4.44336 4.75V6.625H3.19336V3.5ZM5.69336 7.875H14.4434V9.125H5.69336V7.875ZM3.81836 10.375H16.3184C17.3522 10.375 18.1934 11.2161 18.1934 12.25V12.875H12.8809C12.5357 12.875 12.2559 13.1548 12.2559 13.5C12.2559 13.8452 12.5357 14.125 12.8809 14.125H18.1934V22.1946C17.7105 22.6773 16.1366 24.2511 15.3489 25.0387C15.2435 25.1441 15.1469 25.2569 15.0582 25.375H1.94336V14.125H7.25586C7.60105 14.125 7.88086 13.8452 7.88086 13.5C7.88086 13.1548 7.60105 12.875 7.25586 12.875H1.94336V12.25C1.94336 11.2161 2.78448 10.375 3.81836 10.375Z" fill="#1F7D3A"/>
<path d="M5.69336 18.5V21C5.69336 21.3452 5.97317 21.625 6.31836 21.625H8.19336V23.5C8.19336 23.8452 8.47317 24.125 8.81836 24.125H11.3184C11.6635 24.125 11.9434 23.8452 11.9434 23.5V21.625H13.8184C14.1635 21.625 14.4434 21.3452 14.4434 21V18.5C14.4434 18.1548 14.1635 17.875 13.8184 17.875H11.9434V16C11.9434 15.6548 11.6635 15.375 11.3184 15.375H8.81836C8.47317 15.375 8.19336 15.6548 8.19336 16V17.875H6.31836C5.97317 17.875 5.69336 18.1548 5.69336 18.5ZM6.94336 19.125H8.81836C9.16355 19.125 9.44336 18.8452 9.44336 18.5V16.625H10.6934V18.5C10.6934 18.8452 10.9732 19.125 11.3184 19.125H13.1934V20.375H11.3184C10.9732 20.375 10.6934 20.6548 10.6934 21V22.875H9.44336V21C9.44336 20.6548 9.16355 20.375 8.81836 20.375H6.94336V19.125Z" fill="#1F7D3A"/>
<path d="M10.0684 14.125C10.4135 14.125 10.6934 13.8452 10.6934 13.5C10.6934 13.1548 10.4135 12.875 10.0684 12.875C9.72318 12.875 9.44336 13.1548 9.44336 13.5C9.44336 13.8452 9.72318 14.125 10.0684 14.125Z" fill="#1F7D3A"/>
</g>
<defs>
<clipPath id="clip0_231_919">
<rect width="32" height="32" fill="white" transform="translate(0.693359)"/>
</clipPath>
</defs>
</svg>
