<svg width="33" height="32" viewBox="0 0 33 32" fill="none" xmlns="http://www.w3.org/2000/svg">
<path d="M29.0508 10.6376C29.051 9.12714 28.6032 7.6506 27.7642 6.39467C26.9252 5.13874 25.7325 4.15985 24.3371 3.58181C22.9417 3.00377 21.4061 2.85255 19.9248 3.14727C18.4434 3.442 17.0827 4.16943 16.0148 5.23756L10.6508 10.6002L5.29076 15.9602C4.93307 16.317 4.61151 16.7082 4.33076 17.1282C4.30276 17.1696 4.2881 17.2176 4.2601 17.2616C4.01585 17.6367 3.80482 18.0324 3.62943 18.4442C3.61076 18.4882 3.60543 18.5376 3.5881 18.5776C3.42025 18.9945 3.28996 19.4255 3.19876 19.8656V19.9442C3.11073 20.4102 3.0661 20.8833 3.06543 21.3576V21.3682C3.06597 21.8424 3.1106 22.3156 3.19876 22.7816C3.19876 22.8069 3.19876 22.8336 3.20676 22.8602C3.27483 23.1451 3.35987 23.4256 3.46143 23.7002C3.82082 24.8512 4.45034 25.8995 5.29743 26.7576C5.63251 27.0901 5.99762 27.3909 6.3881 27.6562C6.41343 27.6722 6.43343 27.6962 6.45876 27.7136C6.6481 27.8402 6.85876 27.9269 7.0601 28.0362C7.28978 28.1759 7.52703 28.3028 7.77076 28.4162C7.99743 28.5109 8.24143 28.5589 8.47743 28.6309C8.7119 28.7148 8.95042 28.7869 9.1921 28.8469C9.68783 28.9453 10.192 28.9949 10.6974 28.9949C10.8841 28.9949 11.0641 28.9536 11.2494 28.9402C11.5675 28.9294 11.8846 28.8982 12.1988 28.8469C12.2414 28.8389 12.2814 28.8189 12.3321 28.8096C13.7374 28.5066 15.0272 27.8096 16.0508 26.8002C16.0641 26.7869 16.0814 26.7776 16.0948 26.7642L21.4548 21.4042L26.8174 16.0402C27.5287 15.3323 28.0923 14.4902 28.4757 13.5628C28.8591 12.6354 29.0545 11.6411 29.0508 10.6376ZM10.8774 17.7736L9.8641 18.7869C9.43144 19.2197 9.1005 19.7433 8.89525 20.3199C8.69001 20.8964 8.6156 21.5114 8.67743 22.1202C8.70366 22.385 8.62467 22.6495 8.45752 22.8566C8.29038 23.0637 8.04849 23.1967 7.7841 23.2269H7.67743C7.42975 23.2253 7.19153 23.1315 7.00915 22.9639C6.82677 22.7964 6.71328 22.5669 6.69076 22.3202C6.59673 21.4166 6.70598 20.5035 7.0105 19.6476C7.31503 18.7916 7.80713 18.0147 8.45076 17.3736L9.4641 16.3602C9.65228 16.1743 9.90619 16.07 10.1708 16.07C10.4353 16.07 10.6892 16.1743 10.8774 16.3602C10.9723 16.4519 11.0477 16.5617 11.0992 16.6831C11.1507 16.8045 11.1773 16.935 11.1773 17.0669C11.1773 17.1988 11.1507 17.3293 11.0992 17.4507C11.0477 17.5721 10.9723 17.6819 10.8774 17.7736ZM20.0361 19.9856L12.0654 12.0149L17.4281 6.65089C18.4888 5.61103 19.9171 5.03184 21.4025 5.03922C22.8879 5.0466 24.3104 5.63994 25.3607 6.69029C26.411 7.74063 27.0044 9.16309 27.0118 10.6485C27.0191 12.1339 26.44 13.5622 25.4001 14.6229L20.0361 19.9856Z" fill="#1F7D3A"/>
</svg>
