<svg width="48" height="48" viewBox="0 0 48 48" fill="none" xmlns="http://www.w3.org/2000/svg">
<g clip-path="url(#clip0_1_440)">
<path d="M43.2461 0.46875H40.4922C39.7316 0.46875 39.1152 1.08515 39.1152 1.8457C39.1152 2.60625 39.7316 3.22266 40.4922 3.22266H43.2461C44.0052 3.22266 44.623 3.84049 44.623 4.59961V7.35352C44.623 8.11407 45.2394 8.73047 46 8.73047C46.7606 8.73047 47.377 8.11407 47.377 7.35352V4.59961C47.377 2.3219 45.5238 0.46875 43.2461 0.46875Z" fill="black"/>
<path d="M46 39.207C45.2394 39.207 44.623 39.8234 44.623 40.584V43.3379C44.623 44.097 44.0052 44.7148 43.2461 44.7148H40.4922C39.7316 44.7148 39.1152 45.3312 39.1152 46.0918C39.1152 46.8523 39.7316 47.4688 40.4922 47.4688H43.2461C45.5238 47.4688 47.377 45.6156 47.377 43.3379V40.584C47.377 39.8234 46.7606 39.207 46 39.207Z" fill="black"/>
<path d="M7.26172 44.7148H4.50781C3.7487 44.7148 3.13086 44.097 3.13086 43.3379V40.584C3.13086 39.8234 2.51446 39.207 1.75391 39.207C0.993355 39.207 0.376953 39.8234 0.376953 40.584V43.3379C0.376953 45.6156 2.2301 47.4688 4.50781 47.4688H7.26172C8.02227 47.4688 8.63867 46.8523 8.63867 46.0918C8.63867 45.3312 8.02227 44.7148 7.26172 44.7148Z" fill="black"/>
<path d="M16.2578 44.7148H13.5039C12.7434 44.7148 12.127 45.3312 12.127 46.0918C12.127 46.8523 12.7434 47.4688 13.5039 47.4688H16.2578C17.0184 47.4688 17.6348 46.8523 17.6348 46.0918C17.6348 45.3312 17.0184 44.7148 16.2578 44.7148Z" fill="black"/>
<path d="M22.5 0.46875H4.50781C2.2301 0.46875 0.376953 2.3219 0.376953 4.59961V22.5918C0.376953 24.8695 2.2301 26.7227 4.50781 26.7227H22.5C24.7777 26.7227 26.6309 24.8695 26.6309 22.5918V4.59961C26.6309 2.3219 24.7777 0.46875 22.5 0.46875ZM23.877 22.5918C23.877 23.3509 23.2591 23.9688 22.5 23.9688H4.50781C3.7487 23.9688 3.13086 23.3509 3.13086 22.5918V4.59961C3.13086 3.84049 3.7487 3.22266 4.50781 3.22266H22.5C23.2591 3.22266 23.877 3.84049 23.877 4.59961V22.5918Z" fill="black"/>
<path d="M32.2305 39.207C31.4699 39.207 30.8535 39.8234 30.8535 40.584C30.8535 41.3445 31.4699 41.9609 32.2305 41.9609H40.4922C40.5374 41.9609 40.5829 41.9584 40.6281 41.9541C40.6485 41.952 40.6686 41.948 40.689 41.9452C40.7131 41.9416 40.7375 41.9391 40.7611 41.9344C40.7844 41.9297 40.807 41.9233 40.83 41.9175C40.8504 41.9122 40.8712 41.9079 40.8916 41.9014C40.9142 41.8946 40.9361 41.8864 40.958 41.8785C40.9784 41.8709 40.9989 41.8645 41.0189 41.8562C41.0397 41.8476 41.0595 41.8376 41.0795 41.8279C41.1 41.8182 41.1208 41.8093 41.1409 41.7985C41.1602 41.7881 41.1789 41.7763 41.1979 41.7648C41.2176 41.753 41.2373 41.7418 41.2567 41.7293C41.2775 41.715 41.2972 41.6995 41.3176 41.6845C41.3334 41.6726 41.3496 41.6615 41.365 41.649C41.4353 41.5912 41.4994 41.5271 41.5572 41.4568C41.5701 41.441 41.5812 41.4241 41.5934 41.408C41.6081 41.3883 41.6235 41.3693 41.6371 41.3485C41.6504 41.3288 41.6619 41.3083 41.6741 41.2882C41.6848 41.27 41.6963 41.252 41.7067 41.2334C41.7178 41.2126 41.7271 41.1911 41.7372 41.1699C41.7461 41.1505 41.7562 41.1312 41.7644 41.1111C41.773 41.0907 41.7799 41.0691 41.7874 41.0483C41.7949 41.0268 41.8032 41.006 41.81 40.9842C41.8164 40.963 41.8211 40.9411 41.8265 40.9196C41.8318 40.8977 41.8379 40.8759 41.8426 40.8536C41.8476 40.8285 41.8505 40.8031 41.8541 40.778C41.8569 40.7586 41.8605 40.7396 41.8623 40.7202C41.867 40.6747 41.8695 40.6292 41.8695 40.5836V32.3223C41.8695 31.5617 41.2527 30.9453 40.4925 30.9453C39.732 30.9453 39.1156 31.5617 39.1156 32.3223V37.2596L29.5321 27.6768C28.9946 27.139 28.1226 27.139 27.585 27.6768C27.0472 28.2144 27.0472 29.0864 27.585 29.6239L37.1678 39.207H32.2305Z" fill="black"/>
<path d="M25.2539 44.7148H22.5C21.7394 44.7148 21.123 45.3312 21.123 46.0918C21.123 46.8523 21.7394 47.4688 22.5 47.4688H25.2539C26.0145 47.4688 26.6309 46.8523 26.6309 46.0918C26.6309 45.3312 26.0145 44.7148 25.2539 44.7148Z" fill="black"/>
<path d="M34.25 44.7148H31.4961C30.7355 44.7148 30.1191 45.3312 30.1191 46.0918C30.1191 46.8523 30.7355 47.4688 31.4961 47.4688H34.25C35.0106 47.4688 35.627 46.8523 35.627 46.0918C35.627 45.3312 35.0106 44.7148 34.25 44.7148Z" fill="black"/>
<path d="M31.4961 3.22266H34.25C35.0106 3.22266 35.627 2.60625 35.627 1.8457C35.627 1.08515 35.0106 0.46875 34.25 0.46875H31.4961C30.7355 0.46875 30.1191 1.08515 30.1191 1.8457C30.1191 2.60625 30.7355 3.22266 31.4961 3.22266Z" fill="black"/>
<path d="M46 30.2109C45.2394 30.2109 44.623 30.8273 44.623 31.5879V34.3418C44.623 35.1023 45.2394 35.7188 46 35.7188C46.7606 35.7188 47.377 35.1023 47.377 34.3418V31.5879C47.377 30.8273 46.7606 30.2109 46 30.2109Z" fill="black"/>
<path d="M1.75391 35.7188C2.51446 35.7188 3.13086 35.1023 3.13086 34.3418V31.5879C3.13086 30.8273 2.51446 30.2109 1.75391 30.2109C0.993355 30.2109 0.376953 30.8273 0.376953 31.5879V34.3418C0.376953 35.1023 0.993355 35.7188 1.75391 35.7188Z" fill="black"/>
<path d="M46 21.2148C45.2394 21.2148 44.623 21.8312 44.623 22.5918V25.3457C44.623 26.1063 45.2394 26.7227 46 26.7227C46.7606 26.7227 47.377 26.1063 47.377 25.3457V22.5918C47.377 21.8312 46.7606 21.2148 46 21.2148Z" fill="black"/>
<path d="M46 12.2188C45.2394 12.2188 44.623 12.8352 44.623 13.5957V16.3496C44.623 17.1102 45.2394 17.7266 46 17.7266C46.7606 17.7266 47.377 17.1102 47.377 16.3496V13.5957C47.377 12.8352 46.7606 12.2188 46 12.2188Z" fill="black"/>
</g>
<defs>
<clipPath id="clip0_1_440">
<rect width="47" height="47" fill="white" transform="translate(0.376953 0.46875)"/>
</clipPath>
</defs>
</svg>
