<svg width="48" height="48" viewBox="0 0 48 48" fill="none" xmlns="http://www.w3.org/2000/svg">
<g clip-path="url(#clip0_0_441)">
<path d="M42.9258 0.0166016H40.1719C39.4113 0.0166016 38.7949 0.633003 38.7949 1.39355C38.7949 2.15411 39.4113 2.77051 40.1719 2.77051H42.9258C43.6849 2.77051 44.3027 3.38834 44.3027 4.14746V6.90137C44.3027 7.66192 44.9191 8.27832 45.6797 8.27832C46.4402 8.27832 47.0566 7.66192 47.0566 6.90137V4.14746C47.0566 1.86975 45.2035 0.0166016 42.9258 0.0166016Z" fill="#1F7D3A"/>
<path d="M45.6797 38.7549C44.9191 38.7549 44.3027 39.3713 44.3027 40.1318V42.8857C44.3027 43.6449 43.6849 44.2627 42.9258 44.2627H40.1719C39.4113 44.2627 38.7949 44.8791 38.7949 45.6396C38.7949 46.4002 39.4113 47.0166 40.1719 47.0166H42.9258C45.2035 47.0166 47.0566 45.1635 47.0566 42.8857V40.1318C47.0566 39.3713 46.4402 38.7549 45.6797 38.7549Z" fill="#1F7D3A"/>
<path d="M6.94141 44.2627H4.1875C3.42838 44.2627 2.81055 43.6449 2.81055 42.8857V40.1318C2.81055 39.3713 2.19415 38.7549 1.43359 38.7549C0.673042 38.7549 0.0566406 39.3713 0.0566406 40.1318V42.8857C0.0566406 45.1635 1.90979 47.0166 4.1875 47.0166H6.94141C7.70196 47.0166 8.31836 46.4002 8.31836 45.6396C8.31836 44.8791 7.70196 44.2627 6.94141 44.2627Z" fill="#1F7D3A"/>
<path d="M15.9375 44.2627H13.1836C12.423 44.2627 11.8066 44.8791 11.8066 45.6396C11.8066 46.4002 12.423 47.0166 13.1836 47.0166H15.9375C16.6981 47.0166 17.3145 46.4002 17.3145 45.6396C17.3145 44.8791 16.6981 44.2627 15.9375 44.2627Z" fill="#1F7D3A"/>
<path d="M22.1797 0.0166016H4.1875C1.90979 0.0166016 0.0566406 1.86975 0.0566406 4.14746V22.1396C0.0566406 24.4174 1.90979 26.2705 4.1875 26.2705H22.1797C24.4574 26.2705 26.3105 24.4174 26.3105 22.1396V4.14746C26.3105 1.86975 24.4574 0.0166016 22.1797 0.0166016ZM23.5566 22.1396C23.5566 22.8988 22.9388 23.5166 22.1797 23.5166H4.1875C3.42838 23.5166 2.81055 22.8988 2.81055 22.1396V4.14746C2.81055 3.38834 3.42838 2.77051 4.1875 2.77051H22.1797C22.9388 2.77051 23.5566 3.38834 23.5566 4.14746V22.1396Z" fill="#1F7D3A"/>
<path d="M31.9102 38.7549C31.1496 38.7549 30.5332 39.3713 30.5332 40.1318C30.5332 40.8924 31.1496 41.5088 31.9102 41.5088H40.1719C40.2171 41.5088 40.2626 41.5063 40.3078 41.502C40.3282 41.4998 40.3483 41.4959 40.3687 41.493C40.3928 41.4894 40.4171 41.4869 40.4408 41.4823C40.4641 41.4776 40.4867 41.4711 40.5097 41.4654C40.5301 41.46 40.5509 41.4557 40.5713 41.4493C40.5939 41.4425 40.6158 41.4342 40.6377 41.4263C40.6581 41.4188 40.6786 41.4123 40.6986 41.4041C40.7194 41.3955 40.7392 41.3854 40.7592 41.3758C40.7797 41.3661 40.8005 41.3571 40.8205 41.3464C40.8399 41.336 40.8586 41.3241 40.8776 41.3126C40.8973 41.3008 40.917 41.2897 40.9364 41.2771C40.9572 41.2628 40.9769 41.2474 40.9973 41.2323C41.0131 41.2205 41.0292 41.2094 41.0447 41.1968C41.1149 41.1391 41.1791 41.0749 41.2369 41.0046C41.2498 40.9888 41.2609 40.972 41.2731 40.9559C41.2878 40.9361 41.3032 40.9171 41.3168 40.8963C41.3301 40.8766 41.3416 40.8562 41.3538 40.8361C41.3645 40.8178 41.376 40.7999 41.3864 40.7812C41.3975 40.7604 41.4068 40.7389 41.4169 40.7178C41.4258 40.6984 41.4359 40.679 41.4441 40.659C41.4527 40.6385 41.4595 40.617 41.4671 40.5962C41.4746 40.5747 41.4828 40.5539 41.4897 40.532C41.4961 40.5109 41.5008 40.489 41.5062 40.4675C41.5115 40.4456 41.5176 40.4237 41.5223 40.4015C41.5273 40.3764 41.5302 40.3509 41.5338 40.3258C41.5366 40.3065 41.5402 40.2875 41.542 40.2681C41.5467 40.2226 41.5492 40.177 41.5492 40.1315V31.8701C41.5492 31.1096 40.9324 30.4932 40.1722 30.4932C39.4117 30.4932 38.7953 31.1096 38.7953 31.8701V36.8074L29.2118 27.2247C28.6743 26.6868 27.8022 26.6868 27.2647 27.2247C26.7269 27.7622 26.7269 28.6343 27.2647 29.1718L36.8475 38.7549H31.9102Z" fill="#1F7D3A"/>
<path d="M24.9336 44.2627H22.1797C21.4191 44.2627 20.8027 44.8791 20.8027 45.6396C20.8027 46.4002 21.4191 47.0166 22.1797 47.0166H24.9336C25.6941 47.0166 26.3105 46.4002 26.3105 45.6396C26.3105 44.8791 25.6941 44.2627 24.9336 44.2627Z" fill="#1F7D3A"/>
<path d="M33.9297 44.2627H31.1758C30.4152 44.2627 29.7988 44.8791 29.7988 45.6396C29.7988 46.4002 30.4152 47.0166 31.1758 47.0166H33.9297C34.6902 47.0166 35.3066 46.4002 35.3066 45.6396C35.3066 44.8791 34.6902 44.2627 33.9297 44.2627Z" fill="#1F7D3A"/>
<path d="M31.1758 2.77051H33.9297C34.6902 2.77051 35.3066 2.15411 35.3066 1.39355C35.3066 0.633003 34.6902 0.0166016 33.9297 0.0166016H31.1758C30.4152 0.0166016 29.7988 0.633003 29.7988 1.39355C29.7988 2.15411 30.4152 2.77051 31.1758 2.77051Z" fill="#1F7D3A"/>
<path d="M45.6797 29.7588C44.9191 29.7588 44.3027 30.3752 44.3027 31.1357V33.8896C44.3027 34.6502 44.9191 35.2666 45.6797 35.2666C46.4402 35.2666 47.0566 34.6502 47.0566 33.8896V31.1357C47.0566 30.3752 46.4402 29.7588 45.6797 29.7588Z" fill="#1F7D3A"/>
<path d="M1.43359 35.2666C2.19415 35.2666 2.81055 34.6502 2.81055 33.8896V31.1357C2.81055 30.3752 2.19415 29.7588 1.43359 29.7588C0.673042 29.7588 0.0566406 30.3752 0.0566406 31.1357V33.8896C0.0566406 34.6502 0.673042 35.2666 1.43359 35.2666Z" fill="#1F7D3A"/>
<path d="M45.6797 20.7627C44.9191 20.7627 44.3027 21.3791 44.3027 22.1396V24.8936C44.3027 25.6541 44.9191 26.2705 45.6797 26.2705C46.4402 26.2705 47.0566 25.6541 47.0566 24.8936V22.1396C47.0566 21.3791 46.4402 20.7627 45.6797 20.7627Z" fill="#1F7D3A"/>
<path d="M45.6797 11.7666C44.9191 11.7666 44.3027 12.383 44.3027 13.1436V15.8975C44.3027 16.658 44.9191 17.2744 45.6797 17.2744C46.4402 17.2744 47.0566 16.658 47.0566 15.8975V13.1436C47.0566 12.383 46.4402 11.7666 45.6797 11.7666Z" fill="#1F7D3A"/>
</g>
<defs>
<clipPath id="clip0_0_441">
<rect width="47" height="47" fill="white" transform="translate(0.0566406 0.0166016)"/>
</clipPath>
</defs>
</svg>
