<svg width="166" height="165" viewBox="0 0 166 165" fill="none" xmlns="http://www.w3.org/2000/svg">
<rect x="0.124023" y="0.974609" width="165" height="164" rx="82" fill="white" fill-opacity="0.1"/>
<path d="M82.624 106.037C73.8584 106.037 70.7646 103.987 67.9287 101.937C67.4131 101.425 66.8975 101.168 66.124 100.656C61.4834 99.1184 52.9756 92.4559 49.8818 76.8246C46.2725 75.5434 41.374 71.6996 41.374 62.4746C41.374 55.2996 44.7256 52.9934 44.9834 52.7371C46.2725 51.9684 47.8193 52.2246 48.5928 53.5059C49.3662 54.7871 49.1084 56.3246 47.8193 57.0934C46.5303 57.8621 46.2725 58.3746 46.2725 62.7309C46.2725 71.4434 51.6865 72.4684 52.2021 72.4684C53.2334 72.7246 54.2646 73.4934 54.5225 74.5184C56.8428 89.6371 64.835 95.2746 67.6709 96.0434C67.9287 96.0434 68.1865 96.2996 68.1865 96.2996C68.96 96.8121 69.7334 97.3246 70.5068 97.8371C73.085 99.6309 75.1475 101.168 82.3662 101.168C89.585 101.168 91.6475 99.6309 94.2256 97.8371C94.999 97.3246 95.7725 96.8121 96.5459 96.2996C96.8037 96.2996 96.8037 96.0434 97.0615 96.0434C99.8975 95.2746 107.89 89.6371 110.21 74.5184C110.468 73.2371 111.241 72.4684 112.53 72.4684C113.046 72.4684 118.46 71.4434 118.46 62.7309C118.46 58.3746 116.913 57.0934 116.913 57.0934C115.624 56.3246 115.366 54.7871 116.397 53.5059C117.171 52.2246 118.976 51.9684 120.007 52.9934C120.265 53.2496 123.616 55.8121 123.616 62.7309C123.616 71.9559 118.718 75.7996 115.108 77.0809C112.272 92.7121 103.507 99.3746 98.8662 100.912C98.0928 101.425 97.5771 101.681 97.0615 102.193C94.4834 103.987 91.3896 106.037 82.624 106.037Z" fill="#1F7D3A"/>
<path d="M118.718 57.3496C118.202 57.3496 117.686 57.3496 117.429 56.8371C109.179 51.7121 109.179 44.5371 108.921 38.3871C108.663 33.0059 108.663 27.8809 104.022 23.2684C101.186 20.4496 93.9677 18.9121 82.624 18.9121C71.2802 18.9121 64.0615 20.4496 61.2255 23.2684C56.5849 27.8809 56.5849 33.0059 56.3271 38.3871C56.0693 44.7934 56.0693 51.9684 47.8193 56.8371C46.5302 57.6059 44.9834 57.0934 44.2099 56.0684C43.4365 54.7871 43.9521 53.2496 44.9834 52.4809C50.6552 48.8934 50.913 44.2809 51.1709 38.1309C51.4287 32.2371 51.4287 25.5746 57.6162 19.4246C61.7412 15.5809 69.4755 13.7871 82.624 13.7871C95.7724 13.7871 103.507 15.5809 107.632 19.6809C113.561 25.5746 113.819 32.4934 114.077 38.3871C114.335 44.2809 114.335 49.1496 120.265 52.7371C121.554 53.5059 121.811 55.0434 121.038 56.3246C120.522 56.8371 119.491 57.3496 118.718 57.3496Z" fill="#1F7D3A"/>
<path d="M103.507 109.881C102.218 109.881 101.187 109.112 100.929 107.831C100.671 106.806 100.671 106.037 100.671 105.012V95.2747C100.671 93.7372 101.702 92.7122 103.249 92.7122C104.796 92.7122 105.827 93.7372 105.827 95.2747V105.012C105.827 105.525 105.827 106.037 106.085 106.806C106.343 108.087 105.569 109.625 104.28 109.881C104.022 109.881 103.765 109.881 103.507 109.881Z" fill="#1F7D3A"/>
<path d="M62.2568 109.881C61.999 109.881 61.7412 109.881 61.7412 109.881C60.4521 109.625 59.4209 108.087 59.9365 106.806C60.1943 106.293 60.1943 105.525 60.1943 105.012V95.5308C60.1943 93.9933 61.2256 92.9683 62.7724 92.9683C64.3193 92.9683 65.3506 93.9933 65.3506 95.5308V105.012C65.3506 106.037 65.3506 107.062 65.0928 107.831C64.3193 109.112 63.2881 109.881 62.2568 109.881Z" fill="#1F7D3A"/>
<path d="M159.968 162.412C158.421 162.412 157.39 161.387 157.39 159.85C157.39 147.293 149.655 140.631 134.702 132.175C128.515 128.843 119.749 123.975 118.976 123.718C118.718 123.462 118.46 123.462 118.202 123.206C117.687 122.693 117.429 122.181 117.429 121.412C117.429 120.643 117.687 119.875 118.202 119.618C118.46 119.106 118.976 118.85 119.491 119.106C120.265 119.106 121.038 119.362 121.554 119.618C123.874 120.643 128.515 123.206 137.022 127.818C153.522 137.043 162.546 144.731 162.546 159.85C162.546 161.387 161.515 162.412 159.968 162.412Z" fill="#1F7D3A"/>
<path d="M5.28027 162.412C3.7334 162.412 2.70215 161.387 2.70215 159.85C2.70215 144.731 11.7256 137.043 27.9678 127.818C36.4756 122.95 40.8584 120.643 43.4365 119.618C43.9521 119.106 44.7256 118.85 45.499 119.106C46.2725 119.106 46.5303 119.362 46.7881 119.618C47.3037 120.131 47.5615 120.643 47.5615 121.412C47.5615 122.181 47.3037 122.693 46.7881 123.206C46.5303 123.462 46.2725 123.718 46.0146 123.718C45.2412 123.975 36.4756 128.843 30.2881 132.175C15.5928 140.631 7.8584 147.293 7.8584 159.85C7.8584 161.387 6.82715 162.412 5.28027 162.412Z" fill="#1F7D3A"/>
<path d="M119.491 58.1184C119.233 58.1184 118.976 58.1184 118.46 57.8621C117.171 57.3496 116.397 55.8121 116.913 54.5309C118.718 50.1746 118.718 44.5371 118.718 39.6684C118.718 18.9121 106.858 8.66211 82.624 8.66211C58.3897 8.66211 46.5303 18.9121 46.5303 39.9246C46.5303 44.7934 46.5303 50.1746 48.335 54.7871C48.8506 56.0684 48.0771 57.6059 46.7881 58.1184C45.499 58.6309 43.9521 57.8621 43.4365 56.5809C41.374 51.1996 41.374 44.7934 41.374 39.9246C41.374 15.8371 55.2959 3.53711 82.624 3.53711C109.952 3.53711 123.874 15.8371 123.874 39.9246C123.874 44.7934 123.874 51.1996 121.812 56.5809C121.554 57.3496 120.522 58.1184 119.491 58.1184Z" fill="#1F7D3A"/>
<path d="M82.6241 141.912C81.5928 141.912 80.8194 141.4 80.3038 140.631C77.4678 135.762 73.3428 130.893 69.2178 126.537C62.5147 118.85 56.8428 112.443 59.421 106.293C59.9366 105.012 61.4835 104.243 62.7725 105.012C64.0616 105.525 64.835 107.062 64.0616 108.343C62.7725 111.418 67.9288 117.312 73.085 122.95C76.1788 126.537 79.7881 130.381 82.6241 134.481C85.46 130.381 88.8116 126.537 92.1631 122.95C97.3194 117.312 102.476 111.418 101.187 108.343C100.671 107.062 101.187 105.525 102.476 105.012C103.765 104.5 105.312 105.012 105.827 106.293C108.405 112.443 102.476 118.85 95.7725 126.281C91.6475 130.893 87.5225 135.506 84.6866 140.375C84.4288 141.4 83.6553 141.912 82.6241 141.912Z" fill="#1F7D3A"/>
<path d="M110.983 136.787C110.726 136.787 110.726 136.787 110.983 136.787C109.952 136.787 109.179 136.275 108.921 135.762C105.312 130.381 101.444 127.05 98.3506 126.793C96.8037 126.793 95.5147 127.306 93.9678 128.843C92.9365 129.868 91.3896 129.868 90.3584 128.843C89.3271 127.818 89.3271 126.281 90.3584 125.256C93.4521 121.925 96.8037 121.412 98.8662 121.668C103.765 122.181 108.147 126.025 111.499 130.381C114.335 127.306 116.913 123.975 117.687 122.437C114.335 118.85 107.374 111.931 102.991 109.881C101.702 109.368 101.187 107.831 101.702 106.55C102.218 105.268 103.765 104.756 105.054 105.268C112.015 108.343 122.069 119.618 122.585 120.131C123.101 120.643 123.358 121.156 123.358 121.925C123.358 125.768 117.171 132.687 113.304 136.531C112.272 136.531 111.499 136.787 110.983 136.787Z" fill="#1F7D3A"/>
<path d="M54.2646 136.787C53.4912 136.787 52.9756 136.531 52.46 136.018C48.8506 132.175 42.4053 125.256 42.4053 121.412C42.4053 120.9 42.6631 120.131 43.1787 119.618C43.6943 119.106 53.4912 108.087 60.71 104.756C61.999 104.243 63.5459 104.756 64.0615 106.037C64.5771 107.318 64.0615 108.856 62.7725 109.368C58.1318 111.418 51.1709 118.337 48.0772 121.925C48.8506 123.462 51.1709 126.793 54.2646 129.868C57.6162 125.768 61.999 121.668 66.8975 121.156C68.96 120.9 72.3115 121.412 75.4053 124.743C76.4365 125.768 76.4365 127.306 75.4053 128.331C74.374 129.356 72.8271 129.356 71.7959 128.331C70.5068 126.793 68.96 126.281 67.4131 126.281C64.3193 126.537 60.4521 129.868 56.8428 135.25C56.0693 136.275 55.2959 136.787 54.2646 136.787C54.5225 136.787 54.5225 136.787 54.2646 136.787Z" fill="#1F7D3A"/>
<path d="M82.624 162.412C82.1084 162.412 81.335 162.156 81.0771 161.9C70.7646 153.187 61.999 142.937 55.8115 131.15C55.0381 129.868 55.5537 128.331 56.8428 127.562C58.1318 126.793 59.6787 127.306 60.4521 128.587C66.124 139.35 73.8584 148.575 82.8818 156.518C92.1631 148.575 99.6396 139.35 105.312 128.587C106.085 127.306 107.632 126.793 108.921 127.562C110.21 128.331 110.726 129.868 109.952 131.15C103.507 142.937 94.999 153.443 84.6865 161.9C83.9131 162.156 83.1396 162.412 82.624 162.412Z" fill="#1F7D3A"/>
</svg>
