<svg width="165" height="165" viewBox="0 0 165 165" fill="none" xmlns="http://www.w3.org/2000/svg">
<rect x="0.984375" y="0.187012" width="164" height="164" rx="82" fill="white" fill-opacity="0.1"/>
<path d="M82.9844 105.249C69.4031 105.249 56.3344 92.4369 52.4906 76.0369C48.9031 74.7557 44.5469 70.9119 44.5469 61.6869C44.5469 59.1244 45.0594 56.8182 45.8281 54.7682C46.5969 52.9744 48.1344 51.6932 49.9281 51.1807C54.5406 49.8994 66.5844 39.9057 67.6094 30.4244C67.6094 29.3994 68.3781 28.6307 69.4031 28.3744C70.4281 28.1182 71.4531 28.3744 72.2219 29.3994C80.1656 40.1619 102.459 50.6682 114.759 51.4369C117.066 51.6932 119.372 52.9744 120.141 55.2807C120.909 57.0744 121.422 59.1244 121.422 61.6869C121.422 70.9119 116.809 74.7557 113.478 76.0369C109.634 92.4369 96.5656 105.249 82.9844 105.249ZM71.4531 36.3182C67.6094 46.5682 56.3344 55.0244 51.4656 56.3057C51.2094 56.3057 50.6969 56.5619 50.6969 57.0744C50.1844 57.8432 49.6719 59.3807 49.6719 61.6869C49.6719 70.3994 54.5406 71.4244 55.0531 71.4244C56.0781 71.6807 57.1031 72.4494 57.3594 73.4744C60.4344 89.8744 72.9906 100.124 82.9844 100.124C92.9781 100.124 105.534 89.8744 108.609 73.4744C108.866 72.4494 109.634 71.4244 110.916 71.4244C111.428 71.4244 116.297 70.3994 116.297 61.6869C116.297 59.3807 115.784 58.0994 115.528 57.3307C115.272 56.8182 115.016 56.5619 114.503 56.5619C102.203 55.7932 81.9594 46.8244 71.4531 36.3182Z" fill="#1F7D3A"/>
<path d="M154.734 161.624C153.197 161.624 152.172 160.599 152.172 159.062C152.172 149.324 146.022 140.099 134.747 132.924C133.466 132.156 133.209 130.618 133.978 129.337C134.747 128.056 136.284 127.799 137.566 128.568C154.734 139.587 157.297 152.399 157.297 159.062C157.297 160.599 156.272 161.624 154.734 161.624Z" fill="#1F7D3A"/>
<path d="M11.2344 161.624C9.69687 161.624 8.67188 160.599 8.67188 159.062C8.67188 148.299 14.8219 138.306 26.0969 130.362C27.6344 129.337 29.4281 128.056 31.2219 127.287C32.5031 126.518 34.0406 127.031 34.8094 128.312C35.5781 129.593 35.0656 131.131 33.7844 131.899C32.2469 132.924 30.7094 133.693 29.1719 134.718C16.3594 143.431 13.7969 152.656 13.7969 159.062C13.7969 160.599 12.7719 161.624 11.2344 161.624Z" fill="#1F7D3A"/>
<path d="M27.3782 135.231C25.8407 135.231 24.8157 134.206 24.8157 132.668C24.8157 107.812 31.2219 80.137 35.3219 63.4808C36.6032 58.612 37.3719 54.512 37.8844 51.9495C42.7532 24.787 54.7969 13.512 61.4594 9.41201C66.8407 6.08076 72.7344 4.54326 77.6032 5.31201C79.3969 4.28701 84.0094 2.74951 90.6719 2.74951C124.241 2.74951 131.672 59.637 131.672 79.6245C131.672 83.212 132.184 87.312 132.697 91.9245C133.466 97.562 134.234 103.968 134.234 110.375C134.234 111.912 133.209 112.937 131.672 112.937C130.134 112.937 129.109 111.912 129.109 110.375C129.109 104.225 128.341 98.0745 127.572 92.6933C127.059 87.8245 126.547 83.4683 126.547 79.6245C126.547 64.5058 120.397 7.87451 90.6719 7.87451C83.2407 7.87451 79.1407 10.1808 79.1407 10.1808C78.6282 10.437 77.8594 10.437 77.0907 10.437C74.2719 9.66826 69.4032 10.1808 64.0219 13.512C58.1282 17.3558 47.3657 27.6058 42.7532 52.7183C42.2407 55.537 41.2157 59.3808 40.1907 64.5058C36.3469 80.9058 29.9407 108.581 29.9407 132.668C29.9407 133.95 28.9157 135.231 27.3782 135.231Z" fill="#1F7D3A"/>
<path d="M129.109 161.625C99.8969 161.625 95.7969 135.743 95.7969 107.812C95.7969 106.275 96.8219 105.25 98.3594 105.25C99.8969 105.25 100.922 106.275 100.922 107.812C100.922 135.487 105.022 153.681 123.984 156.243C122.703 153.681 121.422 150.35 121.422 146.25C121.422 137.025 123.728 130.362 125.778 124.212C127.572 119.343 129.109 114.987 129.109 110.375C129.109 108.837 130.134 107.812 131.672 107.812C133.209 107.812 134.234 108.837 134.234 110.375C134.234 116.012 132.441 120.881 130.647 126.006C128.597 131.9 126.547 137.793 126.547 146.25C126.547 152.656 130.903 157.268 130.903 157.268C131.672 158.037 131.672 159.062 131.416 160.087C131.159 161.112 130.134 161.625 129.109 161.625Z" fill="#1F7D3A"/>
<path d="M36.8593 161.624C35.8343 161.624 34.8093 161.112 34.553 160.087C34.0405 159.062 34.2968 158.037 35.0655 157.268C35.0655 157.268 39.4218 152.912 39.4218 146.249C39.4218 138.306 38.653 132.156 37.8843 126.518C37.3718 121.649 36.8593 117.293 36.8593 112.168C36.8593 106.018 37.628 99.6119 39.4218 91.6681C39.678 90.3869 41.2155 89.3619 42.4968 89.6181C43.778 89.8744 44.803 91.4119 44.5468 92.6931C42.753 100.124 41.9843 106.274 41.9843 111.912C41.9843 116.524 42.4968 120.881 43.0093 125.493C43.778 131.131 44.5468 137.537 44.5468 145.737C44.5468 149.837 43.2655 153.168 41.9843 155.731C60.9468 153.168 65.0468 134.974 65.0468 107.299C65.0468 105.762 66.0718 104.737 67.6093 104.737C69.1468 104.737 70.1718 105.762 70.1718 107.299C70.1718 135.743 66.0718 161.624 36.8593 161.624Z" fill="#1F7D3A"/>
<path d="M82.9843 156.499C82.728 156.499 82.2155 156.499 81.9593 156.243C76.578 153.937 71.7093 150.093 68.1218 145.224C67.353 144.199 67.6093 142.406 68.6343 141.637C69.6593 140.868 71.453 141.124 72.2218 142.149C75.0405 145.993 78.628 149.068 82.9843 151.118C87.3405 149.068 90.928 145.993 93.7468 142.149C94.5155 141.124 96.3093 140.868 97.3343 141.637C98.3593 142.406 98.6155 144.199 97.8468 145.224C94.2593 150.093 89.3905 153.937 84.0093 156.243C83.753 156.499 83.2405 156.499 82.9843 156.499Z" fill="#1F7D3A"/>
</svg>
