<svg width="301" height="301" viewBox="0 0 301 301" fill="none" xmlns="http://www.w3.org/2000/svg">
<g clip-path="url(#clip0_1_6459)">
<path d="M188.011 188.07C199.961 176.03 216.512 168.566 234.775 168.566C247.079 168.566 258.861 171.897 269.193 178.25C272.601 166.391 274.326 154.094 274.326 141.613C274.326 68.5953 214.922 9.19116 141.904 9.19116C68.886 9.19116 9.48193 68.5953 9.48193 141.613C9.48193 214.631 68.886 274.035 141.904 274.035C149.498 274.035 157.112 273.387 164.533 272.11C166.926 271.695 169.198 273.303 169.61 275.695C170.022 278.087 168.416 280.36 166.025 280.771C158.112 282.133 149.996 282.824 141.904 282.824C104.185 282.824 68.7237 268.136 42.0524 241.464C15.3812 214.793 0.692871 179.332 0.692871 141.613C0.692871 103.894 15.3812 68.4335 42.0524 41.7623C68.7237 15.0904 104.185 0.4021 141.904 0.4021C179.623 0.4021 215.084 15.0904 241.755 41.7623C268.426 68.4335 283.115 103.894 283.115 141.613C283.115 156.99 280.658 172.11 275.812 186.555C275.759 186.719 275.697 186.88 275.625 187.038C275.392 187.549 275.069 187.999 274.682 188.371C273.159 189.85 270.743 190.043 268.991 188.73C259.057 181.289 247.225 177.355 234.775 177.355C203.274 177.355 177.646 202.983 177.646 234.484C177.646 265.985 203.274 291.613 234.775 291.613C266.276 291.613 291.904 265.985 291.904 234.484C291.904 224.655 289.424 215.141 284.69 206.671L233.103 258.257C231.387 259.972 228.604 259.972 226.889 258.257L197.435 228.803C195.719 227.087 195.719 224.305 197.435 222.588C199.152 220.873 201.934 220.873 203.65 222.588L229.995 248.935L293.19 185.74C294.906 184.024 297.689 184.025 299.404 185.74C301.121 187.457 301.121 190.239 299.404 191.955L291.114 200.245C297.392 210.547 300.693 222.308 300.693 234.484C300.693 270.832 271.122 300.402 234.775 300.402C198.427 300.402 168.857 270.832 168.857 234.484C168.857 230.664 169.183 226.92 169.81 223.276C165.159 223.986 160.258 224.345 155.171 224.345C127.441 224.345 116.423 210.596 111.128 203.988C110.735 203.498 110.289 202.941 109.91 202.493C109.63 202.607 109.332 202.732 109.06 202.847C105.595 204.305 99.7966 206.745 89.4794 206.745C87.0524 206.745 85.0849 204.778 85.0849 202.351C85.0849 199.923 87.0524 197.956 89.4794 197.956C98.0224 197.956 102.613 196.024 105.651 194.746C107.912 193.794 110.05 192.897 112.483 193.648C114.641 194.316 116.044 196.068 117.987 198.492C122.766 204.456 131.662 215.556 155.172 215.556C161.183 215.556 166.881 215.012 172.135 213.937C173.077 211.071 174.211 208.294 175.521 205.616C171.273 206.97 166.35 207.876 160.777 207.876C158.35 207.876 156.383 205.909 156.383 203.481C156.383 201.053 158.35 199.086 160.777 199.086C176.023 199.087 185.571 190.569 188.011 188.07ZM141.904 238.879C123.29 238.879 106.651 231.717 95.0534 218.715C93.438 216.904 93.5968 214.126 95.4079 212.51C97.219 210.895 99.997 211.054 101.612 212.864C111.52 223.972 125.829 230.09 141.904 230.09C144.331 230.09 146.298 232.057 146.298 234.484C146.298 236.912 144.331 238.879 141.904 238.879ZM145.778 205.665C145.332 205.665 144.879 205.597 144.432 205.453C134.124 202.137 125.746 195.338 120.202 185.791C118.026 182.043 116.28 177.859 114.988 173.33C107.97 185.373 95.9218 191.033 84.4421 191.033C82.0151 191.033 80.0476 189.066 80.0476 186.639C80.0476 184.211 82.0151 182.244 84.4421 182.244C94.7827 182.244 112.283 175.096 112.283 148.305V126.565C112.283 90.7449 127.584 77.9826 141.904 77.9826C153.744 77.9826 163.248 86.3169 167.978 100.848C168.729 103.156 167.467 105.636 165.159 106.387C162.851 107.138 160.371 105.877 159.62 103.568C157.579 97.2951 152.562 86.771 141.903 86.771C129.054 86.771 121.071 102.019 121.071 126.564V152.846C121.071 175.635 130.567 191.759 147.122 197.084C149.433 197.828 150.703 200.303 149.96 202.614C149.362 204.478 147.635 205.665 145.778 205.665ZM161.672 191.033C151.183 191.033 142.522 186.682 136.626 178.45C131.773 171.674 129.1 162.581 129.1 152.847V126.566C129.1 112.075 131.322 94.8007 141.904 94.8007C143.543 94.8007 145.978 95.3228 148.272 97.8083C154.247 104.284 155.802 121.086 154.693 134.864C154.498 137.282 152.377 139.086 149.96 138.891C147.541 138.697 145.738 136.578 145.932 134.159C146.554 126.437 146.26 118.828 145.105 112.735C144.029 107.056 142.536 104.529 141.807 103.752C140.374 105.125 137.889 111.836 137.889 126.566C137.889 141.932 142.472 151.861 149.565 151.861C152.823 151.861 162.736 151.861 162.736 126.566C162.736 123.845 162.635 121.195 162.438 118.69C162.247 116.27 164.054 114.154 166.473 113.964C168.888 113.775 171.009 115.58 171.2 117.999C171.415 120.734 171.525 123.617 171.525 126.566C171.525 154.737 159.583 160.65 149.565 160.65C145.57 160.65 141.464 159.191 137.989 155.795C138.918 169.398 146.347 182.245 161.671 182.245C170.479 182.245 178.817 177.342 185.147 168.439C190.267 161.238 196.37 148.129 196.37 126.566C196.37 105.387 191.373 87.3095 181.917 74.2876C178.683 69.8328 174.963 65.9902 170.864 62.866C168.934 61.3947 168.562 58.6373 170.033 56.7072C171.505 54.7765 174.262 54.4044 176.192 55.8757C180.972 59.5185 185.291 63.9757 189.03 69.1232C199.582 83.6562 205.16 103.519 205.16 126.566C205.16 168.889 183.283 191.033 161.672 191.033ZM157.735 175.523C155.308 175.523 153.341 173.556 153.341 171.128C153.341 168.701 155.308 166.734 157.735 166.734C172.726 166.734 179.554 145.911 179.554 126.565C179.554 109.255 175.598 93.4853 168.971 84.3822C162.198 75.0781 152.586 69.9541 141.904 69.9541C131.223 69.9541 121.61 75.0781 114.838 84.3822C111.478 88.9976 108.72 95.5179 106.861 103.237C106.293 105.596 103.919 107.044 101.56 106.481C99.2007 105.912 97.7487 103.539 98.3165 101.179C100.443 92.348 103.699 84.7507 107.732 79.2101C116.202 67.5734 128.338 61.165 141.905 61.165C155.472 61.165 167.608 67.5734 176.077 79.2095C183.873 89.9181 188.343 107.179 188.343 126.565C188.343 139.447 185.757 151.294 181.06 159.926C175.585 169.984 167.302 175.523 157.735 175.523ZM83.0417 175.311C80.6148 175.311 78.6472 173.344 78.6472 170.917C78.6472 168.489 80.6148 166.522 83.0417 166.522C90.8206 166.522 95.4647 159.712 95.4647 148.305V126.565C95.4647 123.684 95.5661 120.803 95.7665 118.002C95.9394 115.58 98.0417 113.763 100.463 113.931C102.884 114.104 104.706 116.207 104.533 118.628C104.348 121.222 104.254 123.893 104.254 126.566V148.306C104.254 168.238 92.8274 175.311 83.0417 175.311ZM83.0417 156.795C80.6148 156.795 78.6472 154.828 78.6472 152.4V126.565C78.6472 103.518 84.2247 83.6556 94.7769 69.1232C106.378 53.1464 123.115 44.3474 141.904 44.3474C148.593 44.3474 155.083 45.4654 161.192 47.6708C163.475 48.4947 164.658 51.0136 163.834 53.297C163.009 55.5798 160.492 56.764 158.208 55.9384C153.058 54.0787 147.573 53.1365 141.904 53.1365C126.004 53.1365 111.793 60.6476 101.889 74.2871C92.4337 87.3089 87.4362 105.386 87.4362 126.566V152.401C87.4362 154.828 85.4692 156.795 83.0417 156.795Z" fill="black"/>
</g>
<defs>
<clipPath id="clip0_1_6459">
<rect width="300" height="300" fill="white" transform="translate(0.692871 0.4021)"/>
</clipPath>
</defs>
</svg>
