<svg width="301" height="301" viewBox="0 0 301 301" fill="none" xmlns="http://www.w3.org/2000/svg">
<path d="M92.0005 207.834C88.156 207.877 84.4834 209.434 81.7798 212.168C79.0763 214.901 77.56 218.591 77.5601 222.436C77.5601 226.28 79.0766 229.97 81.7802 232.704C84.4839 235.437 88.1566 236.994 92.0011 237.037C95.8456 236.994 99.5182 235.437 102.222 232.703C104.925 229.97 106.442 226.28 106.442 222.435C106.442 218.59 104.925 214.901 102.221 212.167C99.5177 209.434 95.8451 207.877 92.0005 207.834ZM92.0005 227.665C90.6269 227.645 89.3164 227.085 88.3522 226.106C87.3879 225.128 86.8475 223.809 86.8475 222.435C86.8475 221.061 87.3881 219.743 88.3524 218.764C89.3166 217.786 90.6272 217.226 92.0008 217.206C93.3744 217.226 94.685 217.786 95.6492 218.765C96.6134 219.743 97.1539 221.062 97.1539 222.435C97.1538 223.809 96.6133 225.128 95.649 226.106C94.6847 227.085 93.3742 227.645 92.0005 227.665Z" fill="black"/>
<path d="M145.651 183.048C140.494 183.094 135.564 185.175 131.933 188.838C128.303 192.501 126.266 197.449 126.266 202.606C126.266 207.764 128.303 212.712 131.934 216.375C135.564 220.038 140.494 222.118 145.651 222.164C150.808 222.118 155.739 220.037 159.369 216.374C162.999 212.712 165.036 207.763 165.036 202.606C165.036 197.449 162.999 192.5 159.369 188.837C155.738 185.174 150.808 183.094 145.651 183.048ZM145.651 212.792C142.969 212.762 140.408 211.675 138.522 209.768C136.637 207.861 135.58 205.288 135.58 202.606C135.58 199.924 136.637 197.351 138.523 195.444C140.408 193.537 142.97 192.45 145.651 192.42C148.334 192.449 150.897 193.534 152.784 195.442C154.671 197.349 155.729 199.923 155.729 202.606C155.729 205.289 154.67 207.864 152.783 209.771C150.897 211.678 148.334 212.764 145.651 212.792Z" fill="black"/>
<path d="M276.307 228.93L253.28 215.635V189.04C253.281 188.218 253.064 187.409 252.653 186.697C252.242 185.984 251.65 185.393 250.938 184.981L225.568 170.333C224.855 169.922 224.047 169.705 223.225 169.705C222.402 169.705 221.594 169.922 220.882 170.333L202.745 180.805L170.083 107.314V45.8868C172.985 44.5901 175.357 42.3411 176.806 39.5122C178.255 36.6833 178.695 33.4442 178.052 30.3313C177.409 27.2185 175.723 24.4185 173.271 22.3952C170.82 20.3719 167.751 19.2465 164.572 19.2056H92.3852C89.205 19.2431 86.1331 20.3667 83.6792 22.3899C81.2252 24.4132 79.5367 27.2145 78.8936 30.3292C78.2504 33.444 78.6914 36.685 80.1433 39.5147C81.5953 42.3444 83.9709 44.5928 86.8762 45.8868L86.8756 107.314L24.9797 246.578C23.4542 250.104 22.8247 253.953 23.1471 257.782C23.4696 261.611 24.7341 265.3 26.8279 268.522C28.9217 271.744 31.7799 274.397 35.1478 276.247C38.5157 278.096 42.2888 279.084 46.1309 279.122L192.237 279.123C193.528 279.696 196.217 281.858 197.814 281.617C198.294 283.002 222.295 267.779 223.204 267.683L246.252 280.99C246.964 281.401 247.772 281.617 248.595 281.617C249.417 281.617 250.225 281.401 250.938 280.99L276.307 266.342C277.02 265.931 277.612 265.339 278.023 264.626C278.434 263.914 278.651 263.106 278.65 262.283V232.989C278.651 232.166 278.434 231.358 278.023 230.645C277.612 229.933 277.02 229.341 276.307 228.93ZM92.3852 28.5776H164.573C165.763 28.6009 166.895 29.0898 167.728 29.9393C168.561 30.7887 169.028 31.931 169.028 33.1207C169.028 34.3104 168.561 35.4527 167.728 36.3021C166.895 37.1515 165.762 37.6402 164.573 37.6634H92.3852C91.1957 37.6402 90.0628 37.1514 89.2298 36.3019C88.3968 35.4525 87.9302 34.3102 87.9302 33.1205C87.9302 31.9308 88.3968 30.7886 89.2298 29.9391C90.0628 29.0897 91.1957 28.6009 92.3852 28.5776ZM95.8446 110.213C96.271 108.092 96.4065 105.923 96.2472 103.765H111.834C113.061 103.742 114.23 103.238 115.09 102.361C115.95 101.485 116.432 100.307 116.432 99.079C116.432 97.8514 115.95 96.6728 115.09 95.7965C114.23 94.9203 113.061 94.4164 111.834 94.3931H96.2477V80.6923H111.834C113.061 80.6684 114.229 80.1642 115.088 79.288C115.948 78.4119 116.429 77.2336 116.429 76.0064C116.429 74.7792 115.948 73.601 115.088 72.7248C114.229 71.8487 113.061 71.3445 111.834 71.3205H96.2477V47.0353H160.711V108.309C160.711 108.965 160.848 109.613 161.114 110.213L178.136 148.515C164.6 146.806 163.022 139.95 146.607 140.129C128.244 139.949 128.119 148.474 111.221 148.703C97.1047 148.749 95.4839 142.322 82.3629 140.547L95.8446 110.213ZM46.1303 269.751C43.8418 269.734 41.5932 269.15 39.5858 268.051C37.5785 266.952 35.875 265.372 34.6281 263.453C33.3811 261.534 32.6296 259.336 32.4408 257.055C32.252 254.775 32.6319 252.483 33.5463 250.385L78.3511 149.574C82.9599 149.803 87.4552 151.083 91.493 153.317C97.5455 156.585 104.344 158.225 111.221 158.074C118.099 158.225 124.898 156.586 130.953 153.319C135.735 150.668 141.141 149.349 146.607 149.501C152.073 149.349 157.48 150.668 162.262 153.319C168.317 156.586 175.116 158.225 181.994 158.074C182.121 158.074 182.228 158.012 182.352 158.002L194.64 185.651C194.177 186.087 193.808 186.612 193.555 187.194C193.302 187.777 193.171 188.405 193.169 189.04V215.611L170.101 228.93C169.388 229.342 168.797 229.933 168.386 230.646C167.974 231.358 167.758 232.166 167.758 232.989V262.283C167.758 263.106 167.974 263.914 168.386 264.626C168.797 265.339 169.388 265.931 170.101 266.342L176.006 269.751L46.1303 269.751ZM218.498 259.578L197.814 271.52L177.13 259.578V235.693L197.814 223.752L218.498 235.693V259.578ZM202.541 215.63V191.745L223.225 179.803L243.909 191.745V215.63L223.225 227.571L202.541 215.63ZM269.278 259.578L248.595 271.52L227.911 259.578V235.693L248.595 223.752L269.278 235.693V259.578Z" fill="black"/>
</svg>
