<svg width="301" height="300" viewBox="0 0 301 300" fill="none" xmlns="http://www.w3.org/2000/svg">
<path d="M151.493 196.569C142.295 196.569 133.303 193.841 125.655 188.731C118.007 183.621 112.046 176.357 108.526 167.859C105.006 159.361 104.084 150.009 105.879 140.988C107.674 131.966 112.103 123.679 118.607 117.175C125.112 110.67 133.399 106.241 142.42 104.446C151.442 102.652 160.793 103.573 169.291 107.093C177.79 110.613 185.053 116.574 190.164 124.222C195.274 131.871 198.002 140.862 198.002 150.061C197.988 162.391 193.083 174.213 184.364 182.932C175.645 191.651 163.824 196.555 151.493 196.569ZM151.493 111.661C143.899 111.661 136.474 113.913 130.16 118.132C123.845 122.352 118.923 128.349 116.017 135.366C113.11 142.382 112.35 150.103 113.831 157.552C115.313 165.001 118.97 171.843 124.341 177.214C129.711 182.584 136.553 186.241 144.002 187.723C151.451 189.205 159.172 188.444 166.189 185.538C173.205 182.631 179.202 177.71 183.422 171.395C187.641 165.08 189.893 157.656 189.893 150.061C189.882 139.88 185.832 130.12 178.633 122.921C171.435 115.722 161.674 111.673 151.493 111.661Z" fill="black"/>
<path d="M193.741 150.304C192.714 150.307 191.725 149.921 190.972 149.222C190.219 148.524 189.759 147.567 189.685 146.543C189.611 145.519 189.928 144.505 190.573 143.705C191.217 142.906 192.141 142.381 193.157 142.236L245.069 134.595C246.118 134.469 247.175 134.757 248.014 135.399C248.854 136.04 249.409 136.984 249.563 138.03C249.717 139.075 249.457 140.139 248.838 140.995C248.219 141.851 247.29 142.432 246.249 142.613L194.357 150.243C194.153 150.278 193.948 150.299 193.741 150.304Z" fill="black"/>
<path d="M242.706 229.784C241.836 229.779 240.99 229.495 240.294 228.973L178.834 183.49C177.97 182.85 177.396 181.893 177.238 180.829C177.08 179.766 177.351 178.683 177.991 177.819C178.631 176.955 179.588 176.381 180.652 176.223C181.716 176.064 182.799 176.335 183.663 176.976L245.122 222.47C245.803 222.981 246.306 223.692 246.559 224.505C246.813 225.317 246.805 226.188 246.536 226.995C246.267 227.803 245.75 228.505 245.06 229.002C244.37 229.5 243.54 229.767 242.69 229.767L242.706 229.784Z" fill="black"/>
<path d="M110.329 258.243C109.658 258.243 108.999 258.077 108.408 257.76C107.818 257.442 107.316 256.984 106.946 256.424C106.577 255.865 106.352 255.223 106.291 254.556C106.23 253.889 106.336 253.216 106.599 252.6L133.846 188.566C134.048 188.067 134.347 187.613 134.727 187.23C135.106 186.848 135.558 186.545 136.055 186.339C136.553 186.134 137.087 186.029 137.625 186.032C138.164 186.035 138.697 186.145 139.192 186.355C139.688 186.566 140.136 186.874 140.512 187.26C140.887 187.646 141.182 188.103 141.378 188.605C141.575 189.106 141.67 189.641 141.658 190.18C141.645 190.718 141.525 191.249 141.306 191.74L114.062 255.795C113.748 256.523 113.227 257.144 112.563 257.579C111.899 258.015 111.122 258.245 110.329 258.243Z" fill="black"/>
<path d="M57.8084 176.096C56.8196 176.095 55.8652 175.732 55.125 175.077C54.3847 174.421 53.9096 173.518 53.789 172.536C53.6685 171.555 53.9108 170.563 54.4703 169.748C55.0299 168.932 55.8681 168.35 56.8273 168.109L108.962 155.047C110.006 154.785 111.111 154.949 112.034 155.502C112.957 156.054 113.622 156.951 113.884 157.995C114.146 159.038 113.982 160.143 113.43 161.066C112.877 161.989 111.98 162.654 110.937 162.916L58.7976 175.974C58.474 176.055 58.1418 176.095 57.8084 176.096Z" fill="black"/>
<path d="M118.988 126.758C118.137 126.758 117.307 126.49 116.617 125.992L79.9194 99.4945C79.478 99.1868 79.1023 98.7942 78.8142 98.3398C78.5261 97.8853 78.3313 97.3781 78.2413 96.8476C78.1512 96.3171 78.1677 95.7739 78.2897 95.2499C78.4117 94.7258 78.6368 94.2312 78.9519 93.7951C79.267 93.3589 79.6657 92.9898 80.1249 92.7093C80.5841 92.4288 81.0946 92.2426 81.6265 92.1614C82.1585 92.0802 82.7012 92.1057 83.2232 92.2365C83.7452 92.3672 84.2359 92.6006 84.6667 92.9229L121.364 119.42C122.058 119.923 122.575 120.632 122.841 121.446C123.106 122.26 123.107 123.138 122.844 123.953C122.58 124.768 122.065 125.478 121.372 125.982C120.679 126.486 119.845 126.758 118.988 126.758Z" fill="black"/>
<path d="M157.705 112.107C157.085 112.107 156.474 111.965 155.918 111.692C155.361 111.419 154.875 111.022 154.496 110.532C154.117 110.042 153.856 109.472 153.732 108.865C153.607 108.258 153.624 107.63 153.78 107.031L168.196 51.7013C168.484 50.6811 169.159 49.814 170.078 49.2857C170.997 48.7575 172.086 48.6101 173.112 48.8751C174.139 49.1402 175.02 49.7966 175.568 50.7037C176.117 51.6108 176.288 52.6965 176.045 53.7283L161.629 109.074C161.403 109.943 160.895 110.712 160.185 111.261C159.474 111.809 158.602 112.107 157.705 112.107Z" fill="black"/>
<path d="M60.2371 111.661C54.0797 111.661 48.0607 109.835 42.9411 106.414C37.8216 102.993 33.8314 98.1309 31.4753 92.4422C29.1192 86.7535 28.5029 80.4939 29.7044 74.4549C30.906 68.416 33.8713 62.8689 38.2255 58.5153C42.5797 54.1617 48.1271 51.1971 54.1662 49.9964C60.2053 48.7956 66.4648 49.4127 72.1532 51.7696C77.8416 54.1264 82.7033 58.1172 86.1236 63.2372C89.5438 68.3572 91.3689 74.3765 91.3681 80.5338C91.3585 88.787 88.0754 96.6993 82.2391 102.535C76.4029 108.37 68.4902 111.652 60.2371 111.661ZM60.2371 57.5109C55.6835 57.5109 51.2323 58.8611 47.4462 61.3909C43.6601 63.9207 40.7092 67.5164 38.9666 71.7233C37.224 75.9302 36.7681 80.5594 37.6565 85.0254C38.5448 89.4914 40.7375 93.5937 43.9574 96.8135C47.1772 100.033 51.2795 102.226 55.7455 103.114C60.2115 104.003 64.8407 103.547 69.0476 101.804C73.2545 100.062 76.8502 97.1108 79.38 93.3247C81.9098 89.5386 83.26 85.0873 83.26 80.5338C83.2536 74.4297 80.8259 68.5775 76.5096 64.2612C72.1934 59.945 66.3411 57.5173 60.2371 57.5109Z" fill="black"/>
<path d="M177.63 57.5109C172.745 57.5109 167.969 56.0622 163.907 53.3479C159.845 50.6337 156.679 46.7759 154.809 42.2623C152.939 37.7487 152.45 32.7821 153.403 27.9905C154.356 23.1989 156.709 18.7976 160.164 15.343C163.618 11.8885 168.019 9.5359 172.811 8.58279C177.603 7.62969 182.569 8.11886 187.083 9.98844C191.596 11.858 195.454 15.0241 198.169 19.0862C200.883 23.1483 202.331 27.9241 202.331 32.8095C202.324 39.3584 199.719 45.6369 195.088 50.2677C190.457 54.8985 184.179 57.5034 177.63 57.5109ZM177.63 16.2163C174.348 16.2163 171.14 17.1895 168.411 19.0127C165.683 20.836 163.556 23.4275 162.3 26.4596C161.044 29.4916 160.715 32.8279 161.356 36.0467C161.996 39.2655 163.576 42.2221 165.897 44.5427C168.217 46.8633 171.174 48.4437 174.393 49.0839C177.612 49.7242 180.948 49.3956 183.98 48.1397C187.012 46.8838 189.604 44.757 191.427 42.0282C193.25 39.2995 194.223 36.0914 194.223 32.8095C194.216 28.411 192.465 24.1948 189.355 21.0846C186.245 17.9744 182.029 16.2238 177.63 16.2163Z" fill="black"/>
<path d="M261.281 155.854C257.339 155.854 253.485 154.685 250.207 152.495C246.929 150.304 244.374 147.191 242.865 143.549C241.356 139.906 240.962 135.898 241.731 132.031C242.5 128.165 244.398 124.613 247.186 121.825C249.974 119.037 253.526 117.139 257.393 116.37C261.259 115.6 265.267 115.995 268.91 117.504C272.552 119.013 275.665 121.568 277.856 124.846C280.046 128.124 281.215 131.978 281.215 135.92C281.21 141.205 279.108 146.273 275.371 150.01C271.634 153.747 266.567 155.849 261.281 155.854ZM261.281 124.099C258.942 124.099 256.656 124.792 254.711 126.092C252.766 127.392 251.25 129.239 250.356 131.4C249.461 133.561 249.227 135.939 249.683 138.233C250.14 140.527 251.267 142.634 252.921 144.288C254.575 145.942 256.683 147.068 258.977 147.523C261.271 147.979 263.649 147.744 265.81 146.849C267.971 145.953 269.817 144.437 271.116 142.491C272.415 140.546 273.108 138.259 273.107 135.92C273.103 132.786 271.855 129.781 269.638 127.565C267.422 125.348 264.416 124.102 261.281 124.099Z" fill="black"/>
<path d="M260.657 265.192C254.166 265.175 247.909 262.762 243.086 258.416C238.264 254.07 235.215 248.097 234.525 241.642C233.974 236.358 235.038 231.031 237.577 226.364C240.115 221.696 244.009 217.908 248.744 215.499C253.48 213.09 258.834 212.174 264.101 212.87C269.368 213.566 274.3 215.843 278.247 219.4C282.194 222.956 284.969 227.626 286.208 232.792C287.447 237.959 287.09 243.379 285.185 248.339C283.28 253.298 279.916 257.564 275.537 260.573C271.158 263.581 265.97 265.192 260.657 265.192ZM260.69 220.711C260.051 220.711 259.412 220.744 258.776 220.812C253.979 221.321 249.581 223.713 246.546 227.463C243.512 231.212 242.09 236.013 242.593 240.811C242.959 244.307 244.332 247.623 246.543 250.355C248.755 253.088 251.712 255.121 255.055 256.208C258.398 257.296 261.985 257.391 265.381 256.482C268.777 255.573 271.837 253.7 274.19 251.088C276.544 248.476 278.09 245.238 278.641 241.766C279.193 238.294 278.726 234.737 277.297 231.524C275.869 228.312 273.54 225.582 270.593 223.666C267.645 221.75 264.205 220.729 260.69 220.727V220.711Z" fill="black"/>
<path d="M106.036 291.892C101.851 291.89 97.7619 290.647 94.2841 288.32C90.8063 285.994 88.0963 282.689 86.4967 278.822C84.8972 274.956 84.4799 270.702 85.2977 266.599C86.1155 262.495 88.1315 258.726 91.091 255.768C94.0505 252.811 97.8206 250.797 101.924 249.981C106.028 249.166 110.282 249.586 114.147 251.187C118.013 252.789 121.317 255.501 123.641 258.98C125.965 262.459 127.206 266.55 127.206 270.734C127.199 276.345 124.967 281.725 120.997 285.692C117.028 289.659 111.647 291.889 106.036 291.892ZM106.036 257.684C103.455 257.686 100.933 258.454 98.7887 259.889C96.6443 261.324 94.9735 263.363 93.9876 265.748C93.0018 268.133 92.7451 270.757 93.25 273.287C93.7549 275.818 94.9988 278.142 96.8243 279.966C98.6499 281.79 100.975 283.031 103.506 283.534C106.037 284.036 108.661 283.777 111.045 282.789C113.428 281.801 115.466 280.129 116.899 277.983C118.333 275.837 119.098 273.314 119.098 270.734C119.093 267.272 117.716 263.953 115.266 261.507C112.817 259.06 109.497 257.685 106.036 257.684Z" fill="black"/>
<path d="M38.3571 203.477C33.4713 203.477 28.6952 202.028 24.6329 199.313C20.5707 196.599 17.4046 192.741 15.5353 188.227C13.6659 183.712 13.1772 178.745 14.131 173.954C15.0848 169.162 17.4381 164.76 20.8935 161.306C24.3489 157.852 28.751 155.5 33.5431 154.548C38.3352 153.596 43.3021 154.086 47.8155 155.957C52.329 157.828 56.1862 160.995 58.8995 165.058C61.6127 169.121 63.0601 173.898 63.0585 178.784C63.0488 185.331 60.443 191.608 55.8125 196.237C51.1819 200.866 44.9046 203.469 38.3571 203.477ZM38.3571 162.186C35.0755 162.186 31.8675 163.159 29.1388 164.983C26.4102 166.806 24.2834 169.397 23.0274 172.429C21.7713 175.461 21.4425 178.797 22.0824 182.015C22.7223 185.234 24.3023 188.191 26.6225 190.511C28.9427 192.832 31.899 194.413 35.1175 195.054C38.336 195.694 41.6722 195.366 44.7043 194.111C47.7364 192.856 50.3282 190.73 52.1519 188.001C53.9757 185.273 54.9496 182.065 54.9504 178.784C54.9439 174.384 53.1938 170.167 50.0835 167.056C46.9731 163.945 42.7563 162.194 38.3571 162.186Z" fill="black"/>
</svg>
