<svg width="447" height="191" viewBox="0 0 447 191" fill="none" xmlns="http://www.w3.org/2000/svg">
<ellipse cx="137.114" cy="73.6497" rx="56.0285" ry="51.6491" fill="#FFFF00"/>
<path d="M98.1827 36.5238C119.705 16.6842 154.598 16.6843 176.12 36.5239L176.77 37.1226L58.666 145.995C48.5142 155.353 32.0549 155.353 21.9031 145.995L19.0479 143.363C8.89608 134.004 8.89607 118.831 19.0479 109.473L98.1827 36.5238Z" fill="#FFF224" fill-opacity="0.5"/>
<path d="M176.765 110.148C154.885 130.318 119.409 130.318 97.5288 110.148L198.104 17.4343C208.256 8.07598 224.715 8.07601 234.867 17.4343L237.722 20.0664C247.874 29.4247 247.874 44.5975 237.722 53.9557L176.765 110.148Z" fill="#FFFF00" fill-opacity="0.5"/>
<path d="M335.607 136.922C324.037 147.26 308.577 153.072 292.464 153.139L241.159 153.352L388.601 17.435C398.753 8.07675 415.212 8.07677 425.364 17.4351L428.331 20.1701C438.594 29.6314 438.464 45.0077 428.043 54.3208L335.607 136.922Z" fill="#FFFF00" fill-opacity="0.5"/>
<path d="M401.369 11.752C404.792 11.752 407.566 14.5269 407.566 17.9499L214.565 17.9499C212.854 17.9499 211.467 16.5625 211.467 14.851C211.467 13.1395 212.854 11.752 214.565 11.752L401.369 11.752Z" fill="#FFFF00" fill-opacity="0.5"/>
<path d="M390.163 18.983C393.586 18.983 396.361 21.7579 396.361 25.1809L203.36 25.1809C201.649 25.1809 200.261 23.7934 200.261 22.0819C200.261 20.3704 201.649 18.983 203.36 18.983L390.163 18.983Z" fill="#FFFF00" fill-opacity="0.5"/>
<path d="M378.957 26.2139C382.38 26.2139 385.155 28.9888 385.155 32.4118L192.154 32.4118C190.443 32.4118 189.055 31.0244 189.055 29.3129C189.055 27.6014 190.443 26.2139 192.154 26.2139L378.957 26.2139Z" fill="#FFFF00" fill-opacity="0.5"/>
<path d="M340.333 132.611C336.782 136.556 331.724 138.809 326.417 138.809L21.2388 138.809C17.4378 138.809 14.1037 136.274 13.088 132.611L340.333 132.611Z" fill="#FFFF00" fill-opacity="0.5"/>
<path d="M330.247 140.358C326.288 143.694 321.28 145.528 316.103 145.537L29.4761 146.026C24.4341 146.035 19.6591 143.761 16.4873 139.842L330.247 140.358Z" fill="#FFFF00" fill-opacity="0.5"/>
<path d="M317.921 147.589C307.959 151.345 297.389 153.23 286.743 153.149L35.3327 151.254C31.1143 151.222 27.0341 149.747 23.7711 147.073L317.921 147.589Z" fill="#FFFF00" fill-opacity="0.5"/>
<mask id="path-11-outside-1_1_6446" maskUnits="userSpaceOnUse" x="151.715" y="51.3126" width="176" height="60" fill="black">
<rect fill="white" x="151.715" y="51.3126" width="176" height="60"/>
<path d="M164.875 110.313C162.742 110.313 160.769 109.779 158.955 108.713C157.142 107.646 155.702 106.206 154.635 104.393C153.569 102.579 153.035 100.606 153.035 98.4726V93.1126H165.435V97.8326H198.075V87.7526H164.875C162.742 87.7526 160.769 87.2192 158.955 86.1526C157.142 85.0859 155.702 83.6726 154.635 81.9126C153.569 80.0992 153.035 78.0992 153.035 75.9126V64.5526C153.035 62.3659 153.569 60.3926 154.635 58.6326C155.702 56.8192 157.142 55.3792 158.955 54.3126C160.769 53.2459 162.742 52.7126 164.875 52.7126H198.795C200.929 52.7126 202.875 53.2459 204.635 54.3126C206.449 55.3792 207.889 56.8192 208.955 58.6326C210.075 60.3926 210.635 62.3659 210.635 64.5526V69.9126H198.075V65.1926H165.435V75.2726H198.795C200.929 75.2726 202.875 75.8059 204.635 76.8726C206.449 77.9392 207.889 79.3792 208.955 81.1926C210.075 82.9526 210.635 84.9259 210.635 87.1126V98.4726C210.635 100.606 210.075 102.579 208.955 104.393C207.889 106.206 206.449 107.646 204.635 108.713C202.875 109.779 200.929 110.313 198.795 110.313H164.875ZM212.325 110.313V52.7126H224.725V75.2726H258.725V52.7126H271.125V110.313H258.725V87.7526H224.725V110.313H212.325ZM273.252 110.313V52.7126H326.452V65.1926H285.812V75.2726H318.532V87.7526H285.812V110.313H273.252Z"/>
</mask>
<path d="M164.875 110.313C162.742 110.313 160.769 109.779 158.955 108.713C157.142 107.646 155.702 106.206 154.635 104.393C153.569 102.579 153.035 100.606 153.035 98.4726V93.1126H165.435V97.8326H198.075V87.7526H164.875C162.742 87.7526 160.769 87.2192 158.955 86.1526C157.142 85.0859 155.702 83.6726 154.635 81.9126C153.569 80.0992 153.035 78.0992 153.035 75.9126V64.5526C153.035 62.3659 153.569 60.3926 154.635 58.6326C155.702 56.8192 157.142 55.3792 158.955 54.3126C160.769 53.2459 162.742 52.7126 164.875 52.7126H198.795C200.929 52.7126 202.875 53.2459 204.635 54.3126C206.449 55.3792 207.889 56.8192 208.955 58.6326C210.075 60.3926 210.635 62.3659 210.635 64.5526V69.9126H198.075V65.1926H165.435V75.2726H198.795C200.929 75.2726 202.875 75.8059 204.635 76.8726C206.449 77.9392 207.889 79.3792 208.955 81.1926C210.075 82.9526 210.635 84.9259 210.635 87.1126V98.4726C210.635 100.606 210.075 102.579 208.955 104.393C207.889 106.206 206.449 107.646 204.635 108.713C202.875 109.779 200.929 110.313 198.795 110.313H164.875ZM212.325 110.313V52.7126H224.725V75.2726H258.725V52.7126H271.125V110.313H258.725V87.7526H224.725V110.313H212.325ZM273.252 110.313V52.7126H326.452V65.1926H285.812V75.2726H318.532V87.7526H285.812V110.313H273.252Z" fill="white"/>
<path d="M158.955 108.713L159.462 107.851L158.955 108.713ZM154.635 104.393L153.773 104.9L154.635 104.393ZM153.035 93.1126V92.1126H152.035V93.1126H153.035ZM165.435 93.1126H166.435V92.1126H165.435V93.1126ZM165.435 97.8326H164.435V98.8326H165.435V97.8326ZM198.075 97.8326V98.8326H199.075V97.8326H198.075ZM198.075 87.7526H199.075V86.7526H198.075V87.7526ZM158.955 86.1526L159.462 85.2906L158.955 86.1526ZM154.635 81.9126L153.773 82.4196L153.78 82.4309L154.635 81.9126ZM154.635 58.6326L155.491 59.1509L155.497 59.1396L154.635 58.6326ZM158.955 54.3126L158.448 53.4506H158.448L158.955 54.3126ZM204.635 54.3126L204.117 55.1678L204.128 55.1745L204.635 54.3126ZM208.955 58.6326L208.093 59.1396L208.102 59.1547L208.112 59.1694L208.955 58.6326ZM210.635 69.9126V70.9126H211.635V69.9126H210.635ZM198.075 69.9126H197.075V70.9126H198.075V69.9126ZM198.075 65.1926H199.075V64.1926H198.075V65.1926ZM165.435 65.1926V64.1926H164.435V65.1926H165.435ZM165.435 75.2726H164.435V76.2726H165.435V75.2726ZM204.635 76.8726L204.117 77.7278L204.128 77.7345L204.635 76.8726ZM208.955 81.1926L208.093 81.6996L208.102 81.7147L208.112 81.7294L208.955 81.1926ZM208.955 104.393L208.105 103.867L208.099 103.876L208.093 103.886L208.955 104.393ZM204.635 108.713L204.128 107.851L204.117 107.857L204.635 108.713ZM164.875 109.313C162.918 109.313 161.12 108.826 159.462 107.851L158.448 109.574C160.418 110.733 162.566 111.313 164.875 111.313V109.313ZM159.462 107.851C157.796 106.87 156.478 105.552 155.497 103.886L153.773 104.9C154.926 106.859 156.488 108.422 158.448 109.574L159.462 107.851ZM155.497 103.886C154.522 102.228 154.035 100.43 154.035 98.4726H152.035C152.035 100.782 152.615 102.93 153.773 104.9L155.497 103.886ZM154.035 98.4726V93.1126H152.035V98.4726H154.035ZM153.035 94.1126H165.435V92.1126H153.035V94.1126ZM164.435 93.1126V97.8326H166.435V93.1126H164.435ZM165.435 98.8326H198.075V96.8326H165.435V98.8326ZM199.075 97.8326V87.7526H197.075V97.8326H199.075ZM198.075 86.7526H164.875V88.7526H198.075V86.7526ZM164.875 86.7526C162.918 86.7526 161.12 86.2656 159.462 85.2906L158.448 87.0145C160.418 88.1729 162.566 88.7526 164.875 88.7526V86.7526ZM159.462 85.2906C157.788 84.306 156.469 83.0094 155.491 81.3943L153.78 82.4309C154.935 84.3357 156.496 85.8658 158.448 87.0145L159.462 85.2906ZM155.497 81.4055C154.525 79.7521 154.035 77.9283 154.035 75.9126H152.035C152.035 78.2702 152.613 80.4464 153.773 82.4196L155.497 81.4055ZM154.035 75.9126V64.5526H152.035V75.9126H154.035ZM154.035 64.5526C154.035 62.5367 154.525 60.7447 155.491 59.1509L153.78 58.1143C152.613 60.0404 152.035 62.195 152.035 64.5526H154.035ZM155.497 59.1396C156.478 57.4728 157.796 56.155 159.462 55.1745L158.448 53.4506C156.488 54.6035 154.926 56.1657 153.773 58.1255L155.497 59.1396ZM159.462 55.1745C161.12 54.1995 162.918 53.7126 164.875 53.7126V51.7126C162.566 51.7126 160.418 52.2922 158.448 53.4506L159.462 55.1745ZM164.875 53.7126H198.795V51.7126H164.875V53.7126ZM198.795 53.7126C200.753 53.7126 202.519 54.1994 204.117 55.1678L205.154 53.4574C203.231 52.2924 201.104 51.7126 198.795 51.7126V53.7126ZM204.128 55.1745C205.795 56.155 207.113 57.4728 208.093 59.1396L209.817 58.1255C208.664 56.1657 207.102 54.6035 205.142 53.4506L204.128 55.1745ZM208.112 59.1694C209.125 60.7611 209.635 62.5465 209.635 64.5526H211.635C211.635 62.1853 211.026 60.0241 209.799 58.0957L208.112 59.1694ZM209.635 64.5526V69.9126H211.635V64.5526H209.635ZM210.635 68.9126H198.075V70.9126H210.635V68.9126ZM199.075 69.9126V65.1926H197.075V69.9126H199.075ZM198.075 64.1926H165.435V66.1926H198.075V64.1926ZM164.435 65.1926V75.2726H166.435V65.1926H164.435ZM165.435 76.2726H198.795V74.2726H165.435V76.2726ZM198.795 76.2726C200.753 76.2726 202.519 76.7594 204.117 77.7278L205.154 76.0174C203.231 74.8524 201.104 74.2726 198.795 74.2726V76.2726ZM204.128 77.7345C205.795 78.715 207.113 80.0328 208.093 81.6996L209.817 80.6855C208.664 78.7257 207.102 77.1635 205.142 76.0106L204.128 77.7345ZM208.112 81.7294C209.125 83.3211 209.635 85.1064 209.635 87.1126H211.635C211.635 84.7453 211.026 82.5841 209.799 80.6557L208.112 81.7294ZM209.635 87.1126V98.4726H211.635V87.1126H209.635ZM209.635 98.4726C209.635 100.42 209.127 102.212 208.105 103.867L209.806 104.918C211.024 102.947 211.635 100.791 211.635 98.4726H209.635ZM208.093 103.886C207.113 105.552 205.795 106.87 204.128 107.851L205.142 109.574C207.102 108.422 208.664 106.859 209.817 104.9L208.093 103.886ZM204.117 107.857C202.519 108.826 200.753 109.313 198.795 109.313V111.313C201.104 111.313 203.231 110.733 205.154 109.568L204.117 107.857ZM198.795 109.313H164.875V111.313H198.795V109.313ZM212.325 110.313H211.325V111.313H212.325V110.313ZM212.325 52.7126V51.7126H211.325V52.7126H212.325ZM224.725 52.7126H225.725V51.7126H224.725V52.7126ZM224.725 75.2726H223.725V76.2726H224.725V75.2726ZM258.725 75.2726V76.2726H259.725V75.2726H258.725ZM258.725 52.7126V51.7126H257.725V52.7126H258.725ZM271.125 52.7126H272.125V51.7126H271.125V52.7126ZM271.125 110.313V111.313H272.125V110.313H271.125ZM258.725 110.313H257.725V111.313H258.725V110.313ZM258.725 87.7526H259.725V86.7526H258.725V87.7526ZM224.725 87.7526V86.7526H223.725V87.7526H224.725ZM224.725 110.313V111.313H225.725V110.313H224.725ZM213.325 110.313V52.7126H211.325V110.313H213.325ZM212.325 53.7126H224.725V51.7126H212.325V53.7126ZM223.725 52.7126V75.2726H225.725V52.7126H223.725ZM224.725 76.2726H258.725V74.2726H224.725V76.2726ZM259.725 75.2726V52.7126H257.725V75.2726H259.725ZM258.725 53.7126H271.125V51.7126H258.725V53.7126ZM270.125 52.7126V110.313H272.125V52.7126H270.125ZM271.125 109.313H258.725V111.313H271.125V109.313ZM259.725 110.313V87.7526H257.725V110.313H259.725ZM258.725 86.7526H224.725V88.7526H258.725V86.7526ZM223.725 87.7526V110.313H225.725V87.7526H223.725ZM224.725 109.313H212.325V111.313H224.725V109.313ZM273.252 110.313H272.252V111.313H273.252V110.313ZM273.252 52.7126V51.7126H272.252V52.7126H273.252ZM326.452 52.7126H327.452V51.7126H326.452V52.7126ZM326.452 65.1926V66.1926H327.452V65.1926H326.452ZM285.812 65.1926V64.1926H284.812V65.1926H285.812ZM285.812 75.2726H284.812V76.2726H285.812V75.2726ZM318.532 75.2726H319.532V74.2726H318.532V75.2726ZM318.532 87.7526V88.7526H319.532V87.7526H318.532ZM285.812 87.7526V86.7526H284.812V87.7526H285.812ZM285.812 110.313V111.313H286.812V110.313H285.812ZM274.252 110.313V52.7126H272.252V110.313H274.252ZM273.252 53.7126H326.452V51.7126H273.252V53.7126ZM325.452 52.7126V65.1926H327.452V52.7126H325.452ZM326.452 64.1926H285.812V66.1926H326.452V64.1926ZM284.812 65.1926V75.2726H286.812V65.1926H284.812ZM285.812 76.2726H318.532V74.2726H285.812V76.2726ZM317.532 75.2726V87.7526H319.532V75.2726H317.532ZM318.532 86.7526H285.812V88.7526H318.532V86.7526ZM284.812 87.7526V110.313H286.812V87.7526H284.812ZM285.812 109.313H273.252V111.313H285.812V109.313Z" fill="black" mask="url(#path-11-outside-1_1_6446)"/>
</svg>
