<svg width="33" height="32" viewBox="0 0 33 32" fill="none" xmlns="http://www.w3.org/2000/svg">
<path d="M26.1573 0.344088C25.6985 -0.114696 24.9544 -0.114696 24.4956 0.344088C24.0368 0.802871 24.0368 1.54702 24.4956 2.0058L25.726 3.22158L24.5314 4.41533L22.2274 2.11132C21.7612 1.66722 21.0299 1.66722 20.5656 2.11132C20.1069 2.57011 20.1069 3.31333 20.5638 3.77212C20.5638 3.77212 20.5656 3.77212 20.5656 3.77304L21.363 4.57132L19.2388 6.71108L16.9871 8.96004L10.2357 15.7115L7.9959 17.9678L5.55976 20.4049C5.38725 20.5774 5.38725 20.8545 5.55976 21.027L6.75443 22.2216L5.2487 23.7274C5.0762 23.899 5.0762 24.1779 5.2487 24.3504L6.17269 25.2744L0.152534 31.2835C-0.000699926 31.4725 0.0295799 31.7497 0.218599 31.9029C0.368162 32.0231 0.579202 32.0323 0.739777 31.9258L0.759963 31.9056L6.78104 25.8992L7.70319 26.8251C7.87478 26.9957 8.15188 26.9957 8.32439 26.8251L9.83011 25.3193L11.0248 26.5131C11.1973 26.6847 11.4753 26.6847 11.6478 26.5131L27.463 10.697L28.265 11.499C28.7237 11.9577 29.4679 11.9577 29.9267 11.499C30.3855 11.0402 30.3855 10.296 29.9267 9.83724L27.6217 7.53323L28.8164 6.33855L30.0469 7.56809C30.5057 8.02688 31.2489 8.02688 31.7077 7.56809C32.1665 7.10931 32.1665 6.36608 31.7077 5.9073L26.1573 0.344088ZM8.01608 25.8818L6.16719 24.032L7.36186 22.8382L9.21076 24.6871L8.01608 25.8818ZM11.3395 25.568L10.1476 24.3935L7.67291 21.9106L6.48099 20.7196L8.28952 18.9019L9.73377 20.3452C9.92279 20.4994 10.2008 20.4691 10.3531 20.2801C10.4733 20.1296 10.4834 19.9185 10.3761 19.7598L10.344 19.724L8.90612 18.2798L10.5357 16.6502L11.9791 18.0944C12.1681 18.2477 12.4461 18.2183 12.5984 18.0293C12.7205 17.8788 12.7296 17.6678 12.6223 17.5072L12.6021 17.4861L11.1569 16.0427L12.7865 14.4131L14.2399 15.8427C14.3748 16.0446 14.6473 16.0996 14.851 15.9647C15.0529 15.8289 15.1061 15.5564 14.9722 15.3536C14.9474 15.3169 14.9171 15.2839 14.8832 15.2564L14.8621 15.2353L13.4169 13.7883L15.041 12.1504L16.4852 13.5947C16.6807 13.7387 16.9559 13.6965 17.1009 13.5011C17.2165 13.3433 17.2147 13.1276 17.0954 12.9726L15.6567 11.5274L17.2863 9.89963L18.7305 11.343C18.8654 11.5448 19.1397 11.5999 19.3416 11.465C19.5435 11.3292 19.5985 11.0567 19.4637 10.853C19.438 10.8163 19.4086 10.7832 19.3737 10.7557L17.9093 9.29128L19.5352 7.66535L20.9905 9.09217C21.1263 9.29404 21.3997 9.34909 21.6016 9.21329C21.8034 9.07841 21.8585 8.80406 21.7236 8.60219C21.6998 8.56549 21.6686 8.53246 21.6337 8.50493L21.6135 8.48382L20.1693 7.03682L21.9842 5.22279L26.8455 10.0841L11.3395 25.568ZM29.3073 10.4566C29.4211 10.5713 29.4211 10.7557 29.3073 10.8704C29.1926 10.9842 29.0082 10.9842 28.8935 10.8704L27.7832 9.76016L22.2971 4.2777L21.1878 3.16744C21.0721 3.05275 21.0721 2.86556 21.1878 2.75087C21.3025 2.63617 21.4896 2.63617 21.6043 2.75087L26.6913 7.83877L29.3073 10.4566ZM27.0024 6.90744L25.1535 5.05855L26.3472 3.86387L28.1971 5.71369L27.0024 6.90744ZM31.0883 6.94231C30.9745 7.05609 30.7892 7.05609 30.6745 6.94231L25.1177 1.38644C25.003 1.27083 25.003 1.08456 25.1177 0.968951C25.2324 0.854255 25.4196 0.854255 25.5343 0.968951L31.0883 6.52665C31.203 6.64043 31.203 6.82578 31.0883 6.94048V6.94231Z" fill="#1F7D3A"/>
</svg>
