<svg width="447" height="190" viewBox="0 0 447 190" fill="none" xmlns="http://www.w3.org/2000/svg">
<ellipse cx="136.724" cy="73.1613" rx="56.0285" ry="51.6491" fill="#FFFF00"/>
<path d="M97.7931 36.0355C119.315 16.1959 154.209 16.196 175.73 36.0355L176.38 36.6342L58.2763 145.506C48.1245 154.865 31.6653 154.865 21.5135 145.506L18.6582 142.874C8.50643 133.516 8.50642 118.343 18.6582 108.985L97.7931 36.0355Z" fill="#FFF224" fill-opacity="0.5"/>
<path d="M176.375 109.66C154.494 129.83 119.019 129.83 97.1387 109.66L197.714 16.9459C207.866 7.58764 224.325 7.58766 234.477 16.946L237.332 19.578C247.484 28.9363 247.484 44.1091 237.332 53.4674L176.375 109.66Z" fill="#FFFF00" fill-opacity="0.5"/>
<path d="M335.217 136.433C323.647 146.772 308.187 152.583 292.074 152.65L240.769 152.864L388.211 16.9467C398.362 7.58841 414.822 7.58843 424.974 16.9467L427.94 19.6817C438.204 29.1431 438.074 44.5194 427.652 53.8325L335.217 136.433Z" fill="#FFFF00" fill-opacity="0.5"/>
<path d="M400.978 11.2637C404.401 11.2637 407.176 14.0386 407.176 17.4616L214.175 17.4616C212.464 17.4616 211.076 16.0741 211.076 14.3626C211.076 12.6511 212.464 11.2637 214.175 11.2637L400.978 11.2637Z" fill="#FFFF00" fill-opacity="0.5"/>
<path d="M389.773 18.4946C393.196 18.4946 395.971 21.2695 395.971 24.6925L202.97 24.6925C201.259 24.6925 199.871 23.3051 199.871 21.5936C199.871 19.8821 201.259 18.4946 202.97 18.4946L389.773 18.4946Z" fill="#FFFF00" fill-opacity="0.5"/>
<path d="M378.567 25.7256C381.99 25.7256 384.765 28.5005 384.765 31.9235L191.764 31.9235C190.053 31.9235 188.665 30.536 188.665 28.8245C188.665 27.113 190.053 25.7256 191.764 25.7256L378.567 25.7256Z" fill="#FFFF00" fill-opacity="0.5"/>
<path d="M339.942 132.123C336.392 136.068 331.334 138.32 326.027 138.32L20.8487 138.321C17.0477 138.321 13.7135 135.785 12.6979 132.123L339.942 132.123Z" fill="#FFFF00" fill-opacity="0.5"/>
<path d="M329.857 139.87C325.898 143.206 320.89 145.04 315.713 145.049L29.086 145.538C24.044 145.546 19.2689 143.273 16.0971 139.354L329.857 139.87Z" fill="#FFFF00" fill-opacity="0.5"/>
<path d="M317.531 147.101C307.569 150.856 296.999 152.741 286.353 152.661L34.9426 150.766C30.7242 150.734 26.6439 149.258 23.381 146.584L317.531 147.101Z" fill="#FFFF00" fill-opacity="0.5"/>
<mask id="path-11-outside-1_1_3734" maskUnits="userSpaceOnUse" x="151.325" y="50.8242" width="176" height="60" fill="black">
<rect fill="white" x="151.325" y="50.8242" width="176" height="60"/>
<path d="M164.485 109.824C162.352 109.824 160.379 109.291 158.565 108.224C156.752 107.158 155.312 105.718 154.245 103.904C153.179 102.091 152.645 100.118 152.645 97.9842V92.6242H165.045V97.3442H197.685V87.2642H164.485C162.352 87.2642 160.379 86.7309 158.565 85.6642C156.752 84.5976 155.312 83.1842 154.245 81.4242C153.179 79.6109 152.645 77.6109 152.645 75.4242V64.0642C152.645 61.8775 153.179 59.9042 154.245 58.1442C155.312 56.3309 156.752 54.8909 158.565 53.8242C160.379 52.7575 162.352 52.2242 164.485 52.2242H198.405C200.539 52.2242 202.485 52.7575 204.245 53.8242C206.059 54.8909 207.499 56.3309 208.565 58.1442C209.685 59.9042 210.245 61.8775 210.245 64.0642V69.4242H197.685V64.7042H165.045V74.7842H198.405C200.539 74.7842 202.485 75.3176 204.245 76.3842C206.059 77.4509 207.499 78.8909 208.565 80.7042C209.685 82.4642 210.245 84.4375 210.245 86.6242V97.9842C210.245 100.118 209.685 102.091 208.565 103.904C207.499 105.718 206.059 107.158 204.245 108.224C202.485 109.291 200.539 109.824 198.405 109.824H164.485ZM211.935 109.824V52.2242H224.335V74.7842H258.335V52.2242H270.735V109.824H258.335V87.2642H224.335V109.824H211.935ZM272.862 109.824V52.2242H326.062V64.7042H285.422V74.7842H318.142V87.2642H285.422V109.824H272.862Z"/>
</mask>
<path d="M164.485 109.824C162.352 109.824 160.379 109.291 158.565 108.224C156.752 107.158 155.312 105.718 154.245 103.904C153.179 102.091 152.645 100.118 152.645 97.9842V92.6242H165.045V97.3442H197.685V87.2642H164.485C162.352 87.2642 160.379 86.7309 158.565 85.6642C156.752 84.5976 155.312 83.1842 154.245 81.4242C153.179 79.6109 152.645 77.6109 152.645 75.4242V64.0642C152.645 61.8775 153.179 59.9042 154.245 58.1442C155.312 56.3309 156.752 54.8909 158.565 53.8242C160.379 52.7575 162.352 52.2242 164.485 52.2242H198.405C200.539 52.2242 202.485 52.7575 204.245 53.8242C206.059 54.8909 207.499 56.3309 208.565 58.1442C209.685 59.9042 210.245 61.8775 210.245 64.0642V69.4242H197.685V64.7042H165.045V74.7842H198.405C200.539 74.7842 202.485 75.3176 204.245 76.3842C206.059 77.4509 207.499 78.8909 208.565 80.7042C209.685 82.4642 210.245 84.4375 210.245 86.6242V97.9842C210.245 100.118 209.685 102.091 208.565 103.904C207.499 105.718 206.059 107.158 204.245 108.224C202.485 109.291 200.539 109.824 198.405 109.824H164.485ZM211.935 109.824V52.2242H224.335V74.7842H258.335V52.2242H270.735V109.824H258.335V87.2642H224.335V109.824H211.935ZM272.862 109.824V52.2242H326.062V64.7042H285.422V74.7842H318.142V87.2642H285.422V109.824H272.862Z" fill="white"/>
<path d="M158.565 108.224L159.072 107.362L158.565 108.224ZM154.245 103.904L153.383 104.411L154.245 103.904ZM152.645 92.6242V91.6242H151.645V92.6242H152.645ZM165.045 92.6242H166.045V91.6242H165.045V92.6242ZM165.045 97.3442H164.045V98.3442H165.045V97.3442ZM197.685 97.3442V98.3442H198.685V97.3442H197.685ZM197.685 87.2642H198.685V86.2642H197.685V87.2642ZM158.565 85.6642L159.072 84.8023L158.565 85.6642ZM154.245 81.4242L153.383 81.9313L153.39 81.9425L154.245 81.4242ZM154.245 58.1442L155.1 58.6626L155.107 58.6512L154.245 58.1442ZM158.565 53.8242L158.058 52.9623H158.058L158.565 53.8242ZM204.245 53.8242L203.727 54.6795L203.738 54.6861L204.245 53.8242ZM208.565 58.1442L207.703 58.6512L207.712 58.6663L207.722 58.6811L208.565 58.1442ZM210.245 69.4242V70.4242H211.245V69.4242H210.245ZM197.685 69.4242H196.685V70.4242H197.685V69.4242ZM197.685 64.7042H198.685V63.7042H197.685V64.7042ZM165.045 64.7042V63.7042H164.045V64.7042H165.045ZM165.045 74.7842H164.045V75.7842H165.045V74.7842ZM204.245 76.3842L203.727 77.2395L203.738 77.2462L204.245 76.3842ZM208.565 80.7042L207.703 81.2112L207.712 81.2263L207.722 81.2411L208.565 80.7042ZM208.565 103.904L207.714 103.379L207.709 103.388L207.703 103.397L208.565 103.904ZM204.245 108.224L203.738 107.362L203.727 107.369L204.245 108.224ZM164.485 108.824C162.528 108.824 160.73 108.337 159.072 107.362L158.058 109.086C160.027 110.245 162.176 110.824 164.485 110.824V108.824ZM159.072 107.362C157.405 106.382 156.088 105.064 155.107 103.397L153.383 104.411C154.536 106.371 156.098 107.933 158.058 109.086L159.072 107.362ZM155.107 103.397C154.132 101.74 153.645 99.9419 153.645 97.9842H151.645C151.645 100.293 152.225 102.442 153.383 104.411L155.107 103.397ZM153.645 97.9842V92.6242H151.645V97.9842H153.645ZM152.645 93.6242H165.045V91.6242H152.645V93.6242ZM164.045 92.6242V97.3442H166.045V92.6242H164.045ZM165.045 98.3442H197.685V96.3442H165.045V98.3442ZM198.685 97.3442V87.2642H196.685V97.3442H198.685ZM197.685 86.2642H164.485V88.2642H197.685V86.2642ZM164.485 86.2642C162.528 86.2642 160.73 85.7772 159.072 84.8023L158.058 86.5261C160.027 87.6845 162.176 88.2642 164.485 88.2642V86.2642ZM159.072 84.8023C157.398 83.8176 156.079 82.5211 155.1 80.9059L153.39 81.9425C154.544 83.8474 156.105 85.3775 158.058 86.5261L159.072 84.8023ZM155.107 80.9172C154.135 79.2637 153.645 77.4399 153.645 75.4242H151.645C151.645 77.7818 152.223 79.958 153.383 81.9312L155.107 80.9172ZM153.645 75.4242V64.0642H151.645V75.4242H153.645ZM153.645 64.0642C153.645 62.0484 154.134 60.2564 155.1 58.6625L153.39 57.6259C152.223 59.5521 151.645 61.7067 151.645 64.0642H153.645ZM155.107 58.6512C156.088 56.9845 157.405 55.6666 159.072 54.6861L158.058 52.9623C156.098 54.1152 154.536 55.6773 153.383 57.6372L155.107 58.6512ZM159.072 54.6861C160.73 53.7112 162.528 53.2242 164.485 53.2242V51.2242C162.176 51.2242 160.027 51.8039 158.058 52.9623L159.072 54.6861ZM164.485 53.2242H198.405V51.2242H164.485V53.2242ZM198.405 53.2242C200.363 53.2242 202.129 53.711 203.727 54.6794L204.764 52.969C202.841 51.8041 200.714 51.2242 198.405 51.2242V53.2242ZM203.738 54.6861C205.405 55.6666 206.723 56.9845 207.703 58.6512L209.427 57.6372C208.274 55.6773 206.712 54.1152 204.752 52.9623L203.738 54.6861ZM207.722 58.6811C208.734 60.2727 209.245 62.0581 209.245 64.0642H211.245C211.245 61.697 210.636 59.5357 209.409 57.6073L207.722 58.6811ZM209.245 64.0642V69.4242H211.245V64.0642H209.245ZM210.245 68.4242H197.685V70.4242H210.245V68.4242ZM198.685 69.4242V64.7042H196.685V69.4242H198.685ZM197.685 63.7042H165.045V65.7042H197.685V63.7042ZM164.045 64.7042V74.7842H166.045V64.7042H164.045ZM165.045 75.7842H198.405V73.7842H165.045V75.7842ZM198.405 75.7842C200.363 75.7842 202.129 76.271 203.727 77.2394L204.764 75.529C202.841 74.3641 200.714 73.7842 198.405 73.7842V75.7842ZM203.738 77.2462C205.405 78.2266 206.723 79.5445 207.703 81.2112L209.427 80.1972C208.274 78.2373 206.712 76.6752 204.752 75.5223L203.738 77.2462ZM207.722 81.2411C208.734 82.8327 209.245 84.6181 209.245 86.6242H211.245C211.245 84.257 210.636 82.0957 209.409 80.1673L207.722 81.2411ZM209.245 86.6242V97.9842H211.245V86.6242H209.245ZM209.245 97.9842C209.245 99.9321 208.737 101.723 207.714 103.379L209.416 104.43C210.634 102.458 211.245 100.303 211.245 97.9842H209.245ZM207.703 103.397C206.723 105.064 205.405 106.382 203.738 107.362L204.752 109.086C206.712 107.933 208.274 106.371 209.427 104.411L207.703 103.397ZM203.727 107.369C202.129 108.337 200.363 108.824 198.405 108.824V110.824C200.714 110.824 202.841 110.244 204.764 109.079L203.727 107.369ZM198.405 108.824H164.485V110.824H198.405V108.824ZM211.935 109.824H210.935V110.824H211.935V109.824ZM211.935 52.2242V51.2242H210.935V52.2242H211.935ZM224.335 52.2242H225.335V51.2242H224.335V52.2242ZM224.335 74.7842H223.335V75.7842H224.335V74.7842ZM258.335 74.7842V75.7842H259.335V74.7842H258.335ZM258.335 52.2242V51.2242H257.335V52.2242H258.335ZM270.735 52.2242H271.735V51.2242H270.735V52.2242ZM270.735 109.824V110.824H271.735V109.824H270.735ZM258.335 109.824H257.335V110.824H258.335V109.824ZM258.335 87.2642H259.335V86.2642H258.335V87.2642ZM224.335 87.2642V86.2642H223.335V87.2642H224.335ZM224.335 109.824V110.824H225.335V109.824H224.335ZM212.935 109.824V52.2242H210.935V109.824H212.935ZM211.935 53.2242H224.335V51.2242H211.935V53.2242ZM223.335 52.2242V74.7842H225.335V52.2242H223.335ZM224.335 75.7842H258.335V73.7842H224.335V75.7842ZM259.335 74.7842V52.2242H257.335V74.7842H259.335ZM258.335 53.2242H270.735V51.2242H258.335V53.2242ZM269.735 52.2242V109.824H271.735V52.2242H269.735ZM270.735 108.824H258.335V110.824H270.735V108.824ZM259.335 109.824V87.2642H257.335V109.824H259.335ZM258.335 86.2642H224.335V88.2642H258.335V86.2642ZM223.335 87.2642V109.824H225.335V87.2642H223.335ZM224.335 108.824H211.935V110.824H224.335V108.824ZM272.862 109.824H271.862V110.824H272.862V109.824ZM272.862 52.2242V51.2242H271.862V52.2242H272.862ZM326.062 52.2242H327.062V51.2242H326.062V52.2242ZM326.062 64.7042V65.7042H327.062V64.7042H326.062ZM285.422 64.7042V63.7042H284.422V64.7042H285.422ZM285.422 74.7842H284.422V75.7842H285.422V74.7842ZM318.142 74.7842H319.142V73.7842H318.142V74.7842ZM318.142 87.2642V88.2642H319.142V87.2642H318.142ZM285.422 87.2642V86.2642H284.422V87.2642H285.422ZM285.422 109.824V110.824H286.422V109.824H285.422ZM273.862 109.824V52.2242H271.862V109.824H273.862ZM272.862 53.2242H326.062V51.2242H272.862V53.2242ZM325.062 52.2242V64.7042H327.062V52.2242H325.062ZM326.062 63.7042H285.422V65.7042H326.062V63.7042ZM284.422 64.7042V74.7842H286.422V64.7042H284.422ZM285.422 75.7842H318.142V73.7842H285.422V75.7842ZM317.142 74.7842V87.2642H319.142V74.7842H317.142ZM318.142 86.2642H285.422V88.2642H318.142V86.2642ZM284.422 87.2642V109.824H286.422V87.2642H284.422ZM285.422 108.824H272.862V110.824H285.422V108.824Z" fill="black" mask="url(#path-11-outside-1_1_3734)"/>
</svg>
