<svg width="33" height="33" viewBox="0 0 33 33" fill="none" xmlns="http://www.w3.org/2000/svg">
<g clip-path="url(#clip0_302_1794)">
<path d="M28.1133 1.68722C26.7773 0.338562 24.6009 0.3283 23.2521 1.66407C23.2442 1.67193 23.2368 1.67936 23.2289 1.68722L19.2666 5.64955L18.6011 4.99629C18.3631 4.7594 17.9784 4.7594 17.7402 4.99629L15.8538 6.88292C15.6169 7.12091 15.6169 7.50561 15.8538 7.7436L16.5132 8.40297L8.95486 15.9796C7.77039 17.1641 6.25624 22.3659 6.08529 22.9519C5.99053 23.2755 6.17633 23.6143 6.4999 23.7095C6.56322 23.7279 6.62981 23.7364 6.69575 23.7333C6.75252 23.7414 6.80994 23.7414 6.86671 23.7333C7.47717 23.5624 12.6607 22.0484 13.839 20.864L21.4034 13.2629L22.0628 13.9222C22.301 14.1591 22.6857 14.1591 22.9237 13.9222L24.8103 12.0356C25.0472 11.7976 25.0472 11.4129 24.8103 11.1749L24.1509 10.5156L28.1133 6.55324C29.4552 5.20873 29.4552 3.0315 28.1133 1.68722ZM12.96 20.0031C12.3493 20.6136 9.67536 21.5843 7.59332 22.2375C8.24658 20.1496 9.21751 17.4815 9.82798 16.8711L17.3802 9.26386L20.5366 12.4142L12.96 20.0031Z" fill="#1F7D3A"/>
<path d="M4.4248 30.4431C4.4248 31.6872 5.43351 32.6959 6.6778 32.6959C7.92187 32.6959 8.93058 31.6872 8.93058 30.4431C8.93058 30.3881 8.47884 25.1924 6.6778 25.1924C4.87654 25.1924 4.4248 30.3881 4.4248 30.4431Z" fill="#1F7D3A"/>
</g>
<defs>
<clipPath id="clip0_302_1794">
<rect width="32" height="32" fill="white" transform="translate(0.759766 0.724609)"/>
</clipPath>
</defs>
</svg>
