<svg width="244" height="104" viewBox="0 0 244 104" fill="none" xmlns="http://www.w3.org/2000/svg">
<ellipse cx="74.7217" cy="39.9375" rx="30.5447" ry="28.1572" fill="#FFFF00"/>
<path d="M53.1439 20.0239C65.0724 9.02786 84.4122 9.02786 96.3407 20.0239L32.7332 78.6596C26.769 84.1576 17.0991 84.1576 11.1348 78.6596C5.17062 73.1616 5.17062 64.2475 11.1348 58.7494L53.1439 20.0239Z" fill="#FFF224" fill-opacity="0.5"/>
<path d="M96.338 59.8349C84.4095 70.831 65.0697 70.831 53.1412 59.8349L107.193 10.0082C113.157 4.51018 122.827 4.51019 128.791 10.0082C134.755 15.5063 134.755 24.4204 128.791 29.9184L96.338 59.8349Z" fill="#FFFF00" fill-opacity="0.5"/>
<path d="M191.134 67.1023C179.564 77.4409 164.104 83.2522 147.991 83.3192L131.443 83.388L211.021 10.0308C216.998 4.52045 226.69 4.52045 232.667 10.0308C238.711 15.6018 238.634 24.6557 232.498 30.1394L191.134 67.1023Z" fill="#FFFF00" fill-opacity="0.5"/>
<path d="M218.784 6.19287C220.65 6.19287 222.163 7.70564 222.163 9.57174L116.945 9.57174C116.012 9.57174 115.256 8.81535 115.256 7.88231C115.256 6.94926 116.012 6.19287 116.945 6.19287L218.784 6.19287Z" fill="#FFFF00" fill-opacity="0.5"/>
<path d="M212.675 10.1353C214.541 10.1353 216.054 11.648 216.054 13.5141L110.837 13.5141C109.904 13.5141 109.147 12.7577 109.147 11.8247C109.147 10.8916 109.904 10.1353 110.837 10.1353L212.675 10.1353Z" fill="#FFFF00" fill-opacity="0.5"/>
<path d="M206.566 14.0771C208.432 14.0771 209.945 15.5899 209.945 17.456L104.728 17.456C103.795 17.456 103.038 16.6996 103.038 15.7666C103.038 14.8335 103.795 14.0771 104.728 14.0771L206.566 14.0771Z" fill="#FFFF00" fill-opacity="0.5"/>
<path d="M183.663 72.0811C181.748 74.2305 179.007 75.4599 176.129 75.4599L11.5387 75.4601C9.4692 75.4601 7.65508 74.0767 7.10741 72.0811L183.663 72.0811Z" fill="#FFFF00" fill-opacity="0.5"/>
<path d="M174.948 76.3045C172.856 78.1207 170.181 79.1229 167.411 79.1278L15.9099 79.3943C13.1982 79.399 10.6351 78.1557 8.96029 76.0229L174.948 76.3045Z" fill="#FFFF00" fill-opacity="0.5"/>
<path d="M164.25 80.2464C159.13 82.2917 153.661 83.3211 148.148 83.277L18.9607 82.2449C16.7435 82.2272 14.6054 81.4186 12.9312 79.9648L164.25 80.2464Z" fill="#FFFF00" fill-opacity="0.5"/>
<mask id="path-11-outside-1_94_221" maskUnits="userSpaceOnUse" x="82.0463" y="28.7661" width="105" height="36" fill="black">
<rect fill="white" x="82.0463" y="28.7661" width="105" height="36"/>
<path d="M90.5403 63.7661C89.2869 63.7661 88.1276 63.4528 87.0623 62.8261C85.9969 62.1994 85.1509 61.3534 84.5243 60.2881C83.8976 59.2228 83.5843 58.0634 83.5843 56.8101V53.6611H90.8693V56.4341H110.045V50.5121H90.5403C89.2869 50.5121 88.1276 50.1988 87.0623 49.5721C85.9969 48.9454 85.1509 48.1151 84.5243 47.0811C83.8976 46.0158 83.5843 44.8408 83.5843 43.5561V36.8821C83.5843 35.5974 83.8976 34.4381 84.5243 33.4041C85.1509 32.3388 85.9969 31.4928 87.0623 30.8661C88.1276 30.2394 89.2869 29.9261 90.5403 29.9261H110.468C111.722 29.9261 112.865 30.2394 113.899 30.8661C114.965 31.4928 115.811 32.3388 116.437 33.4041C117.095 34.4381 117.424 35.5974 117.424 36.8821V40.0311H110.045V37.2581H90.8693V43.1801H110.468C111.722 43.1801 112.865 43.4934 113.899 44.1201C114.965 44.7468 115.811 45.5928 116.437 46.6581C117.095 47.6921 117.424 48.8514 117.424 50.1361V56.8101C117.424 58.0634 117.095 59.2228 116.437 60.2881C115.811 61.3534 114.965 62.1994 113.899 62.8261C112.865 63.4528 111.722 63.7661 110.468 63.7661H90.5403ZM118.417 63.7661V29.9261H125.702V43.1801H145.677V29.9261H152.962V63.7661H145.677V50.5121H125.702V63.7661H118.417ZM154.212 63.7661V29.9261H185.467V37.2581H161.591V43.1801H180.814V50.5121H161.591V63.7661H154.212Z"/>
</mask>
<path d="M90.5403 63.7661C89.2869 63.7661 88.1276 63.4528 87.0623 62.8261C85.9969 62.1994 85.1509 61.3534 84.5243 60.2881C83.8976 59.2228 83.5843 58.0634 83.5843 56.8101V53.6611H90.8693V56.4341H110.045V50.5121H90.5403C89.2869 50.5121 88.1276 50.1988 87.0623 49.5721C85.9969 48.9454 85.1509 48.1151 84.5243 47.0811C83.8976 46.0158 83.5843 44.8408 83.5843 43.5561V36.8821C83.5843 35.5974 83.8976 34.4381 84.5243 33.4041C85.1509 32.3388 85.9969 31.4928 87.0623 30.8661C88.1276 30.2394 89.2869 29.9261 90.5403 29.9261H110.468C111.722 29.9261 112.865 30.2394 113.899 30.8661C114.965 31.4928 115.811 32.3388 116.437 33.4041C117.095 34.4381 117.424 35.5974 117.424 36.8821V40.0311H110.045V37.2581H90.8693V43.1801H110.468C111.722 43.1801 112.865 43.4934 113.899 44.1201C114.965 44.7468 115.811 45.5928 116.437 46.6581C117.095 47.6921 117.424 48.8514 117.424 50.1361V56.8101C117.424 58.0634 117.095 59.2228 116.437 60.2881C115.811 61.3534 114.965 62.1994 113.899 62.8261C112.865 63.4528 111.722 63.7661 110.468 63.7661H90.5403ZM118.417 63.7661V29.9261H125.702V43.1801H145.677V29.9261H152.962V63.7661H145.677V50.5121H125.702V63.7661H118.417ZM154.212 63.7661V29.9261H185.467V37.2581H161.591V43.1801H180.814V50.5121H161.591V63.7661H154.212Z" fill="white"/>
<path d="M87.0623 62.8261L87.5693 61.9642L87.5693 61.9642L87.0623 62.8261ZM84.5243 60.2881L83.6623 60.7951L83.6623 60.7951L84.5243 60.2881ZM83.5843 53.6611V52.6611H82.5843V53.6611H83.5843ZM90.8693 53.6611H91.8693V52.6611H90.8693V53.6611ZM90.8693 56.4341H89.8693V57.4341H90.8693V56.4341ZM110.045 56.4341V57.4341H111.045V56.4341H110.045ZM110.045 50.5121H111.045V49.5121H110.045V50.5121ZM87.0623 49.5721L87.5693 48.7102L87.5693 48.7102L87.0623 49.5721ZM84.5243 47.0811L83.6623 47.5882L83.6691 47.5994L84.5243 47.0811ZM84.5243 33.4041L85.3795 33.9225L85.3862 33.9111L84.5243 33.4041ZM87.0623 30.8661L86.5552 30.0042L86.5552 30.0042L87.0623 30.8661ZM113.899 30.8661L113.381 31.7214L113.392 31.728L113.899 30.8661ZM116.437 33.4041L115.575 33.9111L115.584 33.9262L115.594 33.941L116.437 33.4041ZM117.424 40.0311V41.0311H118.424V40.0311H117.424ZM110.045 40.0311H109.045V41.0311H110.045V40.0311ZM110.045 37.2581H111.045V36.2581H110.045V37.2581ZM90.8693 37.2581V36.2581H89.8693V37.2581H90.8693ZM90.8693 43.1801H89.8693V44.1801H90.8693V43.1801ZM113.899 44.1201L113.381 44.9754L113.392 44.982L113.899 44.1201ZM116.437 46.6581L115.575 47.1651L115.584 47.1802L115.594 47.195L116.437 46.6581ZM116.437 60.2881L115.586 59.7626L115.581 59.7718L115.575 59.7811L116.437 60.2881ZM113.899 62.8261L113.392 61.9641L113.381 61.9709L113.899 62.8261ZM90.5403 62.7661C89.4626 62.7661 88.4787 62.4991 87.5693 61.9642L86.5552 63.688C87.7765 64.4064 89.1113 64.7661 90.5403 64.7661V62.7661ZM87.5693 61.9642C86.6505 61.4237 85.9267 60.6999 85.3862 59.7811L83.6623 60.7951C84.3752 62.007 85.3434 62.9752 86.5552 63.688L87.5693 61.9642ZM85.3862 59.7811C84.8513 58.8717 84.5843 57.8878 84.5843 56.8101H82.5843C82.5843 58.2391 82.9439 59.5739 83.6623 60.7951L85.3862 59.7811ZM84.5843 56.8101V53.6611H82.5843V56.8101H84.5843ZM83.5843 54.6611H90.8693V52.6611H83.5843V54.6611ZM89.8693 53.6611V56.4341H91.8693V53.6611H89.8693ZM90.8693 57.4341H110.045V55.4341H90.8693V57.4341ZM111.045 56.4341V50.5121H109.045V56.4341H111.045ZM110.045 49.5121H90.5403V51.5121H110.045V49.5121ZM90.5403 49.5121C89.4626 49.5121 88.4787 49.2451 87.5693 48.7102L86.5552 50.434C87.7765 51.1524 89.1113 51.5121 90.5403 51.5121V49.5121ZM87.5693 48.7102C86.6434 48.1655 85.9183 47.452 85.3795 46.5628L83.6691 47.5994C84.3835 48.7783 85.3505 49.7254 86.5552 50.434L87.5693 48.7102ZM85.3862 46.5741C84.8536 45.6686 84.5843 44.6698 84.5843 43.5561H82.5843C82.5843 45.0117 82.9416 46.3629 83.6623 47.5881L85.3862 46.5741ZM84.5843 43.5561V36.8821H82.5843V43.5561H84.5843ZM84.5843 36.8821C84.5843 35.7683 84.8535 34.7902 85.3795 33.9224L83.6691 32.8858C82.9417 34.086 82.5843 35.4266 82.5843 36.8821H84.5843ZM85.3862 33.9111C85.9267 32.9924 86.6505 32.2685 87.5693 31.728L86.5552 30.0042C85.3434 30.7171 84.3752 31.6852 83.6623 32.8971L85.3862 33.9111ZM87.5693 31.728C88.4787 31.1931 89.4626 30.9261 90.5403 30.9261V28.9261C89.1113 28.9261 87.7765 29.2858 86.5552 30.0042L87.5693 31.728ZM90.5403 30.9261H110.468V28.9261H90.5403V30.9261ZM110.468 30.9261C111.546 30.9261 112.509 31.1929 113.381 31.7213L114.418 30.0109C113.221 29.286 111.897 28.9261 110.468 28.9261V30.9261ZM113.392 31.728C114.311 32.2685 115.035 32.9924 115.575 33.9111L117.299 32.8971C116.586 31.6852 115.618 30.7171 114.406 30.0042L113.392 31.728ZM115.594 33.941C116.144 34.8066 116.424 35.778 116.424 36.8821H118.424C118.424 35.4169 118.046 34.0696 117.281 32.8672L115.594 33.941ZM116.424 36.8821V40.0311H118.424V36.8821H116.424ZM117.424 39.0311H110.045V41.0311H117.424V39.0311ZM111.045 40.0311V37.2581H109.045V40.0311H111.045ZM110.045 36.2581H90.8693V38.2581H110.045V36.2581ZM89.8693 37.2581V43.1801H91.8693V37.2581H89.8693ZM90.8693 44.1801H110.468V42.1801H90.8693V44.1801ZM110.468 44.1801C111.546 44.1801 112.509 44.4469 113.381 44.9753L114.418 43.2649C113.221 42.54 111.897 42.1801 110.468 42.1801V44.1801ZM113.392 44.982C114.311 45.5225 115.035 46.2464 115.575 47.1651L117.299 46.1511C116.586 44.9392 115.618 43.9711 114.406 43.2582L113.392 44.982ZM115.594 47.195C116.144 48.0606 116.424 49.032 116.424 50.1361H118.424C118.424 48.6709 118.046 47.3236 117.281 46.1212L115.594 47.195ZM116.424 50.1361V56.8101H118.424V50.1361H116.424ZM116.424 56.8101C116.424 57.878 116.147 58.8554 115.586 59.7626L117.288 60.8136C118.044 59.5902 118.424 58.2489 118.424 56.8101H116.424ZM115.575 59.7811C115.035 60.6999 114.311 61.4237 113.392 61.9642L114.406 63.688C115.618 62.9752 116.586 62.007 117.299 60.7951L115.575 59.7811ZM113.381 61.9709C112.509 62.4993 111.546 62.7661 110.468 62.7661V64.7661C111.897 64.7661 113.221 64.4063 114.418 63.6813L113.381 61.9709ZM110.468 62.7661H90.5403V64.7661H110.468V62.7661ZM118.417 63.7661H117.417V64.7661H118.417V63.7661ZM118.417 29.9261V28.9261H117.417V29.9261H118.417ZM125.702 29.9261H126.702V28.9261H125.702V29.9261ZM125.702 43.1801H124.702V44.1801H125.702V43.1801ZM145.677 43.1801V44.1801H146.677V43.1801H145.677ZM145.677 29.9261V28.9261H144.677V29.9261H145.677ZM152.962 29.9261H153.962V28.9261H152.962V29.9261ZM152.962 63.7661V64.7661H153.962V63.7661H152.962ZM145.677 63.7661H144.677V64.7661H145.677V63.7661ZM145.677 50.5121H146.677V49.5121H145.677V50.5121ZM125.702 50.5121V49.5121H124.702V50.5121H125.702ZM125.702 63.7661V64.7661H126.702V63.7661H125.702ZM119.417 63.7661V29.9261H117.417V63.7661H119.417ZM118.417 30.9261H125.702V28.9261H118.417V30.9261ZM124.702 29.9261V43.1801H126.702V29.9261H124.702ZM125.702 44.1801H145.677V42.1801H125.702V44.1801ZM146.677 43.1801V29.9261H144.677V43.1801H146.677ZM145.677 30.9261H152.962V28.9261H145.677V30.9261ZM151.962 29.9261V63.7661H153.962V29.9261H151.962ZM152.962 62.7661H145.677V64.7661H152.962V62.7661ZM146.677 63.7661V50.5121H144.677V63.7661H146.677ZM145.677 49.5121H125.702V51.5121H145.677V49.5121ZM124.702 50.5121V63.7661H126.702V50.5121H124.702ZM125.702 62.7661H118.417V64.7661H125.702V62.7661ZM154.212 63.7661H153.212V64.7661H154.212V63.7661ZM154.212 29.9261V28.9261H153.212V29.9261H154.212ZM185.467 29.9261H186.467V28.9261H185.467V29.9261ZM185.467 37.2581V38.2581H186.467V37.2581H185.467ZM161.591 37.2581V36.2581H160.591V37.2581H161.591ZM161.591 43.1801H160.591V44.1801H161.591V43.1801ZM180.814 43.1801H181.814V42.1801H180.814V43.1801ZM180.814 50.5121V51.5121H181.814V50.5121H180.814ZM161.591 50.5121V49.5121H160.591V50.5121H161.591ZM161.591 63.7661V64.7661H162.591V63.7661H161.591ZM155.212 63.7661V29.9261H153.212V63.7661H155.212ZM154.212 30.9261H185.467V28.9261H154.212V30.9261ZM184.467 29.9261V37.2581H186.467V29.9261H184.467ZM185.467 36.2581H161.591V38.2581H185.467V36.2581ZM160.591 37.2581V43.1801H162.591V37.2581H160.591ZM161.591 44.1801H180.814V42.1801H161.591V44.1801ZM179.814 43.1801V50.5121H181.814V43.1801H179.814ZM180.814 49.5121H161.591V51.5121H180.814V49.5121ZM160.591 50.5121V63.7661H162.591V50.5121H160.591ZM161.591 62.7661H154.212V64.7661H161.591V62.7661Z" fill="black" mask="url(#path-11-outside-1_94_221)"/>
</svg>
