<svg width="400" height="191" viewBox="0 0 400 191" fill="none" xmlns="http://www.w3.org/2000/svg">
<circle cx="122.612" cy="71.1836" r="50" fill="#FFFF00"/>
<path d="M87.2897 35.8226C106.816 16.2964 138.474 16.2964 158 35.8226L53.8785 139.944C44.1154 149.708 28.2863 149.708 18.5232 139.944C8.76008 130.181 8.76009 114.352 18.5232 104.589L87.2897 35.8226Z" fill="#FFF224" fill-opacity="0.5"/>
<path d="M157.996 106.518C138.47 126.044 106.811 126.044 87.2853 106.518L175.765 18.0383C185.528 8.27517 201.357 8.27517 211.12 18.0383C220.883 27.8014 220.883 43.6305 211.12 53.3936L157.996 106.518Z" fill="#FFFF00" fill-opacity="0.5"/>
<path d="M300.997 131.224C289.871 142.01 275.002 148.073 259.506 148.143L215.462 148.341L345.765 18.0382C355.528 8.27505 371.397 8.31456 381.16 18.0777C391.031 27.9483 390.946 44.0299 380.923 53.7459L300.997 131.224Z" fill="#FFFF00" fill-opacity="0.5"/>
<path d="M357.964 11.2627C361.278 11.2627 363.964 13.949 363.964 17.2627L191.964 17.2627C190.308 17.2627 188.964 15.9195 188.964 14.2627C188.964 12.6058 190.308 11.2627 191.964 11.2627L357.964 11.2627Z" fill="#FFFF00" fill-opacity="0.5"/>
<path d="M347.964 18.2627C351.278 18.2627 353.964 20.949 353.964 24.2627L181.964 24.2627C180.308 24.2627 178.964 22.9195 178.964 21.2627C178.964 19.6058 180.308 18.2627 181.964 18.2627L347.964 18.2627Z" fill="#FFFF00" fill-opacity="0.5"/>
<path d="M337.964 25.2627C341.278 25.2627 343.964 27.949 343.964 31.2627L171.964 31.2627C170.308 31.2627 168.964 29.9195 168.964 28.2627C168.964 26.6058 170.308 25.2627 171.964 25.2627L337.964 25.2627Z" fill="#FFFF00" fill-opacity="0.5"/>
<path d="M303.964 128.263C300.811 132.063 296.13 134.263 291.191 134.263L19.6575 134.263C16.0136 134.263 12.833 131.793 11.9305 128.263L303.964 128.263Z" fill="#FFFF00" fill-opacity="0.5"/>
<path d="M294.964 135.763C291.445 138.98 286.852 140.768 282.084 140.777L26.926 141.249C22.2164 141.258 17.7804 139.038 14.9644 135.263L294.964 135.763Z" fill="#FFFF00" fill-opacity="0.5"/>
<path d="M283.964 142.763C275.086 146.394 265.575 148.223 255.984 148.144L31.985 146.312C28.1036 146.281 24.3654 144.842 21.4644 142.263L283.964 142.763Z" fill="#FFFF00" fill-opacity="0.5"/>
<mask id="path-11-outside-1_1_3782" maskUnits="userSpaceOnUse" x="135.964" y="50.2627" width="176" height="60" fill="black">
<rect fill="white" x="135.964" y="50.2627" width="176" height="60"/>
<path d="M149.124 109.263C146.991 109.263 145.018 108.729 143.204 107.663C141.391 106.596 139.951 105.156 138.884 103.343C137.818 101.529 137.284 99.556 137.284 97.4227V92.0627H149.684V96.7827H182.324V86.7027H149.124C146.991 86.7027 145.018 86.1694 143.204 85.1027C141.391 84.036 139.951 82.6227 138.884 80.8627C137.818 79.0494 137.284 77.0494 137.284 74.8627V63.5027C137.284 61.316 137.818 59.3427 138.884 57.5827C139.951 55.7694 141.391 54.3294 143.204 53.2627C145.018 52.196 146.991 51.6627 149.124 51.6627H183.044C185.178 51.6627 187.124 52.196 188.884 53.2627C190.698 54.3294 192.138 55.7694 193.204 57.5827C194.324 59.3427 194.884 61.316 194.884 63.5027V68.8627H182.324V64.1427H149.684V74.2227H183.044C185.178 74.2227 187.124 74.756 188.884 75.8227C190.698 76.8894 192.138 78.3294 193.204 80.1427C194.324 81.9027 194.884 83.876 194.884 86.0627V97.4227C194.884 99.556 194.324 101.529 193.204 103.343C192.138 105.156 190.698 106.596 188.884 107.663C187.124 108.729 185.178 109.263 183.044 109.263H149.124ZM196.574 109.263V51.6627H208.974V74.2227H242.974V51.6627H255.374V109.263H242.974V86.7027H208.974V109.263H196.574ZM257.501 109.263V51.6627H310.701V64.1427H270.061V74.2227H302.781V86.7027H270.061V109.263H257.501Z"/>
</mask>
<path d="M149.124 109.263C146.991 109.263 145.018 108.729 143.204 107.663C141.391 106.596 139.951 105.156 138.884 103.343C137.818 101.529 137.284 99.556 137.284 97.4227V92.0627H149.684V96.7827H182.324V86.7027H149.124C146.991 86.7027 145.018 86.1694 143.204 85.1027C141.391 84.036 139.951 82.6227 138.884 80.8627C137.818 79.0494 137.284 77.0494 137.284 74.8627V63.5027C137.284 61.316 137.818 59.3427 138.884 57.5827C139.951 55.7694 141.391 54.3294 143.204 53.2627C145.018 52.196 146.991 51.6627 149.124 51.6627H183.044C185.178 51.6627 187.124 52.196 188.884 53.2627C190.698 54.3294 192.138 55.7694 193.204 57.5827C194.324 59.3427 194.884 61.316 194.884 63.5027V68.8627H182.324V64.1427H149.684V74.2227H183.044C185.178 74.2227 187.124 74.756 188.884 75.8227C190.698 76.8894 192.138 78.3294 193.204 80.1427C194.324 81.9027 194.884 83.876 194.884 86.0627V97.4227C194.884 99.556 194.324 101.529 193.204 103.343C192.138 105.156 190.698 106.596 188.884 107.663C187.124 108.729 185.178 109.263 183.044 109.263H149.124ZM196.574 109.263V51.6627H208.974V74.2227H242.974V51.6627H255.374V109.263H242.974V86.7027H208.974V109.263H196.574ZM257.501 109.263V51.6627H310.701V64.1427H270.061V74.2227H302.781V86.7027H270.061V109.263H257.501Z" fill="white"/>
<path d="M143.204 107.663L143.711 106.801L143.204 107.663ZM138.884 103.343L138.022 103.85L138.884 103.343ZM137.284 92.0627V91.0627H136.284V92.0627H137.284ZM149.684 92.0627H150.684V91.0627H149.684V92.0627ZM149.684 96.7827H148.684V97.7827H149.684V96.7827ZM182.324 96.7827V97.7827H183.324V96.7827H182.324ZM182.324 86.7027H183.324V85.7027H182.324V86.7027ZM143.204 85.1027L143.711 84.2408L143.204 85.1027ZM138.884 80.8627L138.022 81.3698L138.029 81.381L138.884 80.8627ZM138.884 57.5827L139.74 58.101L139.746 58.0897L138.884 57.5827ZM143.204 53.2627L142.697 52.4008H142.697L143.204 53.2627ZM188.884 53.2627L188.366 54.118L188.377 54.1246L188.884 53.2627ZM193.204 57.5827L192.342 58.0897L192.351 58.1048L192.361 58.1196L193.204 57.5827ZM194.884 68.8627V69.8627H195.884V68.8627H194.884ZM182.324 68.8627H181.324V69.8627H182.324V68.8627ZM182.324 64.1427H183.324V63.1427H182.324V64.1427ZM149.684 64.1427V63.1427H148.684V64.1427H149.684ZM149.684 74.2227H148.684V75.2227H149.684V74.2227ZM188.884 75.8227L188.366 76.678L188.377 76.6846L188.884 75.8227ZM193.204 80.1427L192.342 80.6497L192.351 80.6648L192.361 80.6796L193.204 80.1427ZM193.204 103.343L192.354 102.817L192.348 102.826L192.342 102.836L193.204 103.343ZM188.884 107.663L188.377 106.801L188.366 106.807L188.884 107.663ZM149.124 108.263C147.167 108.263 145.369 107.776 143.711 106.801L142.697 108.525C144.667 109.683 146.815 110.263 149.124 110.263V108.263ZM143.711 106.801C142.045 105.82 140.727 104.502 139.746 102.836L138.022 103.85C139.175 105.81 140.737 107.372 142.697 108.525L143.711 106.801ZM139.746 102.836C138.771 101.178 138.284 99.3804 138.284 97.4227H136.284C136.284 99.7317 136.864 101.88 138.022 103.85L139.746 102.836ZM138.284 97.4227V92.0627H136.284V97.4227H138.284ZM137.284 93.0627H149.684V91.0627H137.284V93.0627ZM148.684 92.0627V96.7827H150.684V92.0627H148.684ZM149.684 97.7827H182.324V95.7827H149.684V97.7827ZM183.324 96.7827V86.7027H181.324V96.7827H183.324ZM182.324 85.7027H149.124V87.7027H182.324V85.7027ZM149.124 85.7027C147.167 85.7027 145.369 85.2157 143.711 84.2408L142.697 85.9646C144.667 87.123 146.815 87.7027 149.124 87.7027V85.7027ZM143.711 84.2408C142.037 83.2561 140.718 81.9595 139.74 80.3444L138.029 81.381C139.184 83.2858 140.745 84.816 142.697 85.9646L143.711 84.2408ZM139.746 80.3557C138.774 78.7022 138.284 76.8784 138.284 74.8627H136.284C136.284 77.2203 136.862 79.3965 138.022 81.3697L139.746 80.3557ZM138.284 74.8627V63.5027H136.284V74.8627H138.284ZM138.284 63.5027C138.284 61.4869 138.774 59.6948 139.74 58.101L138.029 57.0644C136.862 58.9906 136.284 61.1452 136.284 63.5027H138.284ZM139.746 58.0897C140.727 56.4229 142.045 55.1051 143.711 54.1246L142.697 52.4008C140.737 53.5536 139.175 55.1158 138.022 57.0757L139.746 58.0897ZM143.711 54.1246C145.369 53.1497 147.167 52.6627 149.124 52.6627V50.6627C146.815 50.6627 144.667 51.2424 142.697 52.4008L143.711 54.1246ZM149.124 52.6627H183.044V50.6627H149.124V52.6627ZM183.044 52.6627C185.002 52.6627 186.768 53.1495 188.366 54.1179L189.403 52.4075C187.48 51.2425 185.353 50.6627 183.044 50.6627V52.6627ZM188.377 54.1246C190.044 55.1051 191.362 56.4229 192.342 58.0897L194.066 57.0757C192.913 55.1158 191.351 53.5536 189.391 52.4008L188.377 54.1246ZM192.361 58.1196C193.374 59.7112 193.884 61.4966 193.884 63.5027H195.884C195.884 61.1355 195.275 58.9742 194.048 57.0458L192.361 58.1196ZM193.884 63.5027V68.8627H195.884V63.5027H193.884ZM194.884 67.8627H182.324V69.8627H194.884V67.8627ZM183.324 68.8627V64.1427H181.324V68.8627H183.324ZM182.324 63.1427H149.684V65.1427H182.324V63.1427ZM148.684 64.1427V74.2227H150.684V64.1427H148.684ZM149.684 75.2227H183.044V73.2227H149.684V75.2227ZM183.044 75.2227C185.002 75.2227 186.768 75.7095 188.366 76.6779L189.403 74.9675C187.48 73.8025 185.353 73.2227 183.044 73.2227V75.2227ZM188.377 76.6846C190.044 77.6651 191.362 78.9829 192.342 80.6497L194.066 79.6357C192.913 77.6758 191.351 76.1136 189.391 74.9608L188.377 76.6846ZM192.361 80.6796C193.374 82.2712 193.884 84.0566 193.884 86.0627H195.884C195.884 83.6955 195.275 81.5342 194.048 79.6058L192.361 80.6796ZM193.884 86.0627V97.4227H195.884V86.0627H193.884ZM193.884 97.4227C193.884 99.3706 193.376 101.162 192.354 102.817L194.055 103.868C195.273 101.897 195.884 99.7415 195.884 97.4227H193.884ZM192.342 102.836C191.362 104.502 190.044 105.82 188.377 106.801L189.391 108.525C191.351 107.372 192.913 105.81 194.066 103.85L192.342 102.836ZM188.366 106.807C186.768 107.776 185.002 108.263 183.044 108.263V110.263C185.353 110.263 187.48 109.683 189.403 108.518L188.366 106.807ZM183.044 108.263H149.124V110.263H183.044V108.263ZM196.574 109.263H195.574V110.263H196.574V109.263ZM196.574 51.6627V50.6627H195.574V51.6627H196.574ZM208.974 51.6627H209.974V50.6627H208.974V51.6627ZM208.974 74.2227H207.974V75.2227H208.974V74.2227ZM242.974 74.2227V75.2227H243.974V74.2227H242.974ZM242.974 51.6627V50.6627H241.974V51.6627H242.974ZM255.374 51.6627H256.374V50.6627H255.374V51.6627ZM255.374 109.263V110.263H256.374V109.263H255.374ZM242.974 109.263H241.974V110.263H242.974V109.263ZM242.974 86.7027H243.974V85.7027H242.974V86.7027ZM208.974 86.7027V85.7027H207.974V86.7027H208.974ZM208.974 109.263V110.263H209.974V109.263H208.974ZM197.574 109.263V51.6627H195.574V109.263H197.574ZM196.574 52.6627H208.974V50.6627H196.574V52.6627ZM207.974 51.6627V74.2227H209.974V51.6627H207.974ZM208.974 75.2227H242.974V73.2227H208.974V75.2227ZM243.974 74.2227V51.6627H241.974V74.2227H243.974ZM242.974 52.6627H255.374V50.6627H242.974V52.6627ZM254.374 51.6627V109.263H256.374V51.6627H254.374ZM255.374 108.263H242.974V110.263H255.374V108.263ZM243.974 109.263V86.7027H241.974V109.263H243.974ZM242.974 85.7027H208.974V87.7027H242.974V85.7027ZM207.974 86.7027V109.263H209.974V86.7027H207.974ZM208.974 108.263H196.574V110.263H208.974V108.263ZM257.501 109.263H256.501V110.263H257.501V109.263ZM257.501 51.6627V50.6627H256.501V51.6627H257.501ZM310.701 51.6627H311.701V50.6627H310.701V51.6627ZM310.701 64.1427V65.1427H311.701V64.1427H310.701ZM270.061 64.1427V63.1427H269.061V64.1427H270.061ZM270.061 74.2227H269.061V75.2227H270.061V74.2227ZM302.781 74.2227H303.781V73.2227H302.781V74.2227ZM302.781 86.7027V87.7027H303.781V86.7027H302.781ZM270.061 86.7027V85.7027H269.061V86.7027H270.061ZM270.061 109.263V110.263H271.061V109.263H270.061ZM258.501 109.263V51.6627H256.501V109.263H258.501ZM257.501 52.6627H310.701V50.6627H257.501V52.6627ZM309.701 51.6627V64.1427H311.701V51.6627H309.701ZM310.701 63.1427H270.061V65.1427H310.701V63.1427ZM269.061 64.1427V74.2227H271.061V64.1427H269.061ZM270.061 75.2227H302.781V73.2227H270.061V75.2227ZM301.781 74.2227V86.7027H303.781V74.2227H301.781ZM302.781 85.7027H270.061V87.7027H302.781V85.7027ZM269.061 86.7027V109.263H271.061V86.7027H269.061ZM270.061 108.263H257.501V110.263H270.061V108.263Z" fill="black" mask="url(#path-11-outside-1_1_3782)"/>
<path d="M20.3244 163.183H15.0044V161.143C15.0044 160.93 14.9244 160.743 14.7644 160.583C14.631 160.423 14.4577 160.343 14.2444 160.343H12.0444C11.831 160.343 11.6444 160.423 11.4844 160.583C11.351 160.743 11.2844 160.93 11.2844 161.143V165.743C11.2844 165.957 11.351 166.143 11.4844 166.303C11.6444 166.463 11.831 166.543 12.0444 166.543H15.6444C18.951 166.597 20.6044 168.357 20.6044 171.823V177.383C20.6044 180.903 18.951 182.663 15.6444 182.663H10.9244C7.61769 182.663 5.96436 180.903 5.96436 177.383V174.703H11.2844V177.583C11.2844 177.797 11.351 177.983 11.4844 178.143C11.6444 178.303 11.831 178.383 12.0444 178.383H14.5244C14.7377 178.383 14.911 178.303 15.0444 178.143C15.2044 177.983 15.2844 177.797 15.2844 177.583V172.503C15.2844 172.29 15.2044 172.103 15.0444 171.943C14.911 171.783 14.7377 171.703 14.5244 171.703H10.9244C7.61769 171.703 5.96436 169.943 5.96436 166.423V161.263C5.96436 157.743 7.61769 155.983 10.9244 155.983H15.3644C18.671 155.983 20.3244 157.743 20.3244 161.263V163.183ZM33.1247 160.303C32.5647 160.863 31.8847 161.143 31.0847 161.143C30.2847 161.143 29.5913 160.863 29.0047 160.303C28.418 159.717 28.1247 159.023 28.1247 158.223C28.1247 157.397 28.418 156.703 29.0047 156.143C29.5913 155.557 30.2847 155.263 31.0847 155.263C31.8847 155.263 32.5647 155.557 33.1247 156.143C33.7113 156.703 34.0047 157.397 34.0047 158.223C34.0047 159.05 33.7113 159.743 33.1247 160.303ZM28.4047 182.263V162.743H33.7647V182.263H28.4047ZM50.6084 162.343C53.9151 162.343 55.5684 164.103 55.5684 167.623V173.943H46.4884V178.023C46.4884 178.237 46.5551 178.423 46.6884 178.583C46.8484 178.743 47.0351 178.823 47.2484 178.823H49.4484C49.6618 178.823 49.8351 178.743 49.9684 178.583C50.1284 178.423 50.2084 178.237 50.2084 178.023V175.863H55.5684V177.383C55.5684 180.903 53.9151 182.663 50.6084 182.663H46.0884C42.7818 182.663 41.1284 180.903 41.1284 177.383V167.623C41.1284 164.103 42.7818 162.343 46.0884 162.343H50.6084ZM46.4884 170.423H50.2084V166.823C50.2084 166.61 50.1284 166.423 49.9684 166.263C49.8351 166.103 49.6618 166.023 49.4484 166.023H47.2484C47.0351 166.023 46.8484 166.103 46.6884 166.263C46.5551 166.423 46.4884 166.61 46.4884 166.823V170.423ZM67.4712 182.263H62.1112V162.743H66.9912V163.743C67.8179 162.81 69.0712 162.343 70.7512 162.343H71.5912C74.8979 162.343 76.5512 164.103 76.5512 167.623V182.263H71.1912V166.983C71.1912 166.77 71.1112 166.583 70.9512 166.423C70.8179 166.263 70.6446 166.183 70.4312 166.183H68.2312C68.0179 166.183 67.8312 166.263 67.6712 166.423C67.5379 166.583 67.4712 166.77 67.4712 166.983V182.263ZM98.2372 170.423H92.8772V166.983C92.8772 166.77 92.7972 166.583 92.6372 166.423C92.5038 166.263 92.3305 166.183 92.1172 166.183H89.9172C89.7038 166.183 89.5172 166.263 89.3572 166.423C89.2238 166.583 89.1572 166.77 89.1572 166.983V178.023C89.1572 178.237 89.2238 178.423 89.3572 178.583C89.5172 178.743 89.7038 178.823 89.9172 178.823H92.1172C92.3305 178.823 92.5038 178.743 92.6372 178.583C92.7972 178.423 92.8772 178.237 92.8772 178.023V174.583H98.2372V177.383C98.2372 180.903 96.5838 182.663 93.2772 182.663H88.7572C85.4505 182.663 83.7972 180.903 83.7972 177.383V167.623C83.7972 164.103 85.4505 162.343 88.7572 162.343H93.2772C96.5838 162.343 98.2372 164.103 98.2372 167.623V170.423ZM114.729 162.343C118.035 162.343 119.689 164.103 119.689 167.623V173.943H110.609V178.023C110.609 178.237 110.675 178.423 110.809 178.583C110.969 178.743 111.155 178.823 111.369 178.823H113.569C113.782 178.823 113.955 178.743 114.089 178.583C114.249 178.423 114.329 178.237 114.329 178.023V175.863H119.689V177.383C119.689 180.903 118.035 182.663 114.729 182.663H110.209C106.902 182.663 105.249 180.903 105.249 177.383V167.623C105.249 164.103 106.902 162.343 110.209 162.343H114.729ZM110.609 170.423H114.329V166.823C114.329 166.61 114.249 166.423 114.089 166.263C113.955 166.103 113.782 166.023 113.569 166.023H111.369C111.155 166.023 110.969 166.103 110.809 166.263C110.675 166.423 110.609 166.61 110.609 166.823V170.423ZM145.037 159.663C144.451 159.663 144.011 159.797 143.717 160.063C143.424 160.33 143.277 160.837 143.277 161.583V162.743H146.637V166.783H143.277V182.263H137.917V161.263C137.917 157.743 139.571 155.983 142.877 155.983H146.637V159.663H145.037ZM167.051 167.623V177.383C167.051 180.903 165.398 182.663 162.091 182.663H157.571C154.265 182.663 152.611 180.903 152.611 177.383V167.623C152.611 164.103 154.265 162.343 157.571 162.343H162.091C165.398 162.343 167.051 164.103 167.051 167.623ZM161.691 178.503V166.463C161.691 166.25 161.611 166.063 161.451 165.903C161.318 165.743 161.145 165.663 160.931 165.663H158.731C158.518 165.663 158.331 165.743 158.171 165.903C158.038 166.063 157.971 166.25 157.971 166.463V178.503C157.971 178.717 158.038 178.903 158.171 179.063C158.331 179.223 158.518 179.303 158.731 179.303H160.931C161.145 179.303 161.318 179.223 161.451 179.063C161.611 178.903 161.691 178.717 161.691 178.503ZM182.617 162.343H183.657V167.543H181.017C180.11 167.543 179.657 168.01 179.657 168.943V182.263H174.297V162.743H179.177V164.623C179.95 163.103 181.097 162.343 182.617 162.343ZM207.141 172.103V182.263H201.541V156.383H207.141V167.223H211.581V156.383H217.181V182.263H211.581V172.103H207.141ZM234.069 162.343C237.376 162.343 239.029 164.103 239.029 167.623V173.943H229.949V178.023C229.949 178.237 230.016 178.423 230.149 178.583C230.309 178.743 230.496 178.823 230.709 178.823H232.909C233.123 178.823 233.296 178.743 233.429 178.583C233.589 178.423 233.669 178.237 233.669 178.023V175.863H239.029V177.383C239.029 180.903 237.376 182.663 234.069 182.663H229.549C226.243 182.663 224.589 180.903 224.589 177.383V167.623C224.589 164.103 226.243 162.343 229.549 162.343H234.069ZM229.949 170.423H233.669V166.823C233.669 166.61 233.589 166.423 233.429 166.263C233.296 166.103 233.123 166.023 232.909 166.023H230.709C230.496 166.023 230.309 166.103 230.149 166.263C230.016 166.423 229.949 166.61 229.949 166.823V170.423ZM255.492 162.743H260.012V182.263H255.492V180.823C254.666 182.05 253.292 182.663 251.372 182.663H250.532C247.226 182.663 245.572 180.903 245.572 177.383V167.623C245.572 164.103 247.226 162.343 250.532 162.343H251.372C253.292 162.343 254.666 162.957 255.492 164.183V162.743ZM254.652 178.023V166.983C254.652 166.77 254.572 166.583 254.412 166.423C254.279 166.263 254.106 166.183 253.892 166.183H251.692C251.479 166.183 251.292 166.263 251.132 166.423C250.999 166.583 250.932 166.77 250.932 166.983V178.023C250.932 178.237 250.999 178.423 251.132 178.583C251.292 178.743 251.479 178.823 251.692 178.823H253.892C254.106 178.823 254.279 178.743 254.412 178.583C254.572 178.423 254.652 178.237 254.652 178.023ZM272.618 182.263H267.258V156.383H272.618V182.263ZM286.923 179.183H288.523V182.663H284.763C281.457 182.663 279.803 180.903 279.803 177.383V158.503H285.163V162.743H288.523V166.623H285.163V177.263C285.163 178.01 285.31 178.517 285.603 178.783C285.897 179.05 286.337 179.183 286.923 179.183ZM300.287 182.263H294.927V156.383H300.287V163.303C301.087 162.663 302.18 162.343 303.567 162.343H304.407C307.714 162.343 309.367 164.103 309.367 167.623V182.263H304.007V166.983C304.007 166.77 303.927 166.583 303.767 166.423C303.634 166.263 303.46 166.183 303.247 166.183H301.047C300.594 166.183 300.34 166.423 300.287 166.903V182.263Z" fill="white"/>
</svg>
