<svg width="33" height="32" viewBox="0 0 33 32" fill="none" xmlns="http://www.w3.org/2000/svg">
<path d="M23.5228 32H9.90583C8.77759 32 7.86328 31.0857 7.86328 29.9574V11.5745C7.86278 9.81216 8.94415 8.23038 10.5865 7.59158V4.76611H22.8418V7.59158C24.4842 8.23038 25.5658 9.81216 25.5653 11.5745V29.9574C25.5653 31.0857 24.6508 32 23.5228 32ZM11.9484 6.12773V8.62133L11.4293 8.74899C10.133 9.07338 9.2239 10.2385 9.2249 11.5745V29.9574C9.2249 30.3334 9.52984 30.6384 9.90583 30.6384H23.5228C23.8988 30.6384 24.2037 30.3334 24.2037 29.9574V11.5745C24.2045 10.2385 23.2956 9.07338 21.9993 8.74899L21.4802 8.62133V6.12773H11.9484Z" fill="#1F7D3A"/>
<path d="M22.8418 6.12766H10.5865C9.45851 6.12766 8.54395 5.2131 8.54395 4.08511V2.04255C8.54395 0.914561 9.45851 0 10.5865 0H22.8418C23.9701 0 24.8844 0.914561 24.8844 2.04255V4.08511C24.8844 5.2131 23.9701 6.12766 22.8418 6.12766ZM10.5865 1.36162C10.2105 1.36162 9.90581 1.66656 9.90581 2.04255V4.08511C9.90581 4.4611 10.2105 4.76604 10.5865 4.76604H22.8418C23.2178 4.76604 23.5228 4.4611 23.5228 4.08511V2.04255C23.5228 1.66656 23.2178 1.36162 22.8418 1.36162H10.5865Z" fill="#1F7D3A"/>
<path d="M25.5653 25.1916H7.86328V14.2979H25.5653V25.1916ZM9.2249 23.8297H24.2037V15.6595H9.2249V23.8297Z" fill="#1F7D3A"/>
</svg>
