<svg width="48" height="48" viewBox="0 0 48 48" fill="none" xmlns="http://www.w3.org/2000/svg">
<path d="M41.8047 2.0166H6.55469C5.38647 2.01788 4.26647 2.48253 3.44042 3.30858C2.61436 4.13463 2.14972 5.25464 2.14844 6.42285V21.1104C2.14844 21.4999 2.30318 21.8735 2.57862 22.1489C2.85407 22.4244 3.22765 22.5791 3.61719 22.5791C4.00672 22.5791 4.38031 22.4244 4.65575 22.1489C4.93119 21.8735 5.08594 21.4999 5.08594 21.1104V6.42285C5.08644 6.03347 5.24135 5.66018 5.51668 5.38485C5.79202 5.10951 6.16531 4.95461 6.55469 4.9541H41.8047C42.1941 4.95461 42.5674 5.10951 42.8427 5.38485C43.118 5.66018 43.2729 6.03347 43.2734 6.42285V41.6729C43.2729 42.0622 43.118 42.4355 42.8427 42.7109C42.5674 42.9862 42.1941 43.1411 41.8047 43.1416H27.1172C26.7277 43.1416 26.3541 43.2963 26.0786 43.5718C25.8032 43.8472 25.6484 44.2208 25.6484 44.6104C25.6484 44.9999 25.8032 45.3735 26.0786 45.6489C26.3541 45.9244 26.7277 46.0791 27.1172 46.0791H41.8047C42.9729 46.0778 44.0929 45.6132 44.919 44.7871C45.745 43.9611 46.2097 42.8411 46.2109 41.6729V6.42285C46.2097 5.25464 45.745 4.13463 44.919 3.30858C44.0929 2.48253 42.9729 2.01788 41.8047 2.0166Z" fill="#C0C0C0"/>
<path d="M6.55469 46.0791H18.3047C19.4729 46.0778 20.5929 45.6132 21.419 44.7871C22.245 43.9611 22.7097 42.8411 22.7109 41.6729V29.9229C22.7097 28.7546 22.245 27.6346 21.419 26.8086C20.5929 25.9825 19.4729 25.5179 18.3047 25.5166H6.55469C5.38647 25.5179 4.26647 25.9825 3.44042 26.8086C2.61436 27.6346 2.14972 28.7546 2.14844 29.9229V41.6729C2.14972 42.8411 2.61436 43.9611 3.44042 44.7871C4.26647 45.6132 5.38647 46.0778 6.55469 46.0791ZM5.08594 29.9229C5.08644 29.5335 5.24135 29.1602 5.51668 28.8848C5.79202 28.6095 6.16531 28.4546 6.55469 28.4541H18.3047C18.6941 28.4546 19.0674 28.6095 19.3427 28.8848C19.618 29.1602 19.7729 29.5335 19.7734 29.9229V41.6729C19.7729 42.0622 19.618 42.4355 19.3427 42.7109C19.0674 42.9862 18.6941 43.1411 18.3047 43.1416H6.55469C6.16531 43.1411 5.79202 42.9862 5.51668 42.7109C5.24135 42.4355 5.08644 42.0622 5.08594 41.6729V29.9229Z" fill="#C0C0C0"/>
<path d="M24.6097 23.6175C24.89 23.8835 25.2617 24.0317 25.6481 24.0317C26.0345 24.0317 26.4062 23.8835 26.6865 23.6175L35.9294 14.3748V18.1729C35.9294 18.5624 36.0841 18.936 36.3596 19.2114C36.635 19.4869 37.0086 19.6416 37.3981 19.6416C37.7877 19.6416 38.1612 19.4869 38.4367 19.2114C38.7121 18.936 38.8669 18.5624 38.8669 18.1729V10.8291C38.8608 10.4415 38.7041 10.0714 38.43 9.79724C38.1558 9.5231 37.7858 9.36641 37.3981 9.36035H30.0544C29.6648 9.36035 29.2913 9.51509 29.0158 9.79054C28.7404 10.066 28.5856 10.4396 28.5856 10.8291C28.5856 11.2186 28.7404 11.5922 29.0158 11.8677C29.2913 12.1431 29.6648 12.2979 30.0544 12.2979H33.8524L24.6097 21.5407C24.3344 21.8161 24.1797 22.1896 24.1797 22.5791C24.1797 22.9686 24.3344 23.3421 24.6097 23.6175Z" fill="#C0C0C0"/>
</svg>
