<svg width="27" height="27" viewBox="0 0 27 27" fill="none" xmlns="http://www.w3.org/2000/svg">
<g clip-path="url(#clip0_112_2276)">
<path d="M3.33154 11.109C4.45337 11.109 5.36279 10.1996 5.36279 9.07776C5.36279 7.95593 4.45337 7.04651 3.33154 7.04651C2.20971 7.04651 1.30029 7.95593 1.30029 9.07776C1.30029 10.1996 2.20971 11.109 3.33154 11.109Z" stroke="#1F7D3A" stroke-width="2" stroke-linecap="round" stroke-linejoin="round"/>
<path d="M11.0503 5.82776C12.1721 5.82776 13.0815 4.91834 13.0815 3.79651C13.0815 2.67468 12.1721 1.76526 11.0503 1.76526C9.92846 1.76526 9.01904 2.67468 9.01904 3.79651C9.01904 4.91834 9.92846 5.82776 11.0503 5.82776Z" stroke="#1F7D3A" stroke-width="2" stroke-linecap="round" stroke-linejoin="round"/>
<path d="M22.019 5.82776C23.1409 5.82776 24.0503 4.91834 24.0503 3.79651C24.0503 2.67468 23.1409 1.76526 22.019 1.76526C20.8972 1.76526 19.9878 2.67468 19.9878 3.79651C19.9878 4.91834 20.8972 5.82776 22.019 5.82776Z" stroke="#1F7D3A" stroke-width="2" stroke-linecap="round" stroke-linejoin="round"/>
<path d="M15.519 11.5153C16.6409 11.5153 17.5503 10.6058 17.5503 9.48401C17.5503 8.36218 16.6409 7.45276 15.519 7.45276C14.3972 7.45276 13.4878 8.36218 13.4878 9.48401C13.4878 10.6058 14.3972 11.5153 15.519 11.5153Z" stroke="#1F7D3A" stroke-width="2" stroke-linecap="round" stroke-linejoin="round"/>
<path d="M23.644 14.7653C24.7659 14.7653 25.6753 13.8558 25.6753 12.734C25.6753 11.6122 24.7659 10.7028 23.644 10.7028C22.5222 10.7028 21.6128 11.6122 21.6128 12.734C21.6128 13.8558 22.5222 14.7653 23.644 14.7653Z" stroke="#1F7D3A" stroke-width="2" stroke-linecap="round" stroke-linejoin="round"/>
<path d="M3.33154 20.4528C4.45337 20.4528 5.36279 19.5433 5.36279 18.4215C5.36279 17.2997 4.45337 16.3903 3.33154 16.3903C2.20971 16.3903 1.30029 17.2997 1.30029 18.4215C1.30029 19.5433 2.20971 20.4528 3.33154 20.4528Z" stroke="#1F7D3A" stroke-width="2" stroke-linecap="round" stroke-linejoin="round"/>
<path d="M10.644 17.2028C11.7659 17.2028 12.6753 16.2933 12.6753 15.1715C12.6753 14.0497 11.7659 13.1403 10.644 13.1403C9.52221 13.1403 8.61279 14.0497 8.61279 15.1715C8.61279 16.2933 9.52221 17.2028 10.644 17.2028Z" stroke="#1F7D3A" stroke-width="2" stroke-linecap="round" stroke-linejoin="round"/>
<path d="M11.4565 25.734C12.5784 25.734 13.4878 24.8246 13.4878 23.7028C13.4878 22.5809 12.5784 21.6715 11.4565 21.6715C10.3347 21.6715 9.42529 22.5809 9.42529 23.7028C9.42529 24.8246 10.3347 25.734 11.4565 25.734Z" stroke="#1F7D3A" stroke-width="2" stroke-linecap="round" stroke-linejoin="round"/>
<path d="M18.769 20.0465C19.8909 20.0465 20.8003 19.1371 20.8003 18.0153C20.8003 16.8934 19.8909 15.984 18.769 15.984C17.6472 15.984 16.7378 16.8934 16.7378 18.0153C16.7378 19.1371 17.6472 20.0465 18.769 20.0465Z" stroke="#1F7D3A" stroke-width="2" stroke-linecap="round" stroke-linejoin="round"/>
<path d="M23.644 26.1403C24.7659 26.1403 25.6753 25.2308 25.6753 24.109C25.6753 22.9872 24.7659 22.0778 23.644 22.0778C22.5222 22.0778 21.6128 22.9872 21.6128 24.109C21.6128 25.2308 22.5222 26.1403 23.644 26.1403Z" stroke="#1F7D3A" stroke-width="2" stroke-linecap="round" stroke-linejoin="round"/>
<path d="M9.3724 4.94617L5.00928 7.92804" stroke="#1F7D3A" stroke-width="2" stroke-linecap="round" stroke-linejoin="round"/>
<path d="M20.4916 5.13306L17.0466 8.14743" stroke="#1F7D3A" stroke-width="2" stroke-linecap="round" stroke-linejoin="round"/>
<path d="M21.7591 11.9784L17.4041 10.2396" stroke="#1F7D3A" stroke-width="2" stroke-linecap="round" stroke-linejoin="round"/>
<path d="M8.78736 15.9962L5.18799 17.5968" stroke="#1F7D3A" stroke-width="2" stroke-linecap="round" stroke-linejoin="round"/>
<path d="M17.1644 19.2625L13.0613 22.4556" stroke="#1F7D3A" stroke-width="2" stroke-linecap="round" stroke-linejoin="round"/>
<path d="M22.3766 22.5246L20.0366 19.5996" stroke="#1F7D3A" stroke-width="2" stroke-linecap="round" stroke-linejoin="round"/>
<path d="M11.2656 21.6837L10.835 17.1906" stroke="#1F7D3A" stroke-width="2" stroke-linecap="round" stroke-linejoin="round"/>
</g>
<defs>
<clipPath id="clip0_112_2276">
<rect width="26" height="26" fill="white" transform="translate(0.487793 0.952759)"/>
</clipPath>
</defs>
</svg>
