<svg width="27" height="27" viewBox="0 0 27 27" fill="none" xmlns="http://www.w3.org/2000/svg">
<path d="M21.1542 12.588H17.4948L16.9837 11.248C17.066 11.1424 18.0163 9.57359 18.0713 9.45178L19.7465 9.29362C19.8894 9.28008 19.9943 9.15312 19.9811 9.01026C19.9676 8.86705 19.8379 8.76515 19.6977 8.77565L18.0752 8.92884C18.0136 8.79118 17.1006 6.91131 17.0004 6.79416C17.0768 6.70913 17.0279 6.779 18.0883 5.02901C18.1113 4.99101 18.1272 4.95038 18.1417 4.9095C18.6721 4.8964 20.0813 4.86157 19.9913 4.8638C20.1348 4.86008 20.2482 4.74091 20.2448 4.59737C20.2411 4.45586 20.1257 4.3438 19.9848 4.3438C19.95 4.3438 18.1821 4.38566 18.1075 4.39526C17.7824 3.71821 17.4657 3.09922 17.1539 2.45271C17.0239 2.18526 16.7467 2.02344 16.4542 2.04442L14.3623 2.18695C14.1446 2.20117 13.9473 2.32101 13.8345 2.50721L12.848 4.13594C12.8266 4.17136 12.8118 4.20957 12.7982 4.24765C12.5919 4.20802 12.7062 4.23817 10.5226 4.37427C10.3049 4.38849 10.1075 4.50833 9.9948 4.69487L9.02348 6.29852L8.05292 6.02635C7.91378 5.9881 7.77126 6.06867 7.73233 6.20679C7.69373 6.34492 7.7743 6.48846 7.91277 6.52739L8.953 6.81909C8.96136 6.84566 8.96705 6.87279 8.97917 6.89844C9.2606 7.49202 9.85286 8.94235 10.0361 9.17705C9.89639 9.6215 9.63501 10.3886 9.4792 10.8421C7.49661 10.7397 7.14147 10.7235 6.78238 10.9142C6.25637 11.1935 6.26969 12.028 6.85855 12.3385C6.93828 12.3802 7.04951 12.4125 7.20401 12.4367C7.20769 12.451 7.20513 12.466 7.21131 12.4796C7.54443 13.22 7.42798 14.1192 6.91407 14.7716C6.54931 15.2393 5.98341 15.5809 5.51285 16.0042C4.27954 17.1204 3.68201 18.8967 3.98975 20.5291C4.29342 22.1643 5.49355 23.6045 7.04779 24.1983C9.37955 25.0822 12.3706 24.7182 13.9416 22.3512C13.9731 22.5229 14.0154 22.6925 14.0884 22.8539C14.2425 23.2026 14.5851 23.5706 15.0028 23.6075C15.1799 23.6233 20.5218 23.5912 21.055 23.5912C22.3082 23.5912 22.9901 23.1917 23.0415 21.8302C23.0475 14.6251 23.0303 15.3255 23.053 14.8146C23.0781 14.2566 23.1065 13.6242 22.748 13.1574C22.3076 12.5866 21.6951 12.5822 21.1542 12.588ZM17.5944 9.25401C16.5333 11.0011 16.5862 10.9408 16.5351 10.9636C16.3211 11.0578 14.4418 11.1838 14.2157 11.1333C14.0663 10.8839 13.453 9.4334 13.2397 8.9825C13.2272 8.95575 13.2285 8.92495 13.2438 8.89989C14.2777 7.23801 14.2069 7.20963 14.3474 7.19974C15.3204 7.13606 15.3989 7.12832 16.4396 7.05755C16.5212 7.04672 16.6001 7.09784 16.637 7.17367C17.6153 9.1987 17.6596 9.1466 17.5944 9.25401ZM14.2794 2.77669C14.3549 2.65213 14.3726 2.73001 16.4887 2.56307C16.5662 2.55664 16.6492 2.60302 16.6857 2.67919C17.6352 4.64596 17.7075 4.65515 17.6435 4.75953C16.5762 6.51734 16.6334 6.44763 16.5835 6.46916C16.4106 6.54591 14.6312 6.68511 14.2917 6.6429C14.2777 6.60815 13.3058 4.52395 13.2888 4.48802C13.2505 4.40729 13.2795 4.45496 14.2794 2.77669ZM9.44907 6.67601C9.41097 6.59479 9.4352 6.65028 10.4396 4.96435C10.5149 4.83919 10.5328 4.91734 12.649 4.75073C12.7251 4.74565 12.8091 4.79034 12.846 4.86685C13.7081 6.64982 13.6629 6.64011 13.8177 6.90224C13.8071 6.96469 13.8649 6.83494 12.843 8.53291C12.7915 8.6189 12.7732 8.64396 12.7438 8.65682C12.5243 8.75383 10.6236 8.87167 10.4251 8.82677C10.2728 8.57181 9.66492 7.13089 9.44907 6.67601ZM10.5251 9.35515C11.1505 9.36888 12.4865 9.25116 12.7652 9.19121C13.613 11.0988 13.7444 11.4475 13.9002 11.5551C14.036 11.6482 14.2093 11.6634 14.3596 11.6634C14.7401 11.6634 15.9606 11.6117 16.5247 11.5048L16.9378 12.588H13.4665C12.9493 12.588 12.6264 13.1497 12.8883 13.5992C13.0325 13.9136 13.886 14.9418 13.886 16.6579V16.9153C13.2887 16.0406 12.6588 15.7222 12.2336 15.0458C11.7972 14.3548 11.7796 13.4137 12.1906 12.7044C12.1968 12.6936 12.1956 12.6808 12.2002 12.6694C12.635 12.6866 12.9447 12.428 13.0484 12.1171C13.1625 11.7765 13.0197 11.3743 12.7167 11.1817C12.4006 10.9809 12.2441 10.9932 10.0192 10.8709C10.1743 10.4181 10.3948 9.76794 10.5251 9.35515ZM9.1349 24.0977C8.47339 24.0666 7.81561 23.9335 7.23264 23.7124C5.84462 23.182 4.77246 21.8952 4.50094 20.4337C4.22571 18.9742 4.75993 17.3868 5.86087 16.3905C6.34033 15.9606 6.90796 15.6252 7.32337 15.0922C7.86876 14.3998 8.0492 13.478 7.82305 12.6499L11.5626 12.8165C11.2508 13.627 11.3303 14.5894 11.7938 15.323C12.4586 16.3816 13.6847 16.7702 14.1238 18.762C14.7039 21.3934 12.7877 24.2674 9.1349 24.0977ZM22.5215 15.188L22.5219 21.82C22.4809 22.8797 22.0312 23.0712 21.055 23.0712C20.6662 23.0712 15.2635 23.1015 15.0492 23.0895C14.8546 23.0723 14.6541 22.8471 14.5634 22.6416C14.4121 22.3075 14.3969 21.9138 14.3989 21.5048C14.8506 20.4602 14.8644 19.0829 14.406 17.9051V16.6579C14.406 14.7815 13.4765 13.6425 13.3376 13.3375C13.2789 13.2368 13.3481 13.108 13.4665 13.108H21.1548C21.7002 13.1022 22.0662 13.1249 22.336 13.4746C22.6464 13.8791 22.5215 14.6392 22.5215 15.188Z" fill="#1F7D3A"/>
<path d="M20.3672 19.6352C20.1733 19.735 19.9537 19.8953 19.8021 19.9819C19.2232 20.3217 18.4362 20.4811 17.6909 20.4049C17.1167 20.3451 16.4819 20.1506 15.8605 20.2801C15.3799 20.3715 14.9562 20.6903 14.9834 21.1675C14.994 21.51 14.9905 21.8217 15.1741 22.1139C15.292 22.3081 15.552 22.5403 15.8986 22.5611C15.9731 22.5704 20.2176 22.5548 20.4157 22.5542C21.2917 22.5542 21.9298 22.36 21.9618 21.4795C21.9619 21.4439 21.9655 20.268 21.9653 20.3425C21.9688 20.1726 21.9757 19.9611 21.8752 19.7774C21.6133 19.3118 20.8849 19.36 20.3672 19.6352ZM17.3408 21.8366C17.2506 21.9128 17.1362 21.9544 17.0253 21.9544C16.5827 21.9544 16.3222 21.3211 16.7861 21.0427C17.307 20.7451 17.7951 21.4555 17.3408 21.8366ZM19.7016 21.1641C19.4804 21.1641 19.2996 20.9416 19.348 20.7238C19.3959 20.5001 19.6953 20.3135 19.9581 20.547C20.1973 20.7862 20.007 21.1641 19.7016 21.1641Z" fill="#1F7D3A"/>
<path d="M16.2053 15.7594H18.9675C19.111 15.7594 19.2275 15.6429 19.2275 15.4994C19.2275 15.3558 19.111 15.2394 18.9675 15.2394H16.2053C16.0618 15.2394 15.9453 15.3558 15.9453 15.4994C15.9453 15.6429 16.0618 15.7594 16.2053 15.7594Z" fill="#1F7D3A"/>
<path d="M16.2053 18.3605H18.9675C19.111 18.3605 19.2275 18.244 19.2275 18.1005C19.2275 17.9569 19.111 17.8405 18.9675 17.8405H16.2053C16.0618 17.8405 15.9453 17.9569 15.9453 18.1005C15.9453 18.244 16.0618 18.3605 16.2053 18.3605Z" fill="#1F7D3A"/>
<path d="M20.844 16.0367C20.9875 16.0367 21.104 15.9203 21.104 15.7767V14.6626C21.104 14.519 20.9875 14.4026 20.844 14.4026C20.7004 14.4026 20.584 14.519 20.584 14.6626V15.7767C20.584 15.9203 20.7004 16.0367 20.844 16.0367Z" fill="#1F7D3A"/>
<path d="M20.3449 17.6566C20.4766 17.7101 20.6293 17.6464 20.6835 17.513C20.7112 17.444 20.802 17.3956 20.8744 17.403C20.9482 17.4135 21.0193 17.4876 21.0271 17.5614C21.0686 17.9582 20.0932 18.2271 20.2901 18.6363C20.3334 18.726 20.4245 18.7832 20.5244 18.7832H21.4923C21.6358 18.7832 21.7523 18.6668 21.7523 18.5232C21.7523 18.3797 21.6358 18.2632 21.4923 18.2632H21.213C21.4537 18.0324 21.5711 17.7652 21.5444 17.5079C21.5122 17.1982 21.2553 16.9318 20.9469 16.8884C20.6381 16.8424 20.3182 17.0296 20.2014 17.318C20.1476 17.4511 20.2119 17.6027 20.3449 17.6566Z" fill="#1F7D3A"/>
<path d="M17.813 19.1899C17.4096 19.4252 17.5952 20.0258 18.0341 20.0258C18.4849 20.0258 18.6769 19.4097 18.2429 19.1798C18.1527 19.1163 17.9719 19.0975 17.813 19.1899Z" fill="#1F7D3A"/>
<path d="M12.0719 17.1992C11.8102 16.9724 11.3606 16.7652 10.7048 17.0672C10.3028 17.2524 10.0129 17.5773 9.72677 17.9125C9.07812 18.6712 8.87675 18.755 7.93589 18.8052C7.50425 18.8437 6.97987 18.8456 6.53229 19.1685C6.07188 19.5003 6.01839 19.9007 6.05461 20.1784C6.16667 21.0393 7.2957 21.8809 7.89594 22.1101C9.80874 22.8421 12.1073 22.1216 12.7063 20.0991C12.9324 19.3367 12.7973 17.8279 12.0719 17.1992ZM10.4178 18.0509C10.6301 17.7831 10.9555 17.704 11.0696 17.7528C11.4283 17.7776 11.7171 18.0119 11.8149 18.3005C11.9555 18.7373 11.6711 19.2425 11.229 19.344C10.5383 19.5166 9.9033 18.688 10.4178 18.0509ZM8.66716 20.8139C8.3656 20.6003 8.53515 20.1874 8.84049 20.1656C9.0037 20.1656 9.14998 20.2587 9.20102 20.4117C9.30432 20.71 8.96229 21.0106 8.66716 20.8139Z" fill="#1F7D3A"/>
<path d="M15.9776 9.61696C15.229 9.65082 15.0333 9.66786 14.9985 9.64878C14.957 9.62261 14.7885 9.20845 14.5672 8.70628C14.509 8.57493 14.3556 8.51602 14.2243 8.57324C14.0929 8.63113 14.0333 8.78449 14.0912 8.91618C14.739 10.386 14.502 10.189 16.0006 10.1363C16.1441 10.1299 16.2552 10.0083 16.2488 9.86511C16.2423 9.72157 16.1113 9.60071 15.9776 9.61696Z" fill="#1F7D3A"/>
</svg>
