<svg width="24" height="24" viewBox="0 0 24 24" fill="none" xmlns="http://www.w3.org/2000/svg">
<path d="M10.8605 0.637422C5.35311 0.637422 0.873047 5.11749 0.873047 10.6248C0.873047 16.1322 5.35311 20.6122 10.8605 20.6122C12.544 20.6122 14.1991 20.2127 15.5973 19.4423C15.7093 19.5771 15.8335 19.7012 15.9683 19.8132L18.8218 22.6668C19.0853 22.9633 19.4066 23.2028 19.766 23.3706C20.1254 23.5384 20.5153 23.631 20.9118 23.6427C21.3083 23.6543 21.703 23.5848 22.0716 23.4385C22.4403 23.2921 22.7751 23.0719 23.0556 22.7914C23.3361 22.5109 23.5562 22.1761 23.7026 21.8075C23.849 21.4388 23.9185 21.0441 23.9068 20.6477C23.8951 20.2512 23.8026 19.8613 23.6348 19.5019C23.4669 19.1425 23.2274 18.8212 22.931 18.5577L20.0774 15.7041C19.9384 15.5651 19.7854 15.4408 19.6208 15.3332C20.3913 13.9349 20.8764 12.3084 20.8764 10.5963C20.8764 5.08895 16.3963 0.608887 10.889 0.608887L10.8605 0.637422ZM10.8605 3.49097C14.8269 3.49097 17.9943 6.6584 17.9943 10.6248C17.9943 12.5082 17.3095 14.2488 16.111 15.5329C16.0824 15.5615 16.0539 15.59 16.0254 15.6185C15.8906 15.7305 15.7664 15.8547 15.6544 15.9895C14.3989 17.1309 12.6867 17.7872 10.8319 17.7872C6.86549 17.7872 3.69806 14.6198 3.69806 10.6534C3.69806 6.68694 6.86549 3.5195 10.8319 3.5195L10.8605 3.49097Z" fill="#020202"/>
</svg>
