<svg width="33" height="32" viewBox="0 0 33 32" fill="none" xmlns="http://www.w3.org/2000/svg">
<path d="M23.4007 31.9999H9.78376C8.65552 31.9999 7.74121 31.0856 7.74121 29.9573V11.5743C7.74071 9.81204 8.82208 8.23025 10.4644 7.59146V4.76599H22.7198V7.59146C24.3621 8.23025 25.4438 9.81204 25.4433 11.5743V29.9573C25.4433 31.0856 24.5287 31.9999 23.4007 31.9999ZM11.8263 6.12761V8.62121L11.3072 8.74887C10.0109 9.07326 9.10183 10.2384 9.10283 11.5743V29.9573C9.10283 30.3333 9.40777 30.6382 9.78376 30.6382H23.4007C23.7767 30.6382 24.0816 30.3333 24.0816 29.9573V11.5743C24.0824 10.2384 23.1736 9.07326 21.8773 8.74887L21.3581 8.62121V6.12761H11.8263Z" fill="#1F7D3A"/>
<path d="M22.7197 6.12766H10.4644C9.33644 6.12766 8.42188 5.2131 8.42188 4.08511V2.04255C8.42188 0.914561 9.33644 0 10.4644 0H22.7197C23.848 0 24.7623 0.914561 24.7623 2.04255V4.08511C24.7623 5.2131 23.848 6.12766 22.7197 6.12766ZM10.4644 1.36162C10.0884 1.36162 9.78374 1.66656 9.78374 2.04255V4.08511C9.78374 4.4611 10.0884 4.76604 10.4644 4.76604H22.7197C23.0957 4.76604 23.4007 4.4611 23.4007 4.08511V2.04255C23.4007 1.66656 23.0957 1.36162 22.7197 1.36162H10.4644Z" fill="#1F7D3A"/>
<path d="M25.4433 25.1916H7.74121V14.2979H25.4433V25.1916ZM9.10283 23.8297H24.0816V15.6595H9.10283V23.8297Z" fill="#1F7D3A"/>
</svg>
