<svg width="33" height="33" viewBox="0 0 33 33" fill="none" xmlns="http://www.w3.org/2000/svg">
<path d="M26.2828 0.689791C25.824 0.231007 25.0799 0.231007 24.6211 0.689791C24.1623 1.14857 24.1623 1.89272 24.6211 2.3515L25.8515 3.56728L24.6569 4.76104L22.3529 2.45702C21.8867 2.01292 21.1554 2.01292 20.6911 2.45702C20.2324 2.91581 20.2324 3.65904 20.6893 4.11782C20.6893 4.11782 20.6911 4.11782 20.6911 4.11874L21.4885 4.91702L19.3643 7.05679L17.1126 9.30575L10.3612 16.0572L8.12139 18.3135L5.68525 20.7506C5.51274 20.9231 5.51274 21.2002 5.68525 21.3727L6.87992 22.5673L5.37419 24.0731C5.20169 24.2447 5.20169 24.5236 5.37419 24.6961L6.29818 25.6201L0.278022 31.6292C0.124788 31.8183 0.155068 32.0954 0.344087 32.2486C0.49365 32.3688 0.704691 32.378 0.865265 32.2715L0.885452 32.2513L6.90653 26.2449L7.82868 27.1708C8.00027 27.3414 8.27737 27.3414 8.44987 27.1708L9.9556 25.665L11.1503 26.8588C11.3228 27.0304 11.6008 27.0304 11.7733 26.8588L27.5885 11.0427L28.3904 11.8447C28.8492 12.3034 29.5934 12.3034 30.0522 11.8447C30.5109 11.3859 30.5109 10.6417 30.0522 10.1829L27.7472 7.87893L28.9419 6.68426L30.1724 7.9138C30.6311 8.37258 31.3744 8.37258 31.8332 7.9138C32.2919 7.45501 32.2919 6.71178 31.8332 6.253L26.2828 0.689791ZM8.14157 26.2275L6.29267 24.3777L7.48735 23.1839L9.33624 25.0328L8.14157 26.2275ZM11.465 25.9137L10.2731 24.7392L7.7984 22.2563L6.60648 21.0653L8.41501 19.2476L9.85926 20.6909C10.0483 20.8451 10.3263 20.8148 10.4786 20.6258C10.5988 20.4753 10.6089 20.2642 10.5016 20.1055L10.4694 20.0697L9.03161 18.6255L10.6612 16.9959L12.1045 18.4401C12.2936 18.5934 12.5716 18.564 12.7239 18.375C12.8459 18.2245 12.8551 18.0135 12.7478 17.8529L12.7276 17.8318L11.2824 16.3884L12.912 14.7588L14.3654 16.1884C14.5003 16.3903 14.7728 16.4453 14.9765 16.3105C15.1784 16.1747 15.2316 15.9021 15.0976 15.6994C15.0729 15.6626 15.0426 15.6296 15.0086 15.6021L14.9875 15.581L13.5424 14.134L15.1665 12.4961L16.6107 13.9404C16.8062 14.0844 17.0814 14.0422 17.2264 13.8468C17.342 13.689 17.3402 13.4733 17.2209 13.3183L15.7822 11.8731L17.4118 10.2453L18.856 11.6887C18.9909 11.8905 19.2652 11.9456 19.4671 11.8107C19.669 11.6749 19.724 11.4024 19.5891 11.1987C19.5634 11.162 19.5341 11.129 19.4992 11.1014L18.0348 9.63699L19.6607 8.01106L21.116 9.43787C21.2518 9.63974 21.5252 9.69479 21.7271 9.55899C21.9289 9.42411 21.984 9.14976 21.8491 8.94789C21.8253 8.91119 21.7941 8.87816 21.7592 8.85063L21.739 8.82953L20.2947 7.38252L22.1097 5.56849L26.971 10.4298L11.465 25.9137ZM29.4328 10.8023C29.5466 10.917 29.5466 11.1014 29.4328 11.2161C29.3181 11.3299 29.1337 11.3299 29.019 11.2161L27.9087 10.1059L22.4226 4.6234L21.3132 3.51314C21.1976 3.39845 21.1976 3.21127 21.3132 3.09657C21.4279 2.98187 21.6151 2.98187 21.7298 3.09657L26.8168 8.18448L29.4328 10.8023ZM27.1279 7.25315L25.279 5.40425L26.4727 4.20958L28.3225 6.05939L27.1279 7.25315ZM31.2138 7.28801C31.1 7.40179 30.9147 7.40179 30.8 7.28801L25.2432 1.73215C25.1285 1.61653 25.1285 1.43027 25.2432 1.31465C25.3579 1.19996 25.5451 1.19996 25.6598 1.31465L31.2138 6.87236C31.3285 6.98614 31.3285 7.17148 31.2138 7.28618V7.28801Z" fill="#1F7D3A"/>
</svg>
