<svg width="33" height="33" viewBox="0 0 33 33" fill="none" xmlns="http://www.w3.org/2000/svg">
<path d="M31.9222 16.2488H16.0921C16.1352 16.1861 16.1769 16.1219 16.2156 16.0548L20.8423 8.04185L20.9506 8.10434C21.049 8.16116 21.1565 8.18822 21.2625 8.18822C21.4785 8.18822 21.6886 8.07609 21.8043 7.8756C21.977 7.57672 21.8745 7.19447 21.5756 7.02185L20.6013 6.45929L22.0388 3.9698L22.1471 4.0323C22.2455 4.08911 22.353 4.11617 22.459 4.11617C22.675 4.11617 22.8851 4.00405 23.0008 3.80355C23.1735 3.50468 23.071 3.12243 22.7721 2.9498L19.3083 0.949623C19.0093 0.776936 18.6271 0.879374 18.4545 1.17837C18.2819 1.47725 18.3843 1.85949 18.6832 2.03212L18.7915 2.09462L17.354 4.58417L16.3797 4.02161C16.0809 3.84905 15.6986 3.95136 15.5259 4.25036C15.3533 4.54923 15.4557 4.93148 15.7547 5.10411L15.8629 5.16661L11.2361 13.1796C10.6641 14.1703 10.7508 15.3633 11.3591 16.2487H1.17236C0.827175 16.2487 0.547363 16.5286 0.547363 16.8737V32.2407C0.547363 32.5858 0.827175 32.8657 1.17236 32.8657H31.9222C32.2674 32.8657 32.5472 32.5858 32.5472 32.2407V16.8737C32.5472 16.5286 32.2674 16.2488 31.9222 16.2488ZM31.2972 20.9328C29.1904 22.0305 26.6522 21.9747 24.5901 20.7631C22.0358 19.2625 18.8624 19.2625 16.3081 20.7631C14.5518 21.7949 12.4499 21.9892 10.5634 21.3458L12.7839 17.4987H31.2972V20.9328ZM19.874 2.71974L20.9565 3.3448L19.519 5.83435L18.4365 5.20936L19.874 2.71974ZM12.3186 13.8047L16.9454 5.79173L19.7599 7.41685L18.9566 8.80809L18.3937 8.48309C18.0947 8.31041 17.7125 8.41291 17.5399 8.71184C17.3673 9.01072 17.4697 9.39296 17.7687 9.56559L18.3315 9.89059L17.4079 11.4902L16.845 11.1652C16.546 10.9926 16.1639 11.095 15.9912 11.394C15.8186 11.6928 15.9211 12.0751 16.22 12.2477L16.7829 12.5727L15.8592 14.1724L15.2963 13.8474C14.9973 13.6748 14.6152 13.7773 14.4425 14.0761C14.2699 14.375 14.3723 14.7573 14.6712 14.9299L15.2341 15.2549L15.1331 15.4299C14.6851 16.2058 13.6892 16.4727 12.9133 16.0246C12.9133 16.0246 12.9133 16.0246 12.9132 16.0245C12.1374 15.5764 11.8706 14.5806 12.3186 13.8047ZM11.3406 17.4987L9.41614 20.8329C9.37489 20.8098 9.33345 20.7871 9.29252 20.7631C6.99465 19.4131 4.19585 19.2784 1.79736 20.3574V17.4988H11.3406V17.4987ZM1.79736 31.6158V21.754C3.93372 20.571 6.54653 20.5994 8.65933 21.8409C9.93645 22.5912 11.3684 22.9663 12.8003 22.9663C14.2322 22.9663 15.6641 22.5912 16.9412 21.8409C19.1049 20.5696 21.7931 20.5696 23.9568 21.8409C26.2054 23.1619 28.9338 23.3193 31.2972 22.3145V31.6158L1.79736 31.6158Z" fill="#1F7D3A"/>
<path d="M9.77941 28.0537C9.42429 28.0537 9.13647 28.3416 9.13647 28.6966C9.13647 29.0518 9.42435 29.3396 9.77941 29.3396C10.1345 29.3396 10.4223 29.0518 10.4223 28.6966C10.4223 28.3416 10.1345 28.0537 9.77941 28.0537Z" fill="#1F7D3A"/>
<path d="M25.8517 25.8431C26.2068 25.8431 26.4946 25.5553 26.4946 25.2002C26.4946 24.8451 26.2068 24.5573 25.8517 24.5573C25.4966 24.5573 25.2087 24.8451 25.2087 25.2002C25.2087 25.5553 25.4966 25.8431 25.8517 25.8431Z" fill="#1F7D3A"/>
<path d="M28.1546 27.5537C27.6177 27.5537 27.1824 27.989 27.1824 28.526C27.1824 29.0629 27.6177 29.4982 28.1546 29.4982C28.6916 29.4982 29.1269 29.0629 29.1269 28.526C29.1269 27.989 28.6916 27.5537 28.1546 27.5537Z" fill="#1F7D3A"/>
<path d="M13.4041 24.8347C12.7681 24.8347 12.2524 25.3503 12.2524 25.9864C12.2524 26.6225 12.7681 27.138 13.4041 27.138C14.0402 27.138 14.5558 26.6224 14.5558 25.9864C14.5558 25.3504 14.0402 24.8347 13.4041 24.8347Z" fill="#1F7D3A"/>
<path d="M6.88264 24.9777C6.95993 24.2008 6.39283 23.5084 5.61597 23.4311C4.83912 23.3538 4.14669 23.9209 4.0694 24.6978C3.9921 25.4746 4.55921 26.167 5.33606 26.2443C6.11292 26.3216 6.80534 25.7545 6.88264 24.9777Z" fill="#1F7D3A"/>
<path d="M22.1864 26.201H22.1607C22.1096 26.0181 22.0369 25.8442 21.9452 25.6823L21.9637 25.6637C22.2078 25.4197 22.2078 25.0239 21.9637 24.7798C21.7197 24.5358 21.3239 24.5358 21.0798 24.7798L21.0612 24.7984C20.8993 24.7067 20.7255 24.6339 20.5426 24.5829V24.5573C20.5426 24.2121 20.2627 23.9323 19.9176 23.9323C19.5724 23.9323 19.2926 24.2121 19.2926 24.5573V24.5829C19.1096 24.6339 18.9357 24.7067 18.7738 24.7984L18.7552 24.7798C18.5111 24.5358 18.1154 24.5358 17.8712 24.7798C17.6272 25.0238 17.6272 25.4196 17.8712 25.6637L17.8899 25.6823C17.7982 25.8442 17.7254 26.0181 17.6744 26.201H17.6487C17.3035 26.201 17.0237 26.4809 17.0237 26.826C17.0237 27.1711 17.3035 27.451 17.6487 27.451H17.6744C17.7254 27.6339 17.7982 27.8078 17.8899 27.9697L17.8712 27.9884C17.6272 28.2324 17.6272 28.6282 17.8712 28.8723C17.9933 28.9943 18.1532 29.0554 18.3132 29.0554C18.4731 29.0554 18.6331 28.9943 18.7551 28.8723L18.7737 28.8537C18.9357 28.9454 19.1095 29.0181 19.2924 29.0692V29.0949C19.2924 29.44 19.5722 29.7199 19.9174 29.7199C20.2626 29.7199 20.5424 29.44 20.5424 29.0949V29.0692C20.7254 29.0182 20.8992 28.9454 21.0611 28.8538L21.0797 28.8724C21.2018 28.9944 21.3617 29.0554 21.5217 29.0554C21.6816 29.0554 21.8416 28.9944 21.9636 28.8724C22.2077 28.6283 22.2077 28.2326 21.9636 27.9884L21.945 27.9698C22.0367 27.8079 22.1095 27.634 22.1605 27.4511H22.1862C22.5314 27.4511 22.8112 27.1712 22.8112 26.8261C22.8112 26.4809 22.5316 26.201 22.1864 26.201ZM19.9176 27.9049C19.3227 27.9049 18.8386 27.4209 18.8386 26.8259C18.8386 26.2309 19.3227 25.7469 19.9176 25.7469C20.5126 25.7469 20.9966 26.2309 20.9966 26.8259C20.9966 27.4209 20.5126 27.9049 19.9176 27.9049Z" fill="#1F7D3A"/>
</svg>
