<svg width="33" height="33" viewBox="0 0 33 33" fill="none" xmlns="http://www.w3.org/2000/svg">
<path fill-rule="evenodd" clip-rule="evenodd" d="M3.97893 8.69439L4.58858 11.0274C4.8557 12.2551 5.79583 13.1653 7.00373 13.6768C8.2171 14.1907 9.7434 14.3264 11.3018 13.9932C12.8602 13.66 14.1975 12.9119 15.0946 11.9467C15.9904 10.9829 16.474 9.75229 16.2102 8.51882L15.5325 5.92552C15.2654 4.69782 14.3253 3.78764 13.1174 3.27609C11.904 2.76222 10.3777 2.62649 8.81933 2.95972C7.26093 3.29297 5.9236 4.04104 5.0265 5.00622C4.1307 5.97002 3.65215 7.04589 3.97893 8.69439ZM5.75898 5.68702C5.0197 6.48242 4.65215 7.29589 4.90215 8.29589C5.15215 9.17089 5.77843 9.75674 6.6804 10.1478L12.0991 3.98089C11.2034 3.73752 10.1377 3.70042 9.02843 3.93762C7.6463 4.23317 6.5001 4.88964 5.75898 5.68702ZM13.0889 4.36982L7.72288 10.4676C8.5338 10.6276 9.45825 10.6271 10.4151 10.4224C11.7973 10.1269 12.9435 9.47042 13.6846 8.67304C14.427 7.87429 14.734 6.97337 14.5571 6.14607C14.4024 5.42272 13.8871 4.79934 13.0889 4.36982ZM14.417 9.35384C14.7019 9.04737 14.9453 8.71504 15.1363 8.36462C15.5272 9.42089 15.1014 10.4705 14.3621 11.2659C13.621 12.0633 12.4748 12.7198 11.0927 13.0153C9.71058 13.3109 8.39613 13.1805 7.3937 12.756C6.38955 12.3307 5.52603 11.6709 5.52603 10.6595C5.77455 10.8222 6.043 10.964 6.32615 11.084C7.53953 11.5979 9.06583 11.7336 10.6242 11.4003C12.1826 11.0671 13.52 10.319 14.417 9.35384Z" fill="#1F7D3A"/>
<path d="M4.09698 18.8565C3.49846 19.4418 3.18066 20.1189 3.18066 20.81C3.18066 21.7274 3.74058 22.6199 4.77368 23.3062C5.80313 23.9899 7.25426 24.4291 8.88218 24.4291C9.86841 24.4291 10.7927 24.2678 11.5983 23.9866C11.859 23.8955 12.1441 24.0331 12.2351 24.2938C12.3261 24.5546 12.1885 24.8397 11.9278 24.9307C11.0118 25.2504 9.97581 25.4291 8.88218 25.4291C7.08511 25.4291 5.43546 24.9462 4.22041 24.1391C3.82878 23.879 3.47718 23.581 3.18066 23.251C3.02673 24.5459 3.74058 25.5229 4.77368 26.2091C5.80313 26.8929 7.25426 27.3319 8.88218 27.3319C10.3312 27.3319 11.6423 26.9839 12.6401 26.4231C12.8809 26.2879 13.1857 26.3734 13.321 26.6141C13.4562 26.8549 13.3707 27.1599 13.13 27.2951C11.9674 27.9481 10.4845 28.3319 8.88218 28.3319C7.08511 28.3319 5.43546 27.8491 4.22041 27.0421C3.00901 26.2374 2.18066 25.0704 2.18066 23.7129V20.81C2.18066 19.4525 3.00901 18.2855 4.22041 17.4809C5.43546 16.6738 7.08511 16.1909 8.88218 16.1909C10.3183 16.1909 11.6571 16.4991 12.7555 17.0322C13.0039 17.1527 13.1075 17.4519 12.987 17.7003C12.8664 17.9487 12.5673 18.0524 12.3188 17.9318C11.3673 17.47 10.1794 17.1909 8.88218 17.1909C7.36276 17.1909 5.99736 17.5735 4.98508 18.1805L11.4531 21.3848C11.7005 21.5074 11.8017 21.8073 11.6792 22.0548C11.5566 22.3022 11.2566 22.4034 11.0092 22.2809L4.09698 18.8565Z" fill="#1F7D3A"/>
<path fill-rule="evenodd" clip-rule="evenodd" d="M13.6181 25.3202C12.4854 24.1115 12.2399 22.3714 12.6548 20.6114C13.0708 18.8471 14.1586 16.9997 15.7982 15.4631C17.4378 13.9266 19.3518 12.9607 21.1394 12.66C22.9223 12.3601 24.6425 12.7177 25.775 13.9257L25.7758 13.9264L28.513 16.8294C29.6458 18.038 29.8913 19.7781 29.4763 21.5381C29.0603 23.3024 27.9725 25.1497 26.333 26.6864C24.6933 28.2229 22.7793 29.1887 20.9918 29.4894C19.2088 29.7894 17.4886 29.4317 16.3559 28.2237L16.3554 28.2232L13.6181 25.3202ZM25.871 17.8539C26.062 16.534 25.7775 15.3908 25.0461 14.6102C24.2144 13.7228 22.8774 13.3817 21.3053 13.6462C19.7375 13.9099 17.9982 14.7719 16.482 16.1928C15.27 17.3287 14.4051 18.6301 13.9205 19.897L25.871 17.8539ZM14.3472 24.6358C13.5384 23.7723 13.2765 22.4653 13.5998 20.9663L25.6268 18.9099C25.185 20.312 24.2646 21.7859 22.9118 23.0537C21.3956 24.4746 19.6564 25.3367 18.0886 25.6004C16.5246 25.8634 15.1934 25.5274 14.3608 24.6502L14.3477 24.6363L14.3472 24.6358ZM26.907 16.5838C26.9643 17.2432 26.9035 17.9376 26.739 18.6352C26.323 20.3995 25.2352 22.2468 23.5956 23.7834C21.956 25.3199 20.042 26.2859 18.2545 26.5864C17.5573 26.7039 16.8698 26.7207 16.2232 26.6252L17.085 27.5392C17.9167 28.4267 19.2537 28.7679 20.8259 28.5034C22.3937 28.2397 24.1329 27.3777 25.649 25.9567C27.1653 24.5358 28.1383 22.8561 28.503 21.3086C28.8688 19.7573 28.6153 18.4013 27.784 17.5138L27.7835 17.5132L26.907 16.5838Z" fill="#1F7D3A"/>
</svg>
