<svg width="33" height="33" viewBox="0 0 33 33" fill="none" xmlns="http://www.w3.org/2000/svg">
<g clip-path="url(#clip0_231_669)">
<path d="M15.2786 31.5317H0.0439453V13.7435C0.0439453 12.4792 0.489699 11.2483 1.29911 10.2766C1.63358 9.87521 1.88656 9.42094 2.05136 8.92593L2.55975 7.40137H12.7628L13.2712 8.92593C13.436 9.42094 13.6896 9.87521 14.0235 10.2766C14.8329 11.2477 15.2786 12.4792 15.2786 13.7435V31.5317ZM0.908087 30.6675H14.4145V13.7435C14.4145 12.6811 14.0399 11.6461 13.3594 10.83C12.9562 10.3459 12.6503 9.79737 12.4509 9.19959L12.1395 8.26551H3.18246L2.87111 9.19959C2.67164 9.79737 2.36636 10.3459 1.96257 10.83C1.28208 11.6461 0.907479 12.6811 0.907479 13.7435V30.6675H0.908087Z" fill="#1F7D3A"/>
<path d="M14.1621 8.26545H1.16046C0.545038 8.26545 0.0439453 7.76435 0.0439453 7.14893V1.67462C0.0439453 1.0592 0.545038 0.558105 1.16046 0.558105H14.1621C14.7775 0.558105 15.2786 1.0592 15.2786 1.67462V7.14893C15.2786 7.76435 14.7775 8.26545 14.1621 8.26545ZM1.16046 1.42225C1.0212 1.42225 0.908087 1.53536 0.908087 1.67462V7.14893C0.908087 7.28819 1.0212 7.4013 1.16046 7.4013H14.1621C14.3014 7.4013 14.4145 7.28819 14.4145 7.14893V1.67462C14.4145 1.53536 14.3014 1.42225 14.1621 1.42225H1.16046Z" fill="#1F7D3A"/>
<path d="M2.09668 2.0166H2.96082V6.80678H2.09668V2.0166Z" fill="#1F7D3A"/>
<path d="M4.14941 2.0166H5.01356V6.80678H4.14941V2.0166Z" fill="#1F7D3A"/>
<path d="M6.20215 2.0166H7.06629V6.80678H6.20215V2.0166Z" fill="#1F7D3A"/>
<path d="M8.25488 2.0166H9.11902V6.80678H8.25488V2.0166Z" fill="#1F7D3A"/>
<path d="M10.3086 2.0166H11.1727V6.80678H10.3086V2.0166Z" fill="#1F7D3A"/>
<path d="M12.3613 2.0166H13.2255V6.80678H12.3613V2.0166Z" fill="#1F7D3A"/>
<path d="M15.279 27.0839H4.15039V14.5864H15.279V27.0839ZM5.01453 26.2198H14.4149V15.4506H5.01453V26.2198Z" fill="#1F7D3A"/>
<path d="M6.63477 17.3232H14.8462V18.1874H6.63477V17.3232Z" fill="#1F7D3A"/>
<path d="M6.63477 20.0605H14.8462V20.9247H6.63477V20.0605Z" fill="#1F7D3A"/>
<path d="M21.4927 31.3905C20.9758 31.3905 20.4796 31.3534 20.0126 31.2792C18.2745 31.0019 17.1228 30.2314 16.7688 29.1094C16.4149 27.9874 16.9166 26.6958 18.1815 25.4716C19.3698 24.3217 21.1133 23.345 23.0915 22.7211C25.0697 22.0972 27.0583 21.8971 28.6911 22.158C30.4291 22.4353 31.5809 23.2058 31.9348 24.3278C32.6414 26.5693 29.8641 29.3752 25.6128 30.7161C24.2001 31.1612 22.7819 31.3905 21.4927 31.3905ZM27.206 22.9102C26.0074 22.9102 24.6805 23.1261 23.3512 23.5451C21.4988 24.1289 19.8757 25.0338 18.7823 26.0919C17.7801 27.0619 17.3466 28.0671 17.5928 28.8491C17.8391 29.6312 18.7708 30.2059 20.1482 30.4254C21.6508 30.665 23.4989 30.4759 25.3513 29.8915C29.0146 28.7366 31.6514 26.3072 31.109 24.5874C30.8627 23.8054 29.931 23.2307 28.5536 23.0112C28.1298 22.9437 27.6779 22.9102 27.206 22.9102Z" fill="#1F7D3A"/>
<path d="M22.8223 23.2622L23.6467 23.0021L25.3955 28.5448L24.5711 28.8049L22.8223 23.2622Z" fill="#1F7D3A"/>
<path d="M18.4738 24.0152C18.3643 22.1337 19.386 19.5918 21.1398 17.3819C23.911 13.89 27.5245 12.2986 29.3653 13.7599C31.0157 15.0698 30.6071 18.3907 28.3935 21.6563L27.6783 21.1717C28.6337 19.7626 29.2649 18.2831 29.4559 17.006C29.6341 15.8123 29.4115 14.9001 28.8283 14.4373C27.4156 13.3166 24.2048 14.911 21.8167 17.9194C20.1893 19.97 19.2388 22.287 19.3367 23.9654L18.4738 24.0152Z" fill="#1F7D3A"/>
<path d="M21.2129 18.0005L21.7504 17.3239L26.2991 20.9373L25.7616 21.6139L21.2129 18.0005Z" fill="#1F7D3A"/>
</g>
<defs>
<clipPath id="clip0_231_669">
<rect width="32" height="32" fill="white" transform="translate(0.0439453 0.0449219)"/>
</clipPath>
</defs>
</svg>
