<svg width="33" height="33" viewBox="0 0 33 33" fill="none" xmlns="http://www.w3.org/2000/svg">
<g clip-path="url(#clip0_231_1800)">
<path d="M15.9512 10.2266C16.2273 10.2266 16.4512 10.0027 16.4512 9.72656C16.4512 9.45042 16.2273 9.22656 15.9512 9.22656C15.675 9.22656 15.4512 9.45042 15.4512 9.72656C15.4512 10.0027 15.675 10.2266 15.9512 10.2266Z" fill="#1F7D3A"/>
<path d="M10.4512 10.2266C10.7273 10.2266 10.9512 10.0027 10.9512 9.72656C10.9512 9.45042 10.7273 9.22656 10.4512 9.22656C10.175 9.22656 9.95117 9.45042 9.95117 9.72656C9.95117 10.0027 10.175 10.2266 10.4512 10.2266Z" fill="#1F7D3A"/>
<path d="M29.8032 19.2266H24.7457C23.9607 19.2266 23.2782 19.7501 23.0542 20.4891C22.4337 19.8776 21.6752 19.4136 20.8417 19.1531L16.7012 17.8591V15.9581C17.7977 15.0486 18.5402 13.7256 18.6757 12.2271H18.9512C19.9162 12.2271 20.7012 11.4421 20.7012 10.4771C20.7012 10.0021 20.5097 9.57206 20.2012 9.25606V4.72656C20.2012 2.79656 18.6312 1.22656 16.7012 1.22656H9.70117C7.77117 1.22656 6.20117 2.79656 6.20117 4.72656V9.25556C5.89267 9.57106 5.70117 10.0016 5.70117 10.4766C5.70117 11.4416 6.48617 12.2266 7.45117 12.2266H7.72667C7.86267 13.7251 8.60467 15.0481 9.70117 15.9576V17.8586L5.56067 19.1526C3.25217 19.8741 1.70117 21.9836 1.70117 24.4026V31.7266C1.70117 32.0026 1.92517 32.2266 2.20117 32.2266H22.6172C23.7747 32.2266 24.7727 31.4016 24.9902 30.2641L26.2662 23.5866L30.3342 21.9181C30.8587 21.7031 31.2017 21.1921 31.2017 20.6246C31.2017 19.8526 30.5757 19.2266 29.8037 19.2266H29.8032ZM19.7012 10.4766C19.7012 10.8901 19.3647 11.2266 18.9512 11.2266H18.7012V9.72656H18.9512C19.3647 9.72656 19.7012 10.0631 19.7012 10.4766ZM18.7012 8.72656V8.22656H19.2012V8.75206C19.1187 8.74006 19.0367 8.72656 18.9512 8.72656H18.7012ZM7.20117 4.72656C7.20117 3.34806 8.32267 2.22656 9.70117 2.22656H16.7012C18.0797 2.22656 19.2012 3.34806 19.2012 4.72656V5.22656H7.20117V4.72656ZM7.70117 11.2266H7.45117C7.03767 11.2266 6.70117 10.8901 6.70117 10.4766C6.70117 10.0631 7.03767 9.72656 7.45117 9.72656H7.70117V11.2266ZM7.70117 8.72656H7.45117C7.36567 8.72656 7.28367 8.74006 7.20117 8.75206V8.22656H7.70117V8.72656ZM7.20117 7.22656V6.22656H19.2012V7.22656H7.20117ZM8.70117 8.22656H17.7012V11.5546L14.2072 10.5061C13.5492 10.3086 12.8532 10.3086 12.1957 10.5061L8.70117 11.5546V8.22656ZM8.78367 12.5736L12.4827 11.4641C12.9522 11.3231 13.4492 11.3231 13.9197 11.4641L17.6187 12.5736C17.2212 14.6506 15.3927 16.2266 13.2012 16.2266C11.0097 16.2266 9.18167 14.6511 8.78367 12.5736ZM8.70117 23.7266C8.97667 23.7266 9.20117 23.9511 9.20117 24.2266C9.20117 24.5021 8.97667 24.7266 8.70117 24.7266C8.42567 24.7266 8.20117 24.5021 8.20117 24.2266C8.20117 23.9511 8.42567 23.7266 8.70117 23.7266ZM5.20117 31.2266H2.70117V28.2266H5.20117V31.2266ZM12.7012 31.2266H6.20117V24.2266C6.20117 23.9506 5.97717 23.7266 5.70117 23.7266C5.42517 23.7266 5.20117 23.9506 5.20117 24.2266V27.2266H2.70117V24.4026C2.70117 22.4236 3.97017 20.6976 5.85867 20.1076L8.20117 19.3756V22.8186C7.62067 23.0256 7.20117 23.5756 7.20117 24.2266C7.20117 25.0536 7.87417 25.7266 8.70117 25.7266C9.52817 25.7266 10.2012 25.0536 10.2012 24.2266C10.2012 23.5756 9.78167 23.0256 9.20117 22.8186V19.0631L10.1227 18.7751L12.7012 20.4941V31.2266ZM10.7012 17.9591V16.6236C11.4517 17.0086 12.3012 17.2266 13.2012 17.2266C14.1012 17.2266 14.9507 17.0086 15.7012 16.6236V17.9591L13.2012 19.6256L10.7012 17.9591ZM20.6687 31.2266H13.7012V20.4941L16.2797 18.7751L17.2012 19.0631V20.7721C15.7847 21.0111 14.7012 22.2431 14.7012 23.7271V25.2271C14.7012 26.0541 15.3742 26.7271 16.2012 26.7271C16.4772 26.7271 16.7012 26.5031 16.7012 26.2271C16.7012 25.9511 16.4772 25.7271 16.2012 25.7271C15.9252 25.7271 15.7012 25.5026 15.7012 25.2271V23.7271C15.7012 22.6241 16.5982 21.7271 17.7012 21.7271C18.8042 21.7271 19.7012 22.6241 19.7012 23.7271V25.2271C19.7012 25.5026 19.4767 25.7271 19.2012 25.7271C18.9257 25.7271 18.7012 25.9511 18.7012 26.2271C18.7012 26.5031 18.9252 26.7271 19.2012 26.7271C20.0282 26.7271 20.7012 26.0541 20.7012 25.2271V23.7271C20.7012 22.2436 19.6177 21.0116 18.2012 20.7721V19.3756L20.5437 20.1076C21.4392 20.3876 22.2297 20.9536 22.7952 21.7076L22.7207 22.0801L20.8492 26.5721C20.4192 27.6036 20.2012 28.6931 20.2012 29.8111C20.2012 30.3411 20.3782 30.8276 20.6687 31.2266ZM29.8962 21.0166L25.6357 22.7641C25.4797 22.8281 25.3657 22.9671 25.3342 23.1331L24.0072 30.0771C23.8802 30.7436 23.2952 31.2271 22.6167 31.2271C21.8357 31.2271 21.2007 30.5921 21.2007 29.8111C21.2007 28.8261 21.3927 27.8656 21.7717 26.9571L23.6622 22.4196C23.6747 22.3891 23.6847 22.3576 23.6912 22.3256L23.9862 20.8501C24.0587 20.4891 24.3777 20.2276 24.7457 20.2276H29.8032C29.9167 20.2276 30.0212 20.2736 30.0972 20.3576C30.1732 20.4411 30.2097 20.5506 30.1987 20.6651C30.1857 20.8066 30.0637 20.9481 29.8957 21.0171L29.8962 21.0166Z" fill="#1F7D3A"/>
<path d="M30.7012 6.63456C31.2817 6.42756 31.7012 5.87756 31.7012 5.22656C31.7012 4.39956 31.0282 3.72656 30.2012 3.72656H25.2012C24.3742 3.72656 23.7012 4.39956 23.7012 5.22656C23.7012 5.87756 24.1207 6.42756 24.7012 6.63456V7.52756C24.0547 8.24656 23.7012 9.16656 23.7012 10.1411V14.7266C23.7012 15.8296 24.5982 16.7266 25.7012 16.7266H29.7012C30.8042 16.7266 31.7012 15.8296 31.7012 14.7266V10.1411C31.7012 9.16656 31.3477 8.24656 30.7012 7.52756V6.63456ZM25.2012 4.72656H30.2012C30.4767 4.72656 30.7012 4.95106 30.7012 5.22656C30.7012 5.50206 30.4767 5.72656 30.2012 5.72656H25.2012C24.9257 5.72656 24.7012 5.50206 24.7012 5.22656C24.7012 4.95106 24.9257 4.72656 25.2012 4.72656ZM29.8477 8.08006C30.2987 8.53156 30.5807 9.10556 30.6687 9.72656H24.7337C24.8217 9.10556 25.1037 8.53156 25.5547 8.08006C25.6487 7.98606 25.7012 7.85906 25.7012 7.72656V6.72656H29.7012V7.72656C29.7012 7.85906 29.7537 7.98656 29.8477 8.08006ZM30.7012 14.7266C30.7012 15.2781 30.2527 15.7266 29.7012 15.7266H25.7012C25.1497 15.7266 24.7012 15.2781 24.7012 14.7266V10.7266H30.7012V14.7266Z" fill="#1F7D3A"/>
<path d="M26.4512 13.7266H27.2012V14.4766C27.2012 14.7526 27.4252 14.9766 27.7012 14.9766C27.9772 14.9766 28.2012 14.7526 28.2012 14.4766V13.7266H28.9512C29.2272 13.7266 29.4512 13.5026 29.4512 13.2266C29.4512 12.9506 29.2272 12.7266 28.9512 12.7266H28.2012V11.9766C28.2012 11.7006 27.9772 11.4766 27.7012 11.4766C27.4252 11.4766 27.2012 11.7006 27.2012 11.9766V12.7266H26.4512C26.1752 12.7266 25.9512 12.9506 25.9512 13.2266C25.9512 13.5026 26.1752 13.7266 26.4512 13.7266Z" fill="#1F7D3A"/>
</g>
<defs>
<clipPath id="clip0_231_1800">
<rect width="32" height="32" fill="white" transform="translate(0.701172 0.726562)"/>
</clipPath>
</defs>
</svg>
