<svg width="71" height="71" viewBox="0 0 71 71" fill="none" xmlns="http://www.w3.org/2000/svg">
<path d="M35.5843 46.0579C33.438 46.0579 31.3399 45.4214 29.5553 44.229C27.7707 43.0366 26.3798 41.3417 25.5585 39.3588C24.7371 37.3759 24.5222 35.1939 24.9409 33.0889C25.3597 30.9838 26.3932 29.0502 27.9109 27.5325C29.4285 26.0149 31.3622 24.9813 33.4672 24.5626C35.5723 24.1439 37.7542 24.3588 39.7372 25.1801C41.7201 26.0015 43.4149 27.3924 44.6073 29.177C45.7998 30.9616 46.4362 33.0597 46.4362 35.206C46.433 38.0831 45.2886 40.8414 43.2542 42.8758C41.2198 44.9102 38.4614 46.0546 35.5843 46.0579ZM35.5843 26.246C33.8122 26.246 32.0799 26.7715 30.6064 27.756C29.1329 28.7405 27.9845 30.1399 27.3064 31.7771C26.6282 33.4143 26.4508 35.2159 26.7965 36.954C27.1422 38.692 27.9956 40.2886 29.2486 41.5416C30.5017 42.7947 32.0982 43.6481 33.8363 43.9938C35.5744 44.3395 37.3759 44.1621 39.0132 43.4839C40.6504 42.8058 42.0497 41.6573 43.0343 40.1839C44.0188 38.7104 44.5443 36.9781 44.5443 35.206C44.5416 32.8305 43.5967 30.5531 41.917 28.8733C40.2372 27.1936 37.9598 26.2487 35.5843 26.246Z" fill="white"/>
<path d="M45.4419 35.2627C45.2024 35.2634 44.9715 35.1732 44.7958 35.0103C44.6202 34.8474 44.5129 34.624 44.4956 34.385C44.4783 34.1461 44.5523 33.9095 44.7027 33.723C44.853 33.5366 45.0685 33.4141 45.3057 33.3803L57.4185 31.5972C57.6633 31.5678 57.9099 31.6351 58.1057 31.7848C58.3016 31.9345 58.4312 32.1548 58.4671 32.3987C58.503 32.6426 58.4423 32.8908 58.2978 33.0906C58.1534 33.2904 57.9367 33.4259 57.6938 33.4682L45.5857 35.2485C45.5382 35.2567 45.4901 35.2615 45.4419 35.2627Z" fill="white"/>
<path d="M56.8672 53.808C56.6641 53.807 56.4668 53.7406 56.3043 53.6188L41.9638 43.0062C41.7622 42.8568 41.6282 42.6335 41.5913 42.3853C41.5544 42.1371 41.6176 41.8844 41.767 41.6829C41.9164 41.4813 42.1398 41.3473 42.388 41.3104C42.6362 41.2735 42.8888 41.3367 43.0904 41.4861L57.431 52.1015C57.5898 52.2206 57.7071 52.3867 57.7663 52.5762C57.8255 52.7657 57.8236 52.9691 57.7608 53.1574C57.698 53.3457 57.5776 53.5096 57.4165 53.6257C57.2554 53.7417 57.0619 53.8042 56.8634 53.8042L56.8672 53.808Z" fill="white"/>
<path d="M25.9792 60.4485C25.8228 60.4485 25.6689 60.4098 25.5311 60.3357C25.3934 60.2616 25.2762 60.1546 25.19 60.0241C25.1038 59.8937 25.0512 59.7439 25.0371 59.5882C25.0229 59.4324 25.0476 59.2756 25.1089 59.1318L31.4666 44.1905C31.5137 44.074 31.5836 43.9681 31.6721 43.8789C31.7606 43.7897 31.866 43.719 31.9821 43.671C32.0982 43.623 32.2228 43.5986 32.3484 43.5992C32.4741 43.5998 32.5984 43.6255 32.714 43.6747C32.8296 43.7239 32.9343 43.7957 33.0219 43.8858C33.1095 43.9759 33.1782 44.0825 33.2241 44.1995C33.2701 44.3165 33.2922 44.4414 33.2893 44.5671C33.2864 44.6927 33.2584 44.8165 33.2072 44.9312L26.8504 59.8772C26.7771 60.0472 26.6554 60.192 26.5005 60.2936C26.3457 60.3952 26.1644 60.449 25.9792 60.4485Z" fill="white"/>
<path d="M13.7247 41.2808C13.494 41.2806 13.2713 41.196 13.0986 41.043C12.9258 40.89 12.815 40.6792 12.7868 40.4502C12.7587 40.2212 12.8152 39.9898 12.9458 39.7996C13.0764 39.6093 13.272 39.4734 13.4958 39.4173L25.6606 36.3695C25.9041 36.3084 26.1619 36.3465 26.3773 36.4755C26.5926 36.6044 26.7479 36.8137 26.809 37.0572C26.8701 37.3006 26.832 37.5584 26.703 37.7738C26.574 37.9891 26.3648 38.1445 26.1213 38.2055L13.9555 41.2524C13.88 41.2712 13.8025 41.2807 13.7247 41.2808Z" fill="white"/>
<path d="M28 29.7687C27.8013 29.7686 27.6077 29.7061 27.4466 29.5899L18.8839 23.4072C18.7809 23.3354 18.6933 23.2438 18.626 23.1377C18.5588 23.0317 18.5134 22.9133 18.4923 22.7895C18.4713 22.6658 18.4752 22.539 18.5036 22.4167C18.5321 22.2945 18.5846 22.1791 18.6582 22.0773C18.7317 21.9755 18.8247 21.8894 18.9319 21.8239C19.039 21.7585 19.1581 21.715 19.2822 21.6961C19.4064 21.6772 19.533 21.6831 19.6548 21.7136C19.7766 21.7441 19.8911 21.7986 19.9916 21.8738L28.5543 28.0565C28.7162 28.1737 28.8368 28.3392 28.8988 28.5292C28.9609 28.7192 28.9611 28.9239 28.8995 29.1141C28.838 29.3042 28.7178 29.47 28.5562 29.5876C28.3946 29.7052 28.1999 29.7686 28 29.7687Z" fill="white"/>
<path d="M37.0336 26.35C36.8891 26.3501 36.7464 26.317 36.6166 26.2533C36.4869 26.1896 36.3734 26.097 36.285 25.9827C36.1966 25.8683 36.1355 25.7352 36.1066 25.5936C36.0776 25.452 36.0815 25.3056 36.1179 25.1657L39.4817 12.2554C39.5488 12.0174 39.7064 11.8151 39.9208 11.6918C40.1352 11.5686 40.3893 11.5342 40.6288 11.596C40.8682 11.6578 41.0739 11.811 41.2018 12.0227C41.3297 12.2343 41.3697 12.4877 41.3131 12.7284L37.9493 25.6425C37.8965 25.8451 37.778 26.0245 37.6123 26.1526C37.4465 26.2806 37.243 26.3501 37.0336 26.35Z" fill="white"/>
<path d="M14.2913 26.2459C12.8546 26.2459 11.4501 25.8199 10.2556 25.0217C9.06098 24.2235 8.12995 23.089 7.58019 21.7616C7.03043 20.4342 6.88663 18.9737 7.16699 17.5646C7.44735 16.1555 8.13926 14.8612 9.15523 13.8453C10.1712 12.8295 11.4656 12.1377 12.8747 11.8576C14.2839 11.5774 15.7444 11.7214 17.0717 12.2713C18.399 12.8213 19.5334 13.7524 20.3315 14.9471C21.1295 16.1418 21.5554 17.5463 21.5552 18.983C21.5529 20.9087 20.7869 22.7549 19.4251 24.1165C18.0633 25.4781 16.217 26.2439 14.2913 26.2459ZM14.2913 13.611C13.2288 13.611 12.1902 13.926 11.3067 14.5163C10.4233 15.1066 9.73476 15.9456 9.32816 16.9272C8.92156 17.9088 8.81518 18.9889 9.02246 20.031C9.22974 21.0731 9.74138 22.0303 10.4927 22.7816C11.244 23.5329 12.2012 24.0445 13.2432 24.2518C14.2853 24.4591 15.3654 24.3527 16.3471 23.9461C17.3287 23.5395 18.1677 22.8509 18.7579 21.9675C19.3482 21.0841 19.6633 20.0455 19.6633 18.983C19.6618 17.5587 19.0953 16.1932 18.0882 15.186C17.0811 14.1789 15.7156 13.6125 14.2913 13.611Z" fill="white"/>
<path d="M41.6831 13.6109C40.5431 13.6109 39.4288 13.2729 38.481 12.6396C37.5331 12.0063 36.7944 11.1061 36.3582 10.053C35.9219 8.99978 35.8078 7.84091 36.0302 6.72287C36.2526 5.60483 36.8015 4.57785 37.6076 3.77178C38.4136 2.96572 39.4406 2.41679 40.5587 2.1944C41.6767 1.97201 42.8356 2.08615 43.8887 2.52238C44.9419 2.95862 45.8421 3.69736 46.4754 4.64519C47.1087 5.59302 47.4467 6.70736 47.4467 7.8473C47.445 9.37538 46.8372 10.8404 45.7567 11.9209C44.6762 13.0014 43.2112 13.6092 41.6831 13.6109ZM41.6831 3.97554C40.9173 3.97554 40.1688 4.20262 39.5321 4.62805C38.8953 5.05349 38.3991 5.65817 38.1061 6.36564C37.813 7.07311 37.7363 7.85159 37.8857 8.60264C38.0351 9.35369 38.4039 10.0436 38.9453 10.585C39.4868 11.1265 40.1767 11.4953 40.9277 11.6447C41.6788 11.7941 42.4573 11.7174 43.1647 11.4243C43.8722 11.1313 44.4769 10.635 44.9023 9.99833C45.3278 9.36163 45.5548 8.61306 45.5548 7.8473C45.5531 6.82098 45.1446 5.8372 44.4189 5.11149C43.6932 4.38577 42.7094 3.97729 41.6831 3.97554Z" fill="white"/>
<path d="M61.2015 36.5577C60.2816 36.5577 59.3823 36.2849 58.6174 35.7738C57.8525 35.2628 57.2564 34.5363 56.9043 33.6864C56.5523 32.8365 56.4602 31.9013 56.6397 30.9991C56.8191 30.0968 57.2621 29.2681 57.9126 28.6176C58.5631 27.9671 59.3919 27.5241 60.2941 27.3447C61.1964 27.1652 62.1316 27.2573 62.9815 27.6093C63.8314 27.9614 64.5578 28.5575 65.0689 29.3224C65.5799 30.0873 65.8527 30.9866 65.8527 31.9065C65.8515 33.1397 65.361 34.322 64.489 35.194C63.617 36.066 62.4347 36.5565 61.2015 36.5577ZM61.2015 29.1481C60.6557 29.1481 60.1222 29.31 59.6684 29.6132C59.2146 29.9165 58.861 30.3475 58.6521 30.8517C58.4433 31.356 58.3887 31.9108 58.4953 32.4461C58.6018 32.9814 58.8647 33.4731 59.2507 33.8589C59.6367 34.2448 60.1285 34.5075 60.6638 34.6139C61.1991 34.7202 61.7539 34.6654 62.2581 34.4565C62.7623 34.2475 63.1932 33.8936 63.4963 33.4398C63.7993 32.9859 63.961 32.4523 63.9608 31.9065C63.9598 31.1751 63.6688 30.4739 63.1515 29.9568C62.6342 29.4397 61.9329 29.1489 61.2015 29.1481Z" fill="white"/>
<path d="M61.0559 62.0699C59.5412 62.0659 58.0812 61.5029 56.9559 60.4888C55.8307 59.4748 55.1194 58.0811 54.9583 56.5749C54.8298 55.3419 55.0781 54.0989 55.6704 53.0099C56.2627 51.9209 57.1713 51.0371 58.2762 50.475C59.3811 49.9129 60.6304 49.699 61.8594 49.8614C63.0884 50.0239 64.2392 50.5551 65.1601 51.385C66.081 52.2149 66.7287 53.3045 67.0177 54.51C67.3067 55.7155 67.2235 56.9803 66.779 58.1375C66.3345 59.2947 65.5496 60.29 64.5279 60.9921C63.5061 61.6941 62.2956 62.0699 61.0559 62.0699ZM61.0635 51.691C60.9143 51.6909 60.7653 51.6988 60.617 51.7146C59.4977 51.8333 58.4713 52.3914 57.7633 53.2664C57.0552 54.1413 56.7234 55.2616 56.8408 56.381C56.9264 57.1968 57.2466 57.9703 57.7626 58.608C58.2787 59.2456 58.9685 59.72 59.7486 59.9737C60.5287 60.2274 61.3656 60.2496 62.1581 60.0376C62.9505 59.8255 63.6645 59.3883 64.2136 58.7789C64.7627 58.1695 65.1235 57.414 65.2521 56.6039C65.3808 55.7937 65.2719 54.9636 64.9386 54.2141C64.6053 53.4645 64.0619 52.8277 63.3741 52.3805C62.6864 51.9334 61.8838 51.6952 61.0635 51.6948V51.691Z" fill="white"/>
<path d="M24.9775 68.2999C24.0012 68.2993 23.047 68.0093 22.2355 67.4665C21.424 66.9237 20.7917 66.1524 20.4184 65.2503C20.0452 64.3481 19.9479 63.3556 20.1387 62.3981C20.3295 61.4406 20.7999 60.5612 21.4904 59.8711C22.181 59.1809 23.0607 58.711 24.0183 58.5207C24.9758 58.3305 25.9683 58.4284 26.8703 58.8022C27.7722 59.1759 28.5431 59.8087 29.0854 60.6205C29.6278 61.4323 29.9172 62.3867 29.9172 63.363C29.9157 64.6724 29.3947 65.9276 28.4686 66.8532C27.5425 67.7788 26.2869 68.2991 24.9775 68.2999ZM24.9775 60.318C24.3754 60.3185 23.7869 60.4976 23.2866 60.8325C22.7862 61.1675 22.3964 61.6432 22.1663 62.1997C21.9363 62.7561 21.8764 63.3683 21.9942 63.9588C22.112 64.5493 22.4022 65.0916 22.8282 65.5171C23.2542 65.9427 23.7967 66.2324 24.3873 66.3497C24.9779 66.4669 25.59 66.4065 26.1463 66.1759C26.7025 65.9454 27.1779 65.5551 27.5124 65.0544C27.8468 64.5537 28.0254 63.9651 28.0254 63.363C28.0243 62.5552 27.7028 61.7809 27.1314 61.2099C26.5599 60.639 25.7853 60.3182 24.9775 60.318Z" fill="white"/>
<path d="M9.18601 47.6698C8.04599 47.6698 6.93157 47.3317 5.98371 46.6983C5.03584 46.0649 4.2971 45.1646 3.86092 44.1113C3.42474 43.058 3.31071 41.8991 3.53325 40.781C3.7558 39.6629 4.30492 38.6359 5.11117 37.8299C5.91742 37.0239 6.94458 36.4752 8.06274 36.253C9.1809 36.0308 10.3398 36.1452 11.393 36.5817C12.4461 37.0183 13.3461 37.7573 13.9792 38.7054C14.6123 39.6535 14.95 40.768 14.9497 41.908C14.9474 43.4357 14.3394 44.9003 13.2589 45.9804C12.1785 47.0605 10.7138 47.668 9.18601 47.6698ZM9.18601 38.0353C8.42029 38.0353 7.67177 38.2623 7.03508 38.6877C6.39839 39.1131 5.90214 39.7178 5.60907 40.4252C5.316 41.1326 5.23927 41.911 5.38858 42.662C5.5379 43.4131 5.90655 44.103 6.44793 44.6445C6.98931 45.186 7.67911 45.5548 8.43009 45.7043C9.18108 45.8538 9.95953 45.7773 10.667 45.4844C11.3745 45.1915 11.9793 44.6954 12.4048 44.0588C12.8303 43.4222 13.0576 42.6737 13.0578 41.908C13.0563 40.8815 12.6479 39.8975 11.9222 39.1716C11.1964 38.4457 10.2125 38.037 9.18601 38.0353Z" fill="white"/>
</svg>
