<svg width="71" height="71" viewBox="0 0 71 71" fill="none" xmlns="http://www.w3.org/2000/svg">
<path d="M35.4678 27.5356H32.1865V24.2544C32.1865 23.6496 31.6965 23.1606 31.0928 23.1606H26.7178C26.114 23.1606 25.624 23.6496 25.624 24.2544V27.5356H22.3428C21.739 27.5356 21.249 28.0246 21.249 28.6294V33.0044C21.249 33.6092 21.739 34.0981 22.3428 34.0981H25.624V37.3794C25.624 37.9842 26.114 38.4731 26.7178 38.4731H31.0928C31.6965 38.4731 32.1865 37.9842 32.1865 37.3794V34.0981H35.4678C36.0715 34.0981 36.5615 33.6092 36.5615 33.0044V28.6294C36.5615 28.0246 36.0715 27.5356 35.4678 27.5356ZM34.374 31.9106H31.0928C30.489 31.9106 29.999 32.3996 29.999 33.0044V36.2856H27.8115V33.0044C27.8115 32.3996 27.3215 31.9106 26.7178 31.9106H23.4365V29.7231H26.7178C27.3215 29.7231 27.8115 29.2342 27.8115 28.6294V25.3481H29.999V28.6294C29.999 29.2342 30.489 29.7231 31.0928 29.7231H34.374V31.9106Z" fill="#1F7D3A"/>
<path d="M69.374 42.8481H55.1553V20.9731H56.249C56.8528 20.9731 57.3428 20.4842 57.3428 19.8794V14.4106C57.3428 13.8058 56.8528 13.3169 56.249 13.3169H47.499V11.1294H49.6865C50.2903 11.1294 50.7803 10.6405 50.7803 10.0356V1.28564C50.7803 0.680801 50.2903 0.191895 49.6865 0.191895H8.12402C7.52027 0.191895 7.03027 0.680801 7.03027 1.28564V10.0356C7.03027 10.6405 7.52027 11.1294 8.12402 11.1294H10.3115V13.3169H1.56152C0.957773 13.3169 0.467773 13.8058 0.467773 14.4106V19.8794C0.467773 20.4842 0.957773 20.9731 1.56152 20.9731H2.65527V69.0981C2.65527 69.703 3.14527 70.1919 3.74902 70.1919H67.1865C67.7903 70.1919 68.2803 69.703 68.2803 69.0981V50.5044H69.374C69.9778 50.5044 70.4678 50.0155 70.4678 49.4106V43.9419C70.4678 43.3371 69.9778 42.8481 69.374 42.8481ZM45.3115 13.3169H43.124V11.1294H45.3115V13.3169ZM40.9365 11.1294V13.3169H16.874V11.1294H40.9365ZM9.21777 2.37939H48.5928V8.94189H9.21777V2.37939ZM12.499 11.1294H14.6865V13.3169H12.499V11.1294ZM2.65527 15.5044H55.1553V18.7856H2.65527V15.5044ZM40.9365 42.8481V48.3169H38.749V42.8481H40.9365ZM36.5615 48.3169H31.0928V42.8481H36.5615V48.3169ZM28.9053 48.3169H23.4365V42.8481H28.9053V48.3169ZM21.249 48.3169H15.7803V42.8481H21.249V48.3169ZM13.5928 48.3169H9.21777V42.8481H13.5928V48.3169ZM7.03027 48.3169H4.84277V42.8481H7.03027V48.3169ZM37.6553 59.2544V68.0044H28.9053V59.2544H37.6553ZM15.7803 57.0669V54.8794H39.8428V57.0669H15.7803ZM26.7178 59.2544V68.0044H17.9678V59.2544H26.7178ZM52.9678 68.0044H39.8428V59.2544H40.9365C41.5403 59.2544 42.0303 58.7655 42.0303 58.1606V53.7856C42.0303 53.1808 41.5403 52.6919 40.9365 52.6919H14.6865C14.0828 52.6919 13.5928 53.1808 13.5928 53.7856V58.1606C13.5928 58.7655 14.0828 59.2544 14.6865 59.2544H15.7803V68.0044H4.84277V50.5044H42.0303C42.634 50.5044 43.124 50.0155 43.124 49.4106V41.7544C43.124 41.1496 42.634 40.6606 42.0303 40.6606H4.84277V20.9731H52.9678V68.0044ZM68.2803 48.3169H57.3428C56.739 48.3169 56.249 48.8058 56.249 49.4106C56.249 50.0155 56.739 50.5044 57.3428 50.5044H66.0928V68.0044H55.1553V45.0356H68.2803V48.3169Z" fill="#1F7D3A"/>
<path d="M57.3428 63.6294H63.9053C64.509 63.6294 64.999 63.1405 64.999 62.5356V53.7856C64.999 53.1808 64.509 52.6919 63.9053 52.6919H57.3428C56.739 52.6919 56.249 53.1808 56.249 53.7856V62.5356C56.249 63.1405 56.739 63.6294 57.3428 63.6294ZM58.4365 59.2544H59.5303V61.4419H58.4365V59.2544ZM61.7178 61.4419V59.2544H62.8115V61.4419H61.7178ZM62.8115 57.0669H61.7178V54.8794H62.8115V57.0669ZM59.5303 54.8794V57.0669H58.4365V54.8794H59.5303Z" fill="#1F7D3A"/>
<path d="M49.6865 24.2544H45.3115C44.7078 24.2544 44.2178 24.7433 44.2178 25.3481V29.7231C44.2178 30.328 44.7078 30.8169 45.3115 30.8169H49.6865C50.2903 30.8169 50.7803 30.328 50.7803 29.7231V25.3481C50.7803 24.7433 50.2903 24.2544 49.6865 24.2544ZM48.5928 28.6294H46.4053V26.4419H48.5928V28.6294Z" fill="#1F7D3A"/>
<path d="M49.6865 33.0044H45.3115C44.7078 33.0044 44.2178 33.4933 44.2178 34.0981V38.4731C44.2178 39.078 44.7078 39.5669 45.3115 39.5669H49.6865C50.2903 39.5669 50.7803 39.078 50.7803 38.4731V34.0981C50.7803 33.4933 50.2903 33.0044 49.6865 33.0044ZM48.5928 37.3794H46.4053V35.1919H48.5928V37.3794Z" fill="#1F7D3A"/>
<path d="M49.6865 41.7544H45.3115C44.7078 41.7544 44.2178 42.2433 44.2178 42.8481V47.2231C44.2178 47.828 44.7078 48.3169 45.3115 48.3169H49.6865C50.2903 48.3169 50.7803 47.828 50.7803 47.2231V42.8481C50.7803 42.2433 50.2903 41.7544 49.6865 41.7544ZM48.5928 46.1294H46.4053V43.9419H48.5928V46.1294Z" fill="#1F7D3A"/>
<path d="M49.6865 50.5044H45.3115C44.7078 50.5044 44.2178 50.9933 44.2178 51.5981V55.9731C44.2178 56.578 44.7078 57.0669 45.3115 57.0669H49.6865C50.2903 57.0669 50.7803 56.578 50.7803 55.9731V51.5981C50.7803 50.9933 50.2903 50.5044 49.6865 50.5044ZM48.5928 54.8794H46.4053V52.6919H48.5928V54.8794Z" fill="#1F7D3A"/>
<path d="M49.6865 59.2544H45.3115C44.7078 59.2544 44.2178 59.7433 44.2178 60.3481V64.7231C44.2178 65.328 44.7078 65.8169 45.3115 65.8169H49.6865C50.2903 65.8169 50.7803 65.328 50.7803 64.7231V60.3481C50.7803 59.7433 50.2903 59.2544 49.6865 59.2544ZM48.5928 63.6294H46.4053V61.4419H48.5928V63.6294Z" fill="#1F7D3A"/>
<path d="M45.3115 4.56689H12.499C11.8953 4.56689 11.4053 5.0558 11.4053 5.66064C11.4053 6.26549 11.8953 6.75439 12.499 6.75439H45.3115C45.9153 6.75439 46.4053 6.26549 46.4053 5.66064C46.4053 5.0558 45.9153 4.56689 45.3115 4.56689Z" fill="#1F7D3A"/>
</svg>
