<svg width="71" height="71" viewBox="0 0 71 71" fill="none" xmlns="http://www.w3.org/2000/svg">
<path d="M22.2679 48.9875C21.3708 48.9974 20.5139 49.3607 19.8831 49.9986C19.2522 50.6365 18.8984 51.4974 18.8984 52.3945C18.8985 53.2916 19.2523 54.1525 19.8831 54.7903C20.514 55.4282 21.371 55.7915 22.268 55.8014C23.1651 55.7914 24.022 55.4281 24.6528 54.7902C25.2837 54.1524 25.6375 53.2915 25.6375 52.3944C25.6374 51.4972 25.2836 50.6363 24.6528 49.9985C24.0219 49.3607 23.1649 48.9974 22.2679 48.9875ZM22.2679 53.6146C21.9474 53.6099 21.6416 53.4793 21.4166 53.2509C21.1916 53.0226 21.0655 52.7149 21.0655 52.3944C21.0655 52.0738 21.1916 51.7662 21.4166 51.5379C21.6416 51.3095 21.9474 51.1789 22.2679 51.1742C22.5885 51.179 22.8942 51.3096 23.1192 51.5379C23.3442 51.7662 23.4703 52.0739 23.4703 52.3944C23.4703 52.715 23.3442 53.0227 23.1192 53.251C22.8942 53.4793 22.5884 53.6099 22.2679 53.6146Z" fill="black"/>
<path d="M34.7858 43.204C33.5825 43.2147 32.4321 43.7002 31.585 44.5549C30.7379 45.4096 30.2627 46.5643 30.2627 47.7676C30.2627 48.971 30.738 50.1256 31.5851 50.9803C32.4322 51.835 33.5826 52.3205 34.7859 52.3311C35.9892 52.3204 37.1396 51.8349 37.9867 50.9802C38.8338 50.1255 39.3091 48.9708 39.309 47.7675C39.309 46.5641 38.8337 45.4095 37.9866 44.5548C37.1395 43.7002 35.9891 43.2147 34.7858 43.204ZM34.7858 50.1444C34.1601 50.1373 33.5624 49.8837 33.1225 49.4387C32.6826 48.9938 32.4358 48.3933 32.4358 47.7675C32.4359 47.1418 32.6826 46.5413 33.1226 46.0963C33.5625 45.6514 34.1602 45.3978 34.7859 45.3907C35.4118 45.3975 36.0099 45.6508 36.4501 46.0959C36.8904 46.5409 37.1373 47.1416 37.1373 47.7676C37.1373 48.3936 36.8904 48.9943 36.4501 49.4393C36.0098 49.8843 35.4118 50.1377 34.7858 50.1444Z" fill="black"/>
<path d="M65.2725 53.9098L59.8996 50.8076V44.6022C59.8996 44.4103 59.8491 44.2217 59.7532 44.0554C59.6572 43.8891 59.5191 43.7511 59.3529 43.6551L53.4333 40.2373C53.2671 40.1412 53.0785 40.0907 52.8866 40.0907C52.6946 40.0907 52.5061 40.1412 52.3399 40.2373L48.108 42.6807L40.4867 25.5327V11.1997C41.1639 10.8972 41.7174 10.3724 42.0556 9.71234C42.3937 9.05226 42.4963 8.29647 42.3463 7.57013C42.1963 6.84379 41.8027 6.19048 41.2307 5.71837C40.6587 5.24626 39.9426 4.98368 39.201 4.97412H22.3573C21.6153 4.98288 20.8985 5.24505 20.3259 5.71714C19.7534 6.18923 19.3594 6.84287 19.2093 7.56964C19.0592 8.29642 19.1621 9.05266 19.5009 9.71292C19.8397 10.3732 20.394 10.8978 21.0719 11.1997L21.0718 25.5327L6.62938 58.0276C6.27344 58.8505 6.12655 59.7486 6.2018 60.642C6.27704 61.5353 6.57208 62.3962 7.06064 63.148C7.5492 63.8997 8.21611 64.5189 9.00195 64.9504C9.78779 65.382 10.6682 65.6125 11.5647 65.6213L45.6562 65.6215C45.9573 65.7551 46.5847 66.2596 46.9573 66.2034C47.0695 66.5266 52.6697 62.9747 52.8818 62.9522L58.2595 66.0571C58.4258 66.153 58.6143 66.2035 58.8062 66.2035C58.9981 66.2035 59.1866 66.153 59.3529 66.0571L65.2725 62.6393C65.4388 62.5433 65.5768 62.4052 65.6728 62.239C65.7688 62.0727 65.8192 61.8841 65.8192 61.6922V54.8569C65.8192 54.665 65.7688 54.4764 65.6728 54.3101C65.5768 54.1438 65.4388 54.0058 65.2725 53.9098ZM22.3573 7.16093H39.2012C39.4787 7.16637 39.7431 7.28044 39.9374 7.47865C40.1318 7.67686 40.2407 7.94339 40.2406 8.22099C40.2406 8.49859 40.1317 8.76511 39.9374 8.9633C39.743 9.16149 39.4786 9.27555 39.2011 9.28096H22.3573C22.0798 9.27554 21.8154 9.16147 21.6211 8.96327C21.4267 8.76507 21.3178 8.49854 21.3178 8.22095C21.3178 7.94335 21.4267 7.67682 21.6211 7.47862C21.8154 7.28042 22.0798 7.16636 22.3573 7.16093ZM23.1645 26.2091C23.264 25.7142 23.2957 25.2081 23.2585 24.7046H26.8953C27.1817 24.6992 27.4545 24.5816 27.6551 24.3772C27.8558 24.1727 27.9681 23.8977 27.9681 23.6113C27.9681 23.3248 27.8558 23.0498 27.6551 22.8454C27.4545 22.6409 27.1817 22.5233 26.8953 22.5179H23.2586V19.321H26.8953C27.1816 19.3155 27.4543 19.1978 27.6548 18.9934C27.8553 18.7889 27.9676 18.514 27.9676 18.2277C27.9676 17.9413 27.8553 17.6664 27.6548 17.462C27.4543 17.2575 27.1816 17.1399 26.8953 17.1343H23.2586V11.4677H38.3V25.7649C38.3 25.9179 38.332 26.0692 38.394 26.2091L42.3659 35.1463C39.2074 34.7476 38.8391 33.1479 35.0092 33.1896C30.7244 33.1476 30.6951 35.1368 26.7523 35.1901C23.4586 35.201 23.0804 33.7013 20.0188 33.2872L23.1645 26.2091ZM11.5645 63.4347C11.0306 63.4308 10.5059 63.2946 10.0375 63.0381C9.56911 62.7817 9.17164 62.4131 8.88068 61.9653C8.58973 61.5175 8.41438 61.0046 8.37033 60.4724C8.32628 59.9402 8.41491 59.4054 8.62828 58.9159L19.0827 35.3934C20.1581 35.4469 21.207 35.7456 22.1492 36.2668C23.5614 37.0294 25.1476 37.4119 26.7523 37.3767C28.3571 37.4119 29.9437 37.0296 31.3564 36.2673C32.4722 35.6486 33.7338 35.3409 35.0092 35.3763C36.2846 35.3409 37.5461 35.6486 38.662 36.2673C40.0747 37.0296 41.6612 37.4119 43.2661 37.3767C43.2957 37.3767 43.3206 37.3622 43.3497 37.3599L46.2169 43.8115C46.1089 43.913 46.0227 44.0355 45.9637 44.1715C45.9047 44.3075 45.874 44.454 45.8736 44.6023V50.8021L40.491 53.9099C40.3248 54.0058 40.1867 54.1439 40.0908 54.3101C39.9948 54.4764 39.9443 54.665 39.9443 54.857V61.6922C39.9443 61.8842 39.9948 62.0728 40.0908 62.239C40.1867 62.4053 40.3248 62.5433 40.491 62.6393L41.8688 63.4348L11.5645 63.4347ZM51.7836 61.0611L46.9573 63.8474L42.1311 61.0611V55.488L46.9573 52.7017L51.7836 55.488V61.0611ZM48.0603 50.8064V45.2333L52.8866 42.447L57.7128 45.2333V50.8064L52.8866 53.5927L48.0603 50.8064ZM63.6324 61.0611L58.8062 63.8474L53.98 61.0611V55.488L58.8062 52.7017L63.6324 55.488V61.0611Z" fill="white"/>
</svg>
