<svg width="71" height="71" viewBox="0 0 71 71" fill="none" xmlns="http://www.w3.org/2000/svg">
<g clip-path="url(#clip0_1_6463)">
<path d="M44.69 44.667C47.4783 41.8579 51.3403 40.1162 55.6016 40.1162C58.4725 40.1162 61.2217 40.8935 63.6326 42.3758C64.4277 39.6087 64.8301 36.7393 64.8301 33.8271C64.8301 16.7897 50.9691 2.92871 33.9316 2.92871C16.8942 2.92871 3.0332 16.7897 3.0332 33.8271C3.0332 50.8646 16.8942 64.7256 33.9316 64.7256C35.7037 64.7256 37.4802 64.5745 39.2119 64.2763C39.7701 64.1797 40.3003 64.5548 40.3964 65.1129C40.4925 65.671 40.1179 66.2013 39.5598 66.2974C37.7136 66.6152 35.8199 66.7764 33.9316 66.7764C25.1305 66.7764 16.8563 63.3491 10.633 57.1257C4.40969 50.9025 0.982422 42.6281 0.982422 33.8271C0.982422 25.0262 4.40969 16.7519 10.633 10.5286C16.8563 4.30519 25.1305 0.87793 33.9316 0.87793C42.7328 0.87793 51.007 4.30519 57.2303 10.5286C63.4536 16.7519 66.8809 25.0262 66.8809 33.8271C66.8809 37.4152 66.3076 40.9432 65.1768 44.3136C65.1646 44.3518 65.15 44.3894 65.1332 44.4263C65.0788 44.5456 65.0034 44.6505 64.9132 44.7374C64.5577 45.0824 63.9942 45.1274 63.5854 44.8211C61.2675 43.0848 58.5067 42.167 55.6016 42.167C48.2513 42.167 42.2715 48.1468 42.2715 55.4971C42.2715 62.8473 48.2513 68.8271 55.6016 68.8271C62.9518 68.8271 68.9316 62.8473 68.9316 55.4971C68.9316 53.2036 68.353 50.9836 67.2484 49.0073L55.2115 61.044C54.8111 61.4443 54.1618 61.4443 53.7615 61.044L46.889 54.1716C46.4886 53.771 46.4886 53.1219 46.889 52.7214C47.2895 52.3211 47.9388 52.3211 48.3391 52.7214L54.4863 58.8688L69.2317 44.1234C69.6322 43.723 70.2815 43.7233 70.6818 44.1234C71.0822 44.524 71.0822 45.1732 70.6818 45.5736L68.7473 47.508C70.2123 49.9118 70.9824 52.6561 70.9824 55.4971C70.9824 63.9781 64.0826 70.8779 55.6016 70.8779C47.1205 70.8779 40.2207 63.9781 40.2207 55.4971C40.2207 54.6057 40.2969 53.7322 40.4431 52.8819C39.3579 53.0476 38.2144 53.1313 37.0274 53.1313C30.557 53.1313 27.9862 49.9232 26.7506 48.3814C26.6589 48.267 26.5548 48.1371 26.4664 48.0325C26.4012 48.059 26.3316 48.0883 26.268 48.1151C25.4596 48.4552 24.1066 49.0247 21.6993 49.0247C21.133 49.0247 20.6739 48.5657 20.6739 47.9993C20.6739 47.4328 21.133 46.9739 21.6993 46.9739C23.6926 46.9739 24.7638 46.5231 25.4726 46.2248C26.0003 46.0028 26.4991 45.7935 27.0669 45.9687C27.5703 46.1246 27.8977 46.5332 28.3511 47.099C29.4661 48.4905 31.5418 51.0805 37.0275 51.0805C38.4301 51.0805 39.7596 50.9535 40.9856 50.7028C41.2055 50.0341 41.4699 49.386 41.7756 48.7611C40.7845 49.0772 39.6357 49.2884 38.3355 49.2884C37.7692 49.2884 37.3101 48.8294 37.3101 48.263C37.3101 47.6966 37.7692 47.2376 38.3355 47.2376C41.8928 47.2378 44.1207 45.2501 44.69 44.667ZM33.9316 56.5225C29.5884 56.5225 25.7061 54.8515 22.9999 51.8176C22.6229 51.395 22.66 50.7468 23.0826 50.3698C23.5052 49.993 24.1534 50.03 24.5303 50.4524C26.8421 53.0443 30.1809 54.4717 33.9316 54.4717C34.4979 54.4717 34.957 54.9306 34.957 55.4971C34.957 56.0635 34.4979 56.5225 33.9316 56.5225ZM34.8356 48.7726C34.7316 48.7726 34.6258 48.7567 34.5214 48.7231C32.1164 47.9495 30.1615 46.363 28.8679 44.1353C28.3601 43.2607 27.9528 42.2844 27.6512 41.2277C26.0138 44.0379 23.2025 45.3586 20.5239 45.3586C19.9576 45.3586 19.4985 44.8996 19.4985 44.3332C19.4985 43.7667 19.9576 43.3078 20.5239 43.3078C22.9367 43.3078 27.0201 41.6399 27.0201 35.3886V30.3159C27.0201 21.9579 30.5904 18.98 33.9316 18.98C36.6945 18.98 38.912 20.9247 40.0156 24.3154C40.1909 24.8537 39.8964 25.4325 39.3579 25.6078C38.8193 25.783 38.2407 25.4887 38.0655 24.95C37.5891 23.4863 36.4186 21.0307 33.9315 21.0307C30.9333 21.0307 29.0707 24.5885 29.0707 30.3158V36.4482C29.0707 41.7657 31.2863 45.5279 35.1493 46.7704C35.6883 46.9439 35.9849 47.5214 35.8114 48.0607C35.6718 48.4956 35.269 48.7726 34.8356 48.7726ZM38.5441 45.3586C36.0967 45.3586 34.0759 44.3433 32.7002 42.4224C31.5678 40.8414 30.9442 38.7198 30.9442 36.4485V30.3161C30.9442 26.9349 31.4625 22.9043 33.9316 22.9043C34.314 22.9043 34.8824 23.0261 35.4175 23.6061C36.8118 25.1171 37.1746 29.0375 36.9158 32.2523C36.8703 32.8167 36.3754 33.2376 35.8114 33.1921C35.247 33.1467 34.8262 32.6523 34.8716 32.0878C35.0166 30.286 34.9481 28.5107 34.6787 27.089C34.4275 25.7639 34.0792 25.1742 33.9091 24.9928C33.5747 25.3133 32.9948 26.8792 32.9948 30.3161C32.9948 33.9015 34.0643 36.2182 35.7192 36.2182C36.4794 36.2182 38.7924 36.2182 38.7924 30.3161C38.7924 29.6813 38.769 29.063 38.7229 28.4784C38.6784 27.9138 39.1 27.4201 39.6645 27.3757C40.228 27.3315 40.7229 27.7527 40.7673 28.3172C40.8176 28.9553 40.8432 29.628 40.8432 30.3162C40.8432 36.8894 38.0569 38.2691 35.7192 38.2691C34.7871 38.2691 33.8291 37.9286 33.0182 37.1363C33.2351 40.3104 34.9684 43.308 38.544 43.308C40.5993 43.308 42.5446 42.164 44.0218 40.0865C45.2164 38.4064 46.6405 35.3475 46.6405 30.3162C46.6405 25.3744 45.4744 21.1563 43.2682 18.1179C42.5133 17.0784 41.6454 16.1818 40.6891 15.4528C40.2388 15.1095 40.1518 14.4661 40.4952 14.0158C40.8385 13.5653 41.4818 13.4785 41.9323 13.8218C43.0475 14.6718 44.0554 15.7118 44.9277 16.9129C47.39 20.3039 48.6914 24.9385 48.6914 30.3161C48.6915 40.1915 43.5867 45.3586 38.5441 45.3586ZM37.6256 41.7395C37.0594 41.7395 36.6003 41.2805 36.6003 40.7141C36.6003 40.1477 37.0594 39.6887 37.6256 39.6887C41.1235 39.6887 42.7166 34.8301 42.7166 30.3159C42.7166 26.2769 41.7935 22.5973 40.2474 20.4733C38.667 18.3023 36.4242 17.1067 33.9318 17.1067C31.4394 17.1067 29.1964 18.3023 27.6162 20.4733C26.8324 21.5502 26.1887 23.0716 25.755 24.8728C25.6224 25.4232 25.0686 25.761 24.5181 25.6296C23.9676 25.497 23.6288 24.9432 23.7613 24.3926C24.2574 22.332 25.0172 20.5593 25.9582 19.2665C27.9346 16.5512 30.7663 15.0559 33.9319 15.0559C37.0975 15.0559 39.9292 16.5512 41.9055 19.2663C43.7244 21.765 44.7676 25.7925 44.7676 30.3159C44.7676 33.3217 44.1639 36.0862 43.068 38.1002C41.7905 40.4471 39.8579 41.7395 37.6256 41.7395ZM20.1971 41.6901C19.6309 41.6901 19.1718 41.2312 19.1718 40.6647C19.1718 40.0983 19.6309 39.6393 20.1971 39.6393C22.0122 39.6393 23.0959 38.0503 23.0959 35.3886V30.3159C23.0959 29.6437 23.1195 28.9714 23.1663 28.3178C23.2066 27.7529 23.6971 27.3289 24.2621 27.368C24.827 27.4085 25.2522 27.899 25.2119 28.4639C25.1687 29.0692 25.1466 29.6924 25.1466 30.3161V35.3887C25.1468 40.0396 22.4805 41.6901 20.1971 41.6901ZM20.1971 37.3695C19.6309 37.3695 19.1718 36.9106 19.1718 36.3441V30.3159C19.1718 24.9384 20.4732 20.3037 22.9354 16.9129C25.6424 13.1849 29.5476 11.1318 33.9316 11.1318C35.4926 11.1318 37.0067 11.3927 38.4323 11.9073C38.9649 12.0995 39.241 12.6873 39.0486 13.2201C38.8563 13.7527 38.2689 14.029 37.736 13.8364C36.5344 13.4025 35.2544 13.1826 33.9316 13.1826C30.2216 13.1826 26.9058 14.9352 24.5948 18.1178C22.3886 21.1562 21.2225 25.3742 21.2225 30.3161V36.3443C21.2225 36.9106 20.7636 37.3695 20.1971 37.3695Z" fill="white"/>
</g>
<defs>
<clipPath id="clip0_1_6463">
<rect width="70" height="70" fill="white" transform="translate(0.982422 0.87793)"/>
</clipPath>
</defs>
</svg>
