<svg width="36" height="36" viewBox="0 0 36 36" fill="none" xmlns="http://www.w3.org/2000/svg">
<path d="M34.0022 15.5875C33.4101 11.2756 31.1294 7.37548 27.6618 4.74515C24.1942 2.11482 19.8237 0.969734 15.5118 1.56179C11.1999 2.15384 7.2998 4.43454 4.66947 7.90217C2.03914 11.3698 0.89405 15.7403 1.4861 20.0522C1.97199 23.6207 3.61099 26.9325 6.15342 29.4832C8.69585 32.034 12.0023 33.6837 15.5692 34.1812C16.3004 34.2762 17.0369 34.3237 17.7742 34.3234C20.7488 34.3288 23.6676 33.5173 26.2125 31.9773C26.343 31.9072 26.4578 31.8112 26.5501 31.6953C26.6423 31.5795 26.7101 31.446 26.7492 31.3032C26.7884 31.1603 26.7981 31.011 26.7778 30.8643C26.7575 30.7175 26.7076 30.5765 26.6312 30.4496C26.5547 30.3227 26.4533 30.2127 26.3331 30.1262C26.2128 30.0397 26.0763 29.9785 25.9317 29.9464C25.7871 29.9143 25.6375 29.9118 25.4919 29.9393C25.3463 29.9667 25.2078 30.0234 25.0849 30.1059C22.2017 31.8391 18.7976 32.4945 15.4771 31.9558C12.1565 31.417 9.13425 29.7191 6.94691 27.1633C4.75957 24.6075 3.54865 21.3593 3.52916 17.9954C3.50967 14.6315 4.68285 11.3695 6.84043 8.7885C8.998 6.20756 12.0004 4.47467 15.3145 3.8975C18.6286 3.32033 22.04 3.93623 24.943 5.63585C27.8461 7.33546 30.053 10.0088 31.1718 13.1813C32.2907 16.3538 32.2491 19.8201 31.0545 22.9648C30.8595 23.4785 30.4906 23.9075 30.0121 24.1775C29.5336 24.4475 28.9756 24.5413 28.4351 24.4426C27.8946 24.3439 27.4058 24.0591 27.0535 23.6374C26.7012 23.2158 26.5077 22.6841 26.5067 22.1347V10.2609C26.5067 9.97085 26.3915 9.69265 26.1864 9.48753C25.9813 9.28241 25.7031 9.16718 25.413 9.16718C25.1229 9.16718 24.8447 9.28241 24.6396 9.48753C24.4345 9.69265 24.3192 9.97085 24.3192 10.2609V12.1487C23.1356 10.8018 21.5667 9.85105 19.825 9.42512C18.0832 8.99918 16.2526 9.11863 14.581 9.76731C12.9094 10.416 11.4774 11.5626 10.4788 13.0519C9.48027 14.5412 8.96338 16.3014 8.99811 18.0941C9.03283 19.8869 9.6175 21.6257 10.673 23.0752C11.7284 24.5247 13.2038 25.615 14.8993 26.1985C16.5948 26.7819 18.4286 26.8304 20.1526 26.3373C21.8765 25.8443 23.4074 24.8335 24.538 23.4417C24.8093 24.348 25.358 25.1464 26.1069 25.7246C26.8557 26.3027 27.767 26.6314 28.7125 26.6645C29.6579 26.6976 30.59 26.4334 31.3774 25.909C32.1649 25.3846 32.768 24.6265 33.102 23.7414C34.0785 21.1413 34.388 18.338 34.0022 15.5875ZM17.7567 24.4797C16.4588 24.4797 15.19 24.0948 14.1108 23.3737C13.0316 22.6526 12.1905 21.6277 11.6938 20.4285C11.1971 19.2294 11.0671 17.9099 11.3203 16.6369C11.5735 15.3639 12.1986 14.1946 13.1163 13.2768C14.0341 12.359 15.2034 11.734 16.4764 11.4808C17.7494 11.2276 19.0689 11.3575 20.2681 11.8542C21.4672 12.3509 22.4922 13.1921 23.2132 14.2712C23.9343 15.3504 24.3192 16.6192 24.3192 17.9172C24.3175 19.6571 23.6255 21.3253 22.3952 22.5556C21.1649 23.786 19.4967 24.4779 17.7567 24.4797Z" fill="#1F7D3A"/>
</svg>
