<svg width="22" height="22" viewBox="0 0 22 22" fill="none" xmlns="http://www.w3.org/2000/svg">
<g clip-path="url(#clip0_0_951)">
<path d="M20.1775 10.5371H4.7898L9.42117 5.90574C9.50474 5.82503 9.5714 5.72848 9.61726 5.62172C9.66312 5.51497 9.68726 5.40015 9.68827 5.28397C9.68928 5.16779 9.66714 5.05257 9.62314 4.94503C9.57915 4.8375 9.51417 4.7398 9.43202 4.65765C9.34986 4.57549 9.25217 4.51052 9.14463 4.46653C9.0371 4.42253 8.92188 4.40039 8.8057 4.4014C8.68951 4.40241 8.5747 4.42655 8.46794 4.47241C8.36119 4.51826 8.26464 4.58492 8.18392 4.66849L2.05892 10.7935C1.89489 10.9576 1.80273 11.1801 1.80273 11.4121C1.80273 11.6441 1.89489 11.8667 2.05892 12.0307L8.18392 18.1557C8.34895 18.3151 8.56998 18.4033 8.7994 18.4013C9.02882 18.3993 9.24828 18.3073 9.41051 18.1451C9.57275 17.9829 9.66477 17.7634 9.66676 17.534C9.66876 17.3045 9.58056 17.0835 9.42117 16.9185L4.7898 12.2871H20.1775C20.4096 12.2871 20.6322 12.1949 20.7963 12.0308C20.9604 11.8667 21.0525 11.6442 21.0525 11.4121C21.0525 11.1801 20.9604 10.9575 20.7963 10.7934C20.6322 10.6293 20.4096 10.5371 20.1775 10.5371Z" fill="#1F7D3A"/>
</g>
<defs>
<clipPath id="clip0_0_951">
<rect width="21" height="21" fill="white" transform="translate(0.927734 0.912109)"/>
</clipPath>
</defs>
</svg>
