<svg width="20" height="21" viewBox="0 0 20 21" fill="none" xmlns="http://www.w3.org/2000/svg">
<g clip-path="url(#clip0_1_1564)">
<path d="M10 20.1611C7.32895 20.1611 4.81766 19.1209 2.92892 17.2322C1.04019 15.3435 0 12.8322 0 10.1611C0 7.49008 1.04019 4.97879 2.92892 3.09006C4.81766 1.20132 7.32895 0.161133 10 0.161133C12.6711 0.161133 15.1823 1.20132 17.0711 3.09006C18.9598 4.97879 20 7.49008 20 10.1611C20 12.8322 18.9598 15.3435 17.0711 17.2322C15.1823 19.1209 12.6711 20.1611 10 20.1611ZM10 1.72363C5.3476 1.72363 1.5625 5.50873 1.5625 10.1611C1.5625 14.8135 5.3476 18.5986 10 18.5986C14.6524 18.5986 18.4375 14.8135 18.4375 10.1611C18.4375 5.50873 14.6524 1.72363 10 1.72363ZM14.1156 14.2767L13.0107 13.1718C11.3506 14.832 8.64944 14.832 6.98929 13.1718C5.32913 11.5117 5.32913 8.81058 6.98929 7.15042C8.64944 5.49026 11.3506 5.49026 13.0107 7.15042L14.1156 6.04553C11.8462 3.77625 8.15369 3.77625 5.8844 6.04553C3.61511 8.31497 3.61511 12.0074 5.8844 14.2767C7.01904 15.4114 8.50952 15.9787 10 15.9787C11.4903 15.9787 12.981 15.4114 14.1156 14.2767Z" fill="black"/>
</g>
<defs>
<clipPath id="clip0_1_1564">
<rect width="20" height="20" fill="white" transform="translate(0 0.161133)"/>
</clipPath>
</defs>
</svg>
