<svg width="351" height="351" viewBox="0 0 351 351" fill="none" xmlns="http://www.w3.org/2000/svg">
<g clip-path="url(#clip0_0_802)">
<path d="M274.151 220.853C274.711 221.051 275.294 221.151 275.884 221.151C278.08 221.151 280.049 219.758 280.782 217.684C281.736 214.983 280.315 212.009 277.614 211.054L257.392 203.908C256.306 185.775 242.788 170.946 225.265 167.839C234.707 156.728 241.073 142.829 241.631 129.638C249.09 129.535 255.128 123.444 255.128 115.962V99.3167C255.12 96.6329 254.016 94.1488 252.184 92.3543L253.953 64.0304C253.96 63.9224 253.964 63.8143 253.964 63.7063C253.964 32.175 228.311 6.52246 196.78 6.52246H154.805C123.274 6.52246 97.6213 32.175 97.6213 63.7063C97.6213 63.8143 97.6247 63.923 97.6316 64.0317L99.4198 92.5703C97.7115 94.347 96.7046 96.7409 96.6964 99.3324V115.962C96.6964 123.443 102.733 129.534 110.189 129.638C110.71 142.81 117.047 156.721 126.467 167.856C108.989 170.999 95.5158 185.807 94.4324 203.909L40.7197 222.886C22.2115 229.426 8.47058 245.485 4.85916 264.795C4.60418 266.159 4.89608 267.541 5.67948 268.686C6.46424 269.831 7.64754 270.602 9.01131 270.857C9.32849 270.917 9.65252 270.947 9.97175 270.947C12.4689 270.947 14.6147 269.163 15.0741 266.705C18.006 251.029 29.1595 237.993 44.1815 232.684L94.353 214.956V226.977C85.0897 229.447 77.9694 237.586 77.1949 247.518L73.122 299.79C72.9347 302.197 73.7667 304.594 75.4066 306.367C77.0458 308.138 79.3707 309.155 81.7838 309.155H88.7551C91.62 309.155 93.9511 306.824 93.9511 303.959C93.9511 301.094 91.62 298.763 88.7551 298.763H83.6254L87.5554 248.326C88.0681 241.747 93.6394 236.593 100.238 236.593C106.837 236.593 112.407 241.747 112.921 248.326L116.851 298.763H111.721C108.856 298.763 106.525 301.094 106.525 303.959C106.525 306.824 108.856 309.155 111.721 309.155H118.692C121.107 309.155 123.432 308.138 125.07 306.367C126.71 304.594 127.543 302.197 127.355 299.791L123.281 247.518C122.469 237.098 114.673 228.648 104.744 226.652V211.285L121.058 205.52L170.442 322.229C170.443 322.23 170.442 322.229 170.443 322.23C170.508 322.384 170.58 322.534 170.66 322.681C171.563 324.346 173.137 325.457 174.977 325.727C175.265 325.773 175.551 325.796 175.85 325.796L175.893 325.727L175.934 325.796H175.978H175.979C176.273 325.796 176.537 325.777 176.787 325.737C178.665 325.461 180.259 324.347 181.162 322.682C181.242 322.535 181.314 322.385 181.378 322.231L230.763 205.521L247.077 211.286V256.667C235.246 259.353 226.386 269.948 226.386 282.58C226.386 297.234 238.307 309.156 252.962 309.156C267.617 309.156 279.539 297.234 279.539 282.58C279.539 269.461 269.984 258.54 257.469 256.393V214.958L274.151 220.853ZM243.885 104.498C244.169 104.435 244.453 104.363 244.736 104.275V115.959C244.736 117.689 243.402 119.118 241.684 119.244L241.683 104.736L241.766 104.737C242.453 104.737 243.145 104.657 243.834 104.508C243.851 104.505 243.868 104.502 243.885 104.498ZM110.138 119.244C108.421 119.118 107.086 117.689 107.086 115.959V104.329C107.27 104.381 107.455 104.425 107.641 104.466C107.674 104.474 107.706 104.484 107.739 104.491C108.073 104.563 108.409 104.613 108.747 104.65C108.758 104.651 108.771 104.653 108.782 104.654C109.143 104.692 109.505 104.718 109.868 104.718C109.958 104.718 110.049 104.717 110.139 104.715L110.138 119.244ZM117.459 63.1239C116.464 63.1239 115.495 63.4076 114.656 63.9442C113.157 64.904 112.263 66.5398 112.263 68.3199V88.8728C112.263 89.097 112.249 89.3199 112.228 89.5407C112.222 89.5988 112.215 89.6569 112.208 89.715C112.186 89.8989 112.157 90.0814 112.121 90.2618C112.113 90.3015 112.107 90.3411 112.098 90.3801C112.052 90.5941 111.995 90.8053 111.928 91.0131C111.912 91.0644 111.893 91.1143 111.875 91.1649C111.822 91.3194 111.763 91.4711 111.699 91.6215C111.67 91.6912 111.64 91.761 111.608 91.83C111.541 91.9749 111.468 92.1164 111.392 92.2559C111.329 92.37 111.262 92.4822 111.193 92.5929C111.133 92.6893 111.072 92.785 111.007 92.8786C110.867 93.0817 110.717 93.2758 110.558 93.4617C110.538 93.4836 110.522 93.5075 110.503 93.5294C110.322 93.7359 110.13 93.9314 109.929 94.1139L108.013 63.5477C108.097 37.833 129.088 16.9124 154.805 16.9124H196.779C222.496 16.9124 243.486 37.833 243.571 63.543L241.654 94.1262C241.296 93.8022 240.969 93.4392 240.68 93.0448C240.679 93.0441 240.679 93.0434 240.679 93.0427C240.639 92.9887 240.605 92.932 240.567 92.8773C240.48 92.7495 240.394 92.6209 240.315 92.4883C240.276 92.4234 240.24 92.3564 240.203 92.2901C240.124 92.1458 240.048 91.9995 239.979 91.8505C239.957 91.8013 239.933 91.7528 239.911 91.7035C239.73 91.2879 239.589 90.8552 239.49 90.4102C239.48 90.3658 239.472 90.3213 239.463 90.2769C239.427 90.0978 239.399 89.9173 239.377 89.7348C239.37 89.6787 239.363 89.6227 239.357 89.5659C239.336 89.341 239.322 89.1148 239.322 88.8865C239.322 84.4342 236.855 80.4017 232.885 78.3619C232.262 78.0413 231.611 77.7781 230.944 77.573C229.832 77.2319 228.673 77.0555 227.518 77.0555C225.08 77.0555 222.739 77.8102 220.747 79.2369C214.893 83.4314 206.801 85.5581 196.693 85.5581C190.74 85.5581 182.641 84.802 172.03 82.3766C169.203 81.7306 166.204 80.9698 163.013 80.0681C162.992 80.062 162.969 80.0551 162.947 80.049C155.377 77.9087 146.765 75.0027 137.011 71.0973C132.945 69.469 128.671 67.6595 124.201 65.6676C122.698 64.9976 121.181 64.314 119.632 63.6004C118.945 63.2846 118.214 63.1239 117.459 63.1239ZM120.533 127.888L120.53 117.987L120.532 97.2242C121.224 95.9555 121.751 94.6013 122.109 93.1917C122.11 93.1883 122.111 93.1849 122.112 93.1808C122.196 92.8486 122.27 92.5136 122.335 92.1752C122.34 92.1486 122.346 92.1219 122.351 92.0952C122.408 91.7856 122.458 91.4732 122.499 91.1587C122.505 91.1088 122.514 91.0596 122.52 91.0097C122.555 90.7164 122.583 90.4211 122.603 90.1244C122.608 90.0609 122.615 89.9973 122.62 89.933C122.641 89.581 122.653 89.2276 122.653 88.8721V76.3487C148.894 87.8324 171.376 94.332 189.476 95.6663C191.846 95.8413 194.178 95.9302 196.404 95.9302C208.935 95.9302 219.161 93.1555 226.798 87.6833C227.023 87.5227 227.263 87.4414 227.511 87.4414C227.716 87.4414 227.927 87.496 228.136 87.6034C228.433 87.7558 228.931 88.1249 228.931 88.8844C228.931 89.2508 228.944 89.6159 228.967 89.9782C228.972 90.0711 228.983 90.1634 228.99 90.2564C229.011 90.5332 229.038 90.8087 229.072 91.0828C229.084 91.1765 229.098 91.2701 229.112 91.3638C229.151 91.6448 229.198 91.9244 229.251 92.2026C229.266 92.2785 229.281 92.3543 229.296 92.4302C229.361 92.7447 229.434 93.0564 229.516 93.366C229.525 93.4009 229.533 93.4358 229.543 93.4706C229.94 94.939 230.528 96.3417 231.29 97.6508V127.756C231.29 144.465 218.36 164.134 202.786 173.64C202.68 173.705 202.574 173.767 202.468 173.83C202.039 174.088 201.607 174.336 201.174 174.578C200.987 174.682 200.799 174.787 200.612 174.887C200.227 175.095 199.84 175.294 199.453 175.489C199.269 175.582 199.086 175.679 198.902 175.768C198.365 176.029 197.826 176.278 197.285 176.513C197.115 176.587 196.946 176.653 196.776 176.724C196.379 176.89 195.981 177.051 195.583 177.203C195.377 177.282 195.172 177.356 194.967 177.429C194.581 177.569 194.194 177.701 193.807 177.825C193.624 177.884 193.442 177.945 193.259 178C192.697 178.172 192.133 178.333 191.57 178.473L190.904 178.639C188.839 179.152 186.989 179.592 185.291 179.955C181.556 180.752 178.555 181.173 175.599 181.173C171.254 181.173 166.804 180.257 160.112 178.57C159.542 178.427 158.974 178.262 158.406 178.087C158.225 178.031 158.044 177.97 157.864 177.91C157.47 177.782 157.076 177.647 156.684 177.503C156.48 177.429 156.276 177.352 156.071 177.274C155.683 177.124 155.295 176.966 154.909 176.803C154.723 176.724 154.537 176.649 154.351 176.567C153.825 176.335 153.301 176.092 152.778 175.836C152.74 175.818 152.702 175.801 152.664 175.783C152.08 175.494 151.498 175.189 150.919 174.87C150.829 174.821 150.74 174.768 150.65 174.718C150.137 174.431 149.626 174.137 149.119 173.828C149.061 173.793 149.003 173.757 148.945 173.721C133.421 164.195 120.533 144.544 120.533 127.888ZM201.366 199.579L175.91 217.027L150.453 199.578C151.112 198.315 151.46 196.889 151.46 195.448L151.462 186.635C151.71 186.736 151.959 186.827 152.207 186.924C152.604 187.077 153 187.228 153.4 187.37C153.908 187.552 154.415 187.724 154.922 187.886C155.137 187.955 155.351 188.022 155.567 188.087C156.237 188.29 156.906 188.482 157.571 188.651C164.935 190.507 170.245 191.582 175.596 191.582C179.568 191.582 183.512 190.993 188.303 189.936C189.9 189.584 191.591 189.179 193.409 188.727L194.076 188.562C194.743 188.396 195.415 188.205 196.088 188.003C196.316 187.934 196.543 187.864 196.77 187.792C197.226 187.648 197.681 187.494 198.136 187.334C198.656 187.152 199.174 186.958 199.69 186.757C199.912 186.67 200.135 186.589 200.357 186.499L200.358 195.45C200.358 196.891 200.707 198.317 201.366 199.579ZM105.44 200.016C108.298 187.216 119.741 177.617 133.39 177.617H136.429C137.939 178.838 139.487 179.985 141.071 181.051L141.07 193.144L140.675 192.873C138.642 191.479 136.255 190.742 133.774 190.742C132.388 190.742 131.026 190.974 129.726 191.434L105.44 200.016ZM130.875 202.05L133.187 201.234C133.379 201.166 133.579 201.132 133.783 201.132C134.147 201.132 134.498 201.24 134.798 201.445L167.182 223.641L163.98 226.195L153.024 234.933C153.018 234.938 153.013 234.944 153.007 234.948L146.868 239.846L130.875 202.05ZM160.301 271.59L151.076 249.786L153.999 247.453L161.533 260.477C161.649 260.677 161.781 260.863 161.915 261.046L160.301 271.59ZM175.911 308.481L168.02 289.833L172.016 263.742H179.806L183.809 289.815L175.911 308.481ZM182.446 253.349H169.416L162.214 240.9L175.911 229.972L189.608 240.9L182.446 253.349ZM191.522 271.59L189.908 261.047C190.042 260.864 190.174 260.679 190.288 260.48L197.824 247.454L200.748 249.787L191.522 271.59ZM204.954 239.845L198.815 234.948C198.809 234.944 198.805 234.938 198.798 234.933L187.843 226.195L184.641 223.641L217.024 201.444C217.323 201.239 217.674 201.131 218.04 201.131C218.243 201.131 218.444 201.165 218.634 201.232L220.946 202.05L204.954 239.845ZM222.096 191.434C220.796 190.976 219.435 190.742 218.048 190.742C215.567 190.742 213.181 191.479 211.148 192.873L210.75 193.147L210.745 180.921C212.273 179.892 213.769 178.789 215.229 177.619H218.433C232.083 177.619 243.525 187.218 246.383 200.017L222.096 191.434ZM269.147 282.577C269.147 291.502 261.887 298.762 252.962 298.762C244.038 298.762 236.777 291.501 236.777 282.577C236.777 273.653 244.039 266.392 252.962 266.392C261.887 266.392 269.147 273.653 269.147 282.577Z" fill="#1F7D3A"/>
<path d="M350.882 328.14L347.796 271.466C346.538 251.66 334.688 233.969 316.871 225.299C316.155 224.95 315.391 224.774 314.601 224.774C312.595 224.774 310.803 225.893 309.925 227.697C308.671 230.273 309.747 233.389 312.323 234.643C326.784 241.681 336.401 256.025 337.422 272.078L340.507 328.752C340.608 330.35 340.062 331.872 338.968 333.038C337.878 334.198 336.402 334.838 334.814 334.838H297.326V280.104C297.326 277.239 294.995 274.908 292.13 274.908C289.265 274.908 286.934 277.239 286.934 280.104V334.838H64.2191V280.104C64.2191 277.239 61.888 274.908 59.0231 274.908C56.1582 274.908 53.8271 277.239 53.8271 280.104V334.838H17.0102C15.4202 334.838 13.945 334.198 12.856 333.038C11.7623 331.872 11.2168 330.333 11.32 328.705L12.5867 305.439C12.7425 302.578 10.5407 300.124 7.68053 299.968C7.58004 299.962 7.4816 299.959 7.38248 299.959C4.6317 299.959 2.35944 302.118 2.20905 304.874L0.945091 328.092C0.664134 332.52 2.24323 336.915 5.2777 340.148C8.30807 343.377 12.5839 345.229 17.0102 345.229H334.814C339.24 345.229 343.515 343.378 346.546 340.148C349.581 336.914 351.161 332.537 350.882 328.14Z" fill="#1F7D3A"/>
</g>
<defs>
<clipPath id="clip0_0_802">
<rect width="350" height="350" fill="white" transform="translate(0.912109 0.875977)"/>
</clipPath>
</defs>
</svg>
