<svg width="351" height="351" viewBox="0 0 351 351" fill="none" xmlns="http://www.w3.org/2000/svg">
<g clip-path="url(#clip0_0_782)">
<path d="M175.693 136.767H159.287V120.361C159.287 117.337 156.837 114.892 153.818 114.892H131.943C128.924 114.892 126.474 117.337 126.474 120.361V136.767H110.068C107.049 136.767 104.599 139.212 104.599 142.236V164.111C104.599 167.135 107.049 169.58 110.068 169.58H126.474V185.986C126.474 189.01 128.924 191.455 131.943 191.455H153.818C156.837 191.455 159.287 189.01 159.287 185.986V169.58H175.693C178.712 169.58 181.162 167.135 181.162 164.111V142.236C181.162 139.212 178.712 136.767 175.693 136.767ZM170.224 158.642H153.818C150.799 158.642 148.349 161.087 148.349 164.111V180.517H137.412V164.111C137.412 161.087 134.962 158.642 131.943 158.642H115.537V147.705H131.943C134.962 147.705 137.412 145.26 137.412 142.236V125.83H148.349V142.236C148.349 145.26 150.799 147.705 153.818 147.705H170.224V158.642Z" fill="#1F7D3A"/>
<path d="M345.224 213.33H274.13V103.955H279.599C282.618 103.955 285.068 101.51 285.068 98.4858V71.1421C285.068 68.1179 282.618 65.6733 279.599 65.6733H235.849V54.7358H246.787C249.805 54.7358 252.255 52.2913 252.255 49.2671V5.51709C252.255 2.49287 249.805 0.0483398 246.787 0.0483398H38.9741C35.9554 0.0483398 33.5054 2.49287 33.5054 5.51709V49.2671C33.5054 52.2913 35.9554 54.7358 38.9741 54.7358H49.9116V65.6733H6.16162C3.14287 65.6733 0.692871 68.1179 0.692871 71.1421V98.4858C0.692871 101.51 3.14287 103.955 6.16162 103.955H11.6304V344.58C11.6304 347.604 14.0804 350.048 17.0991 350.048H334.287C337.305 350.048 339.755 347.604 339.755 344.58V251.611H345.224C348.243 251.611 350.693 249.166 350.693 246.142V218.798C350.693 215.774 348.243 213.33 345.224 213.33ZM224.912 65.6733H213.974V54.7358H224.912V65.6733ZM203.037 54.7358V65.6733H82.7241V54.7358H203.037ZM44.4429 10.9858H241.318V43.7983H44.4429V10.9858ZM60.8491 54.7358H71.7866V65.6733H60.8491V54.7358ZM11.6304 76.6108H274.13V93.0171H11.6304V76.6108ZM203.037 213.33V240.673H192.099V213.33H203.037ZM181.162 240.673H153.818V213.33H181.162V240.673ZM142.88 240.673H115.537V213.33H142.88V240.673ZM104.599 240.673H77.2554V213.33H104.599V240.673ZM66.3179 240.673H44.4429V213.33H66.3179V240.673ZM33.5054 240.673H22.5679V213.33H33.5054V240.673ZM186.63 295.361V339.111H142.88V295.361H186.63ZM77.2554 284.423V273.486H197.568V284.423H77.2554ZM131.943 295.361V339.111H88.1929V295.361H131.943ZM263.193 339.111H197.568V295.361H203.037C206.055 295.361 208.505 292.916 208.505 289.892V268.017C208.505 264.993 206.055 262.548 203.037 262.548H71.7866C68.7679 262.548 66.3179 264.993 66.3179 268.017V289.892C66.3179 292.916 68.7679 295.361 71.7866 295.361H77.2554V339.111H22.5679V251.611H208.505C211.524 251.611 213.974 249.166 213.974 246.142V207.861C213.974 204.837 211.524 202.392 208.505 202.392H22.5679V103.955H263.193V339.111ZM339.755 240.673H285.068C282.049 240.673 279.599 243.118 279.599 246.142C279.599 249.166 282.049 251.611 285.068 251.611H328.818V339.111H274.13V224.267H339.755V240.673Z" fill="#1F7D3A"/>
<path d="M285.068 317.236H317.88C320.899 317.236 323.349 314.791 323.349 311.767V268.017C323.349 264.993 320.899 262.548 317.88 262.548H285.068C282.049 262.548 279.599 264.993 279.599 268.017V311.767C279.599 314.791 282.049 317.236 285.068 317.236ZM290.537 295.361H296.005V306.298H290.537V295.361ZM306.943 306.298V295.361H312.412V306.298H306.943ZM312.412 284.423H306.943V273.486H312.412V284.423ZM296.005 273.486V284.423H290.537V273.486H296.005Z" fill="#1F7D3A"/>
<path d="M246.787 120.361H224.912C221.893 120.361 219.443 122.805 219.443 125.83V147.705C219.443 150.729 221.893 153.173 224.912 153.173H246.787C249.805 153.173 252.255 150.729 252.255 147.705V125.83C252.255 122.805 249.805 120.361 246.787 120.361ZM241.318 142.236H230.38V131.298H241.318V142.236Z" fill="#1F7D3A"/>
<path d="M246.787 164.111H224.912C221.893 164.111 219.443 166.555 219.443 169.58V191.455C219.443 194.479 221.893 196.923 224.912 196.923H246.787C249.805 196.923 252.255 194.479 252.255 191.455V169.58C252.255 166.555 249.805 164.111 246.787 164.111ZM241.318 185.986H230.38V175.048H241.318V185.986Z" fill="#1F7D3A"/>
<path d="M246.787 207.861H224.912C221.893 207.861 219.443 210.305 219.443 213.33V235.205C219.443 238.229 221.893 240.673 224.912 240.673H246.787C249.805 240.673 252.255 238.229 252.255 235.205V213.33C252.255 210.305 249.805 207.861 246.787 207.861ZM241.318 229.736H230.38V218.798H241.318V229.736Z" fill="#1F7D3A"/>
<path d="M246.787 251.611H224.912C221.893 251.611 219.443 254.055 219.443 257.08V278.955C219.443 281.979 221.893 284.423 224.912 284.423H246.787C249.805 284.423 252.255 281.979 252.255 278.955V257.08C252.255 254.055 249.805 251.611 246.787 251.611ZM241.318 273.486H230.38V262.548H241.318V273.486Z" fill="#1F7D3A"/>
<path d="M246.787 295.361H224.912C221.893 295.361 219.443 297.805 219.443 300.83V322.705C219.443 325.729 221.893 328.173 224.912 328.173H246.787C249.805 328.173 252.255 325.729 252.255 322.705V300.83C252.255 297.805 249.805 295.361 246.787 295.361ZM241.318 317.236H230.38V306.298H241.318V317.236Z" fill="#1F7D3A"/>
<path d="M224.912 21.9233H60.8491C57.8304 21.9233 55.3804 24.3679 55.3804 27.3921C55.3804 30.4163 57.8304 32.8608 60.8491 32.8608H224.912C227.93 32.8608 230.38 30.4163 230.38 27.3921C230.38 24.3679 227.93 21.9233 224.912 21.9233Z" fill="#1F7D3A"/>
</g>
<defs>
<clipPath id="clip0_0_782">
<rect width="350" height="350" fill="white" transform="translate(0.692871 0.0483398)"/>
</clipPath>
</defs>
</svg>
