<svg width="351" height="350" viewBox="0 0 351 350" fill="none" xmlns="http://www.w3.org/2000/svg">
<path d="M339.664 196.875C339.677 182.295 335.522 168.016 327.691 155.718C319.859 143.42 308.676 133.617 295.459 127.462C282.242 121.308 267.541 119.059 253.089 120.98C238.636 122.9 225.033 128.911 213.883 138.305C200.123 126.671 182.683 120.295 164.664 120.312V54.6875C164.651 50.3403 162.919 46.1748 159.845 43.1009C156.771 40.0269 152.605 38.2942 148.258 38.2812H49.8204C45.4732 38.2942 41.3077 40.0269 38.2338 43.1009C35.1598 46.1748 33.4271 50.3403 33.4141 54.6875V97.3984L12.6329 149.242C11.9222 151.169 11.5521 153.204 11.5391 155.258V211.477C11.5248 217.395 13.4452 223.156 17.0079 227.883L20.6173 232.695C22.8562 235.694 24.4617 239.116 25.336 242.754C26.2104 246.393 26.3353 250.171 25.7032 253.859L17.0626 332.992C16.9806 333.759 17.0599 334.535 17.2953 335.27C17.5308 336.004 17.9172 336.681 18.4298 337.258C18.9411 337.824 19.5653 338.278 20.2622 338.588C20.9592 338.899 21.7135 339.061 22.4766 339.062H82.6329C83.4105 339.068 84.18 338.905 84.8882 338.584C85.5964 338.263 86.2264 337.792 86.7345 337.203C87.2506 336.631 87.6355 335.952 87.8622 335.215C88.0889 334.479 88.152 333.701 88.047 332.938L77.8204 249.484C77.5821 248.073 77.8954 246.624 78.6954 245.438L81.922 240.625H101.172C104.467 246.332 108.139 251.813 112.164 257.031H93.5704V267.969H121.297C153.563 303.898 199.883 330.148 213.883 330.148C228.102 330.148 274.531 304.281 306.797 267.969H334.195V257.031H315.82C329.93 238.492 339.664 217.875 339.664 196.875ZM67.8126 200.758L70.7657 203.711C71.3891 204.295 71.9567 204.936 72.461 205.625C72.461 205.68 72.5157 205.68 72.5704 205.68L72.5157 205.734C75.5164 209.557 77.1527 214.273 77.1641 219.133V221.43C77.1706 225.75 75.8955 229.975 73.5001 233.57L69.6173 239.367C67.2962 242.796 66.3764 246.984 67.047 251.07L76.4532 328.125H28.6016L36.5313 255.391C37.3556 250.283 37.1463 245.061 35.9157 240.035C34.6851 235.01 32.4583 230.282 29.3673 226.133L25.7579 221.32C23.6343 218.477 22.4837 215.025 22.4766 211.477V155.258C22.4659 154.547 22.596 153.84 22.8595 153.18L33.4141 126.82V161.82C33.4213 164.707 34.5601 167.475 36.586 169.531L42.9298 175.875C44.669 177.589 46.9263 178.679 49.3498 178.976C51.7733 179.272 54.2269 178.759 56.3282 177.516L63.547 173.141L73.4454 167.234C74.2859 166.757 75.2595 166.568 76.2174 166.697C77.1754 166.825 78.0649 167.264 78.7501 167.945C79.467 168.634 79.924 169.549 80.0436 170.535C80.1632 171.522 79.9381 172.52 79.4063 173.359L66.9923 194.086C66.3796 195.134 66.128 196.355 66.2762 197.56C66.4244 198.766 66.9642 199.889 67.8126 200.758ZM79.4063 196.875C79.1329 196.602 78.8595 196.328 78.586 196L88.8126 178.992C90.5838 176.05 91.3199 172.599 90.9037 169.19C90.4875 165.781 88.9429 162.609 86.5157 160.18C84.0569 157.822 80.9005 156.324 77.5191 155.909C74.1376 155.495 70.713 156.188 67.7579 157.883L66.2266 158.813V71.0938H131.852V196.875H79.4063ZM86.9532 229.688C87.6943 226.997 88.0804 224.221 88.1016 221.43V219.133C88.0734 215.267 87.3701 211.436 86.0235 207.812H137.32C138.771 207.812 140.162 207.236 141.187 206.211C142.213 205.185 142.789 203.794 142.789 202.344V65.625C142.789 64.1746 142.213 62.7836 141.187 61.758C140.162 60.7324 138.771 60.1562 137.32 60.1562H60.7579C59.3075 60.1562 57.9165 60.7324 56.8909 61.758C55.8653 62.7836 55.2891 64.1746 55.2891 65.625V165.32L50.6954 168.109L44.3516 161.82V54.6875C44.3516 53.2371 44.9278 51.8461 45.9534 50.8205C46.979 49.7949 48.37 49.2188 49.8204 49.2188H148.258C149.708 49.2188 151.099 49.7949 152.125 50.8205C153.15 51.8461 153.727 53.2371 153.727 54.6875V224.219C153.727 225.669 153.15 227.06 152.125 228.086C151.099 229.111 149.708 229.688 148.258 229.688H86.9532ZM213.883 319.211C205.188 319.211 166.469 298.484 136.227 267.969H170.133C171.187 267.976 172.22 267.674 173.104 267.1C173.988 266.527 174.686 265.707 175.109 264.742L191.297 228.375L214.156 297.062C214.523 298.149 215.222 299.092 216.154 299.759C217.087 300.427 218.205 300.784 219.352 300.781H219.57C220.751 300.722 221.881 300.287 222.797 299.539C223.712 298.791 224.364 297.77 224.656 296.625L245.219 214.375L252.219 263.266C252.403 264.57 253.053 265.764 254.047 266.629C255.042 267.493 256.315 267.969 257.633 267.969H291.649C261.789 298.102 223.234 319.211 213.883 319.211ZM301.711 257.031H262.391L252.109 185.172C251.921 183.918 251.308 182.766 250.372 181.91C249.436 181.054 248.235 180.545 246.969 180.469C245.701 180.407 244.451 180.787 243.434 181.546C242.416 182.304 241.694 183.393 241.391 184.625L218.586 275.789L197.203 211.531C196.852 210.488 196.195 209.575 195.317 208.912C194.439 208.248 193.381 207.865 192.281 207.812C191.188 207.786 190.111 208.077 189.179 208.65C188.248 209.222 187.502 210.052 187.031 211.039L166.578 257.031H126.164C121.7 251.857 117.607 246.375 113.914 240.625H148.258C152.605 240.612 156.771 238.879 159.845 235.805C162.919 232.731 164.651 228.566 164.664 224.219V131.25C181.612 131.25 197.9 137.816 210.109 149.57C211.127 150.54 212.478 151.081 213.883 151.081C215.288 151.081 216.639 150.54 217.656 149.57C226.93 140.651 238.623 134.655 251.279 132.331C263.934 130.006 276.994 131.455 288.833 136.497C300.671 141.539 310.765 149.952 317.859 160.687C324.952 171.423 328.732 184.008 328.727 196.875C328.727 217.875 317.352 238.711 301.711 257.031Z" fill="#1F7D3A"/>
<path d="M120.914 114.844C120.914 110.517 119.631 106.288 117.227 102.691C114.824 99.0933 111.407 96.2896 107.41 94.6339C103.413 92.9782 99.0148 92.545 94.7715 93.3891C90.5281 94.2331 86.6304 96.3165 83.5711 99.3758C80.5118 102.435 78.4284 106.333 77.5844 110.576C76.7403 114.819 77.1735 119.218 78.8292 123.215C80.4849 127.212 83.2887 130.629 86.886 133.032C90.4833 135.436 94.7126 136.719 99.0391 136.719C104.841 136.719 110.405 134.414 114.507 130.312C118.609 126.209 120.914 120.645 120.914 114.844ZM88.1016 114.844C88.1016 112.681 88.743 110.566 89.9449 108.767C91.1467 106.969 92.8549 105.567 94.8535 104.739C96.852 103.911 99.0512 103.694 101.173 104.116C103.295 104.538 105.243 105.58 106.773 107.11C108.303 108.639 109.344 110.588 109.766 112.71C110.188 114.832 109.972 117.031 109.144 119.029C108.316 121.028 106.914 122.736 105.116 123.938C103.317 125.14 101.202 125.781 99.0391 125.781C96.1383 125.781 93.3563 124.629 91.3051 122.578C89.2539 120.527 88.1016 117.745 88.1016 114.844Z" fill="#1F7D3A"/>
<path d="M238.962 90.7047C237.433 92.2342 236.391 94.1831 235.968 96.3048C235.546 98.4266 235.762 100.626 236.59 102.625C237.418 104.623 238.82 106.332 240.618 107.534C242.417 108.736 244.532 109.377 246.695 109.377C248.859 109.377 250.973 108.736 252.772 107.534C254.571 106.332 255.973 104.623 256.801 102.625C257.628 100.626 257.845 98.4266 257.422 96.3048C257 94.1831 255.958 92.2342 254.428 90.7047C252.377 88.6542 249.596 87.5023 246.695 87.5023C243.795 87.5023 241.014 88.6542 238.962 90.7047Z" fill="#1F7D3A"/>
<path d="M269.899 75.2336C263.74 69.0882 255.395 65.6369 246.695 65.6369C237.995 65.6369 229.65 69.0882 223.491 75.2336L231.224 82.9664C235.332 78.8715 240.895 76.5721 246.695 76.5721C252.495 76.5721 258.059 78.8715 262.166 82.9664L269.899 75.2336Z" fill="#1F7D3A"/>
<path d="M285.365 59.768C275.109 49.5123 261.199 43.7507 246.695 43.7507C232.192 43.7507 218.282 49.5123 208.026 59.768L215.759 67.5008C219.821 63.438 224.644 60.2152 229.952 58.0164C235.261 55.8176 240.95 54.6859 246.695 54.6859C252.441 54.6859 258.13 55.8176 263.438 58.0164C268.746 60.2152 273.57 63.438 277.632 67.5008L285.365 59.768Z" fill="#1F7D3A"/>
<path d="M293.098 52.0352L300.836 44.2969C286.468 29.9557 266.996 21.9011 246.695 21.9011C226.395 21.9011 206.923 29.9557 192.555 44.2969L200.288 52.0297C212.605 39.74 229.294 32.8385 246.694 32.8395C264.093 32.8405 280.782 39.744 293.098 52.0352Z" fill="#1F7D3A"/>
</svg>
