<svg width="51" height="51" viewBox="0 0 51 51" fill="none" xmlns="http://www.w3.org/2000/svg">
<path d="M25.2615 39.7351C24.9436 39.7351 24.6443 39.539 24.5287 39.2234C23.4678 36.332 21.5342 34.0156 19.4873 31.5632C17.6459 29.357 15.742 27.0765 14.5365 24.3414C14.3623 23.9461 14.542 23.4851 14.9365 23.3117C15.3334 23.1375 15.7936 23.3171 15.9662 23.7117C17.0826 26.2445 18.8334 28.3421 20.6865 30.5625C22.7287 33.0101 24.8404 35.5398 25.9951 38.6851C26.1436 39.0906 25.9365 39.5398 25.5311 39.6875C25.4412 39.7195 25.3506 39.7351 25.2615 39.7351Z" fill="#1F7D3A"/>
<path d="M25.2614 39.7356C25.1723 39.7356 25.0817 39.7199 24.9918 39.6871C24.5864 39.5395 24.3793 39.0895 24.5278 38.6848C25.6825 35.5395 27.7942 33.009 29.8364 30.5621C31.6895 28.3418 33.4403 26.2449 34.5567 23.7113C34.7309 23.3168 35.1903 23.1379 35.5864 23.3113C35.9809 23.4856 36.1598 23.9465 35.9864 24.341C34.7809 27.0762 32.8778 29.3567 31.0356 31.5629C28.9887 34.0153 27.0551 36.3317 25.9942 39.2231C25.8785 39.5395 25.5793 39.7356 25.2614 39.7356Z" fill="#1F7D3A"/>
<path d="M25.2615 25.8701C21.8732 25.8701 19.0115 23.0084 19.0115 19.6201C19.0115 16.2318 21.8732 13.3701 25.2615 13.3701C28.6498 13.3701 31.5115 16.2318 31.5115 19.6201C31.5115 23.0084 28.6498 25.8701 25.2615 25.8701ZM25.2615 14.9326C22.7208 14.9326 20.574 17.0795 20.574 19.6201C20.574 22.1607 22.7208 24.3076 25.2615 24.3076C27.8021 24.3076 29.949 22.1607 29.949 19.6201C29.949 17.0795 27.8021 14.9326 25.2615 14.9326Z" fill="#1F7D3A"/>
<path d="M35.2709 24.8072C35.1662 24.8072 35.0592 24.7861 34.9568 24.7408C34.5623 24.5666 34.3834 24.1057 34.5568 23.7111C35.8584 20.7541 35.6467 17.4119 33.974 14.5408C32.3014 11.6705 29.499 9.83769 26.2842 9.51191C23.1365 9.19394 19.9654 10.3885 17.8115 12.7119C15.0982 15.6377 14.3568 20.0572 15.9654 23.7111C16.1397 24.1064 15.96 24.5674 15.5654 24.7408C15.1662 24.9158 14.7084 24.7346 14.5357 24.3408C12.6795 20.1252 13.5357 15.0244 16.6662 11.6494C19.1522 8.96894 22.8107 7.59472 26.442 7.95644C30.1607 8.333 33.3975 10.4471 35.324 13.7533C37.2514 17.0603 37.4928 20.9197 35.9873 24.3408C35.8576 24.6338 35.5717 24.8072 35.2709 24.8072Z" fill="#1F7D3A"/>
<path d="M25.2974 43.8309C22.6138 43.8309 19.3669 43.6333 16.406 42.5755C15.2396 42.1583 11.6911 40.8888 12.4974 38.2825C12.7216 37.5583 13.2997 36.9044 14.2161 36.3403C15.663 35.4497 17.2731 35.0349 18.6685 34.7169C19.0864 34.6184 19.5075 34.8825 19.6036 35.3044C19.6997 35.7247 19.4364 36.1434 19.0161 36.2395C17.4356 36.6005 16.1536 36.9817 15.0349 37.6708C14.4583 38.0255 14.0966 38.3973 13.9888 38.745C13.7474 39.5255 14.7372 40.32 16.9317 41.1052C20.0216 42.2098 23.5341 42.302 26.2403 42.2614C29.9372 42.2052 32.7825 41.6442 34.938 40.5473C35.5403 40.2411 36.8958 39.4372 36.4685 38.5958C35.7607 37.202 33.3458 36.6567 31.7474 36.295L31.5052 36.2403C31.0849 36.145 30.8216 35.7263 30.9177 35.3052C31.013 34.8856 31.4271 34.6169 31.8528 34.7177L32.0911 34.7716C33.9747 35.1966 36.8216 35.8403 37.8614 37.8888C38.5997 39.3442 37.7724 40.8591 35.6458 41.9411C33.2739 43.1481 30.2052 43.7645 26.2646 43.8247C25.9528 43.8278 25.6294 43.8309 25.2974 43.8309Z" fill="#1F7D3A"/>
</svg>
