<svg width="33" height="33" viewBox="0 0 33 33" fill="none" xmlns="http://www.w3.org/2000/svg">
<g clip-path="url(#clip0_23_707)">
<path d="M29.0136 32.8413H4.34713C2.32445 32.8413 0.680664 31.1973 0.680664 29.1748V9.84152C0.680664 7.81883 2.32445 6.17505 4.34713 6.17505H9.01383C9.56583 6.17505 10.0138 6.62304 10.0138 7.17504C10.0138 7.72704 9.56583 8.17503 9.01383 8.17503H4.34713C3.42844 8.17503 2.68064 8.92282 2.68064 9.84152V29.1748C2.68064 30.0933 3.42844 30.8413 4.34713 30.8413H29.0136C29.9323 30.8413 30.6804 30.0933 30.6804 29.1748V17.8414C30.6804 17.2894 31.1284 16.8414 31.6804 16.8414C32.2324 16.8414 32.6803 17.2894 32.6803 17.8414V29.1748C32.6803 31.1973 31.0363 32.8413 29.0136 32.8413Z" fill="black"/>
<path d="M9.67821 22.1575C9.60497 22.1575 9.53149 22.1494 9.45824 22.1306C9.00634 22.0254 8.67969 21.6387 8.67969 21.1748V19.1749C8.67969 12.007 14.5117 6.175 21.6796 6.175H22.0128V1.84154C22.0128 1.43359 22.2609 1.06689 22.6395 0.913575C23.0167 0.761721 23.45 0.853517 23.7328 1.14819L32.3994 10.1481C32.7727 10.5348 32.7727 11.1481 32.3994 11.5348L23.7328 20.5347C23.45 20.8294 23.014 20.9202 22.6395 20.7693C22.2609 20.616 22.0128 20.2493 22.0128 19.8414V15.5082H20.4288C16.2343 15.5082 12.4648 17.8387 10.5903 21.5894C10.4182 21.9361 10.0569 22.1575 9.67821 22.1575ZM21.6796 8.17498C16.0795 8.17498 11.4424 12.3815 10.7637 17.8013C13.1875 15.0975 16.6635 13.5082 20.4288 13.5082H23.0128C23.5648 13.5082 24.0128 13.9562 24.0128 14.5082V17.3614L30.2913 10.8415L24.0128 4.3215V7.17499C24.0128 7.72698 23.5648 8.17498 23.0128 8.17498H21.6796Z" fill="black"/>
</g>
<defs>
<clipPath id="clip0_23_707">
<rect width="32" height="32" fill="white" transform="translate(0.679688 0.841309)"/>
</clipPath>
</defs>
</svg>
