<svg width="33" height="33" viewBox="0 0 33 33" fill="none" xmlns="http://www.w3.org/2000/svg">
<path d="M13.0564 17.0593C12.7063 17.4487 10.9604 19.4531 10.9604 20.6699C10.9604 22.0308 12.0674 23.1377 13.4282 23.1377C14.7891 23.1377 15.896 22.0308 15.896 20.6699C15.896 19.4531 14.1501 17.4487 13.8 17.0593C13.6106 16.8484 13.2458 16.8484 13.0564 17.0593ZM13.4282 22.1377C12.6189 22.1377 11.9604 21.4792 11.9604 20.6699C11.9604 20.1492 12.729 19.0146 13.4282 18.1621C14.1274 19.0146 14.896 20.1492 14.896 20.6699C14.896 21.4792 14.2375 22.1377 13.4282 22.1377Z" fill="#1F7D3A"/>
<path d="M26.7546 5.47443C27.1892 5.03937 27.4285 4.46124 27.4285 3.84405C27.4255 3.23077 27.1853 2.6546 26.752 2.22125C25.8555 1.32477 24.3972 1.32526 23.5012 2.22125L22.1836 3.53891L21.0798 2.43512C20.8923 2.24762 20.5603 2.24762 20.3728 2.43512L18.5613 4.24664C18.366 4.44196 18.366 4.75836 18.5613 4.95367L19.665 6.05746L14.7744 10.9481C14.1982 11.5242 13.9749 12.3482 14.1641 13.1226L13.0037 14.2833C12.7781 14.5086 12.6533 14.8079 12.6523 15.1263C12.6514 15.4461 12.7752 15.7464 13.001 15.9722C13.2266 16.1978 13.5269 16.3218 13.8464 16.3218C14.1663 16.3218 14.4666 16.1978 14.6921 15.9722L15.853 14.8113C16.6274 15.0008 17.4512 14.7776 18.0273 14.2012L22.9181 9.3107L24.0217 10.4144C24.1155 10.5081 24.2427 10.5609 24.3753 10.5609C24.5078 10.5609 24.635 10.5081 24.7288 10.4144L26.5403 8.60284C26.7356 8.40753 26.7356 8.09113 26.5403 7.89581L25.4366 6.79205L26.7546 5.47443C26.7546 5.47443 26.7544 5.47443 26.7546 5.47443ZM17.3203 13.4942C16.948 13.8668 16.3916 13.9786 15.9043 13.7794C15.7185 13.7042 15.5044 13.7466 15.3616 13.8887L13.9851 15.2652C13.8867 15.3631 13.8079 15.3646 13.708 15.2652C13.6594 15.2166 13.6523 15.1592 13.6523 15.1295C13.6526 15.0992 13.6602 15.0408 13.7105 14.9905L15.0867 13.6141C15.229 13.4717 15.2722 13.2579 15.1961 13.0713C14.9968 12.5838 15.1089 12.0279 15.4815 11.6551L20.372 6.7645L22.2111 8.60367L17.3203 13.4942ZM24.3753 9.35382L23.2721 8.25064C23.2719 8.25049 23.2719 8.25021 23.2717 8.25006L20.7256 5.70392C20.7255 5.70386 20.7257 5.70398 20.7256 5.70392L19.6218 4.60016L20.7263 3.49567L23.103 5.8725L24.376 7.14557C24.3759 7.14551 24.376 7.14563 24.376 7.14557L25.4797 8.24933L24.3753 9.35382ZM26.0471 4.76739L24.7295 6.08499L23.8101 5.16547L22.8906 4.24591L24.2083 2.92828C24.7146 2.42194 25.5386 2.42194 26.0449 2.92828C26.2905 3.17413 26.4268 3.50104 26.4285 3.8465C26.4285 4.1944 26.293 4.52155 26.0471 4.76739Z" fill="#1F7D3A"/>
<path d="M5.93066 24.4646C5.93066 28.3704 9.10815 31.5479 13.0139 31.5479H13.5583C17.4641 31.5479 20.6416 28.3704 20.6416 24.4646C20.6416 24.1885 20.4177 23.9646 20.1416 23.9646H6.43066C6.15454 23.9646 5.93066 24.1885 5.93066 24.4646ZM19.6213 24.9646C19.3662 28.0859 16.7444 30.5479 13.5583 30.5479H13.0139C9.82788 30.5479 7.20605 28.0859 6.95093 24.9646H19.6213Z" fill="#1F7D3A"/>
</svg>
