<svg width="68" height="68" viewBox="0 0 68 68" fill="none" xmlns="http://www.w3.org/2000/svg">
<g clip-path="url(#clip0_0_1006)">
<path d="M3.02298 37.4065C3.01483 31.9477 4.49223 26.5895 7.29685 21.9062C9.82508 26.656 13.5404 30.6699 18.081 33.557C22.6216 36.444 27.8325 38.1058 33.2062 38.3804C38.5799 38.6551 43.9331 37.5331 48.7443 35.124C53.5555 32.7148 57.6607 29.1006 60.66 24.6334C62.5252 28.6329 63.4888 32.9935 63.4826 37.4065C63.4826 54.1016 49.9492 67.6351 33.2541 67.6351C16.5591 67.6351 3.02298 54.1016 3.02298 37.4065Z" fill="#92F970"/>
<path d="M34.1229 67.9098C27.4979 67.9088 21.022 65.9435 15.5139 62.2624C10.0058 58.5813 5.71282 53.3497 3.1777 47.229C0.642578 41.1083 -0.0208251 34.3733 1.27136 27.8756C2.56355 21.3779 5.7533 15.4093 10.4373 10.7242C15.8834 5.27826 23.0393 1.87466 30.7006 1.08624C38.362 0.29782 46.0611 2.17272 52.5021 6.39539C52.8701 6.62715 53.1882 6.92998 53.4378 7.28615C53.6874 7.64232 53.8635 8.04468 53.9558 8.46971C54.048 8.89474 54.0546 9.33389 53.9752 9.76149C53.8957 10.1891 53.7317 10.5966 53.4929 10.96C53.2541 11.3235 52.9452 11.6358 52.5843 11.8785C52.2234 12.1211 51.8177 12.2894 51.3909 12.3735C50.9642 12.4575 50.525 12.4557 50.099 12.3679C49.673 12.2802 49.2688 12.1085 48.91 11.8627C44.519 8.97671 39.3774 7.44332 34.1229 7.45273C19.2625 7.45273 7.16585 19.5454 7.16585 34.4098C7.16585 49.2741 19.2586 61.3668 34.1229 61.3668C48.9872 61.3668 61.0799 49.2741 61.0799 34.4098C61.0824 31.7831 60.701 29.1701 59.948 26.6537C59.8245 26.2422 59.7833 25.8103 59.8267 25.3828C59.8702 24.9553 59.9974 24.5405 60.2011 24.1622C60.6125 23.3981 61.3106 22.8288 62.1418 22.5794C62.973 22.3301 63.8693 22.4211 64.6334 22.8325C65.3974 23.244 65.9668 23.9421 66.2161 24.7733C67.7169 29.7765 68.0272 35.0612 67.1223 40.2057C66.2174 45.3501 64.1223 50.2118 61.0044 54.4026C57.8865 58.5934 53.832 61.9972 49.1647 64.3425C44.4973 66.6877 39.3463 67.9093 34.1229 67.9098Z" fill="black"/>
<path d="M29.2198 50.4163C28.6148 50.4179 28.0154 50.2994 27.4565 50.0675C26.8977 49.8357 26.3904 49.4952 25.9641 49.0659L14.2757 37.3801C13.9719 37.0763 13.7309 36.7156 13.5664 36.3186C13.402 35.9217 13.3174 35.4962 13.3174 35.0665C13.3174 34.1988 13.6621 33.3665 14.2757 32.7529C14.8893 32.1393 15.7215 31.7946 16.5893 31.7946C17.4571 31.7946 18.2893 32.1393 18.9029 32.7529L29.2198 43.0699L49.3486 22.9359C49.9622 22.3223 50.7945 21.9775 51.6622 21.9775C52.53 21.9775 53.3622 22.3223 53.9758 22.9359C54.5894 23.5495 54.9341 24.3817 54.9341 25.2495C54.9341 26.1172 54.5894 26.9494 53.9758 27.563L32.4769 49.0659C32.0502 49.495 31.5426 49.8353 30.9836 50.0671C30.4245 50.2989 29.825 50.4176 29.2198 50.4163Z" fill="black"/>
</g>
<defs>
<clipPath id="clip0_0_1006">
<rect width="67" height="67" fill="white" transform="translate(0.623047 0.909668)"/>
</clipPath>
</defs>
</svg>
