<svg width="71" height="71" viewBox="0 0 71 71" fill="none" xmlns="http://www.w3.org/2000/svg">
<g clip-path="url(#clip0_0_844)">
<path d="M54.8607 44.5944C54.9728 44.6341 55.0894 44.6542 55.2073 44.6542C55.6465 44.6542 56.0403 44.3755 56.1869 43.9607C56.3777 43.4206 56.0935 42.8257 55.5533 42.6347L51.5089 41.2056C51.2918 37.5789 48.5882 34.6132 45.0835 33.9916C46.9719 31.7694 48.245 28.9898 48.3567 26.3515C49.8484 26.3309 51.0561 25.1127 51.0561 23.6162V20.2872C51.0544 19.7505 50.8338 19.2537 50.4672 18.8948L50.8212 13.23C50.8226 13.2084 50.8232 13.1868 50.8232 13.1652C50.8232 6.85889 45.6928 1.72839 39.3865 1.72839H30.9915C24.6853 1.72839 19.5548 6.85889 19.5548 13.1652C19.5548 13.1868 19.5555 13.2085 19.5568 13.2302L19.9145 18.938C19.5728 19.2933 19.3714 19.7721 19.3698 20.2904V23.6162C19.3698 25.1126 20.577 26.3306 22.0683 26.3515C22.1725 28.986 23.4399 31.768 25.3239 33.9951C21.8283 34.6237 19.1337 37.5853 18.917 41.2057L8.17447 45.001C4.47281 46.3092 1.72463 49.5209 1.00235 53.3828C0.951355 53.6557 1.00973 53.9322 1.16641 54.1612C1.32337 54.39 1.56003 54.5443 1.83278 54.5954C1.89622 54.6073 1.96102 54.6133 2.02487 54.6133C2.5243 54.6133 2.95346 54.2565 3.04533 53.765C3.63172 50.6297 5.86242 48.0225 8.86681 46.9608L18.9011 43.4151V45.8193C17.0485 46.3134 15.6244 47.941 15.4695 49.9275L14.6549 60.382C14.6175 60.8634 14.7838 61.3427 15.1118 61.6972C15.4397 62.0516 15.9047 62.2549 16.3873 62.2549H17.7815C18.3545 62.2549 18.8207 61.7887 18.8207 61.2157C18.8207 60.6427 18.3545 60.1765 17.7815 60.1765H16.7556L17.5416 50.0891C17.6441 48.7734 18.7584 47.7425 20.0781 47.7425C21.3979 47.7425 22.512 48.7732 22.6147 50.089L23.4008 60.1765H22.3747C21.8017 60.1765 21.3355 60.6427 21.3355 61.2157C21.3355 61.7887 21.8017 62.2549 22.3747 62.2549H23.769C24.2519 62.2549 24.7169 62.0516 25.0446 61.6972C25.3726 61.3427 25.5391 60.8634 25.5015 60.3821L24.6868 49.9275C24.5242 47.8435 22.9651 46.1536 20.9794 45.7542V42.6809L24.2422 41.528L34.119 64.8696C34.1191 64.8699 34.119 64.8696 34.1191 64.8699C34.1321 64.9007 34.1465 64.9308 34.1625 64.9602C34.3431 65.2932 34.6579 65.5154 35.0258 65.5694C35.0835 65.5785 35.1407 65.583 35.2006 65.583L35.2092 65.5694L35.2174 65.583H35.2261H35.2263C35.2851 65.583 35.338 65.5792 35.388 65.5713C35.7634 65.516 36.0823 65.2933 36.2629 64.9603C36.2789 64.9309 36.2934 64.9008 36.3062 64.8701L46.1832 41.5281L49.4459 42.681V51.7574C47.0798 52.2946 45.3076 54.4134 45.3076 56.9398C45.3076 59.8708 47.692 62.2552 50.623 62.2552C53.5539 62.2552 55.9383 59.8707 55.9383 56.9398C55.9383 54.3162 54.0272 52.132 51.5243 51.7024V43.4155L54.8607 44.5944ZM48.8075 21.3234C48.8643 21.3109 48.9211 21.2965 48.9777 21.2789V23.6157C48.9777 23.9617 48.7108 24.2476 48.3674 24.2727L48.3671 21.371L48.3838 21.3713C48.5212 21.3713 48.6595 21.3553 48.7972 21.3255C48.8006 21.3248 48.8041 21.3243 48.8075 21.3234ZM22.0581 24.2727C21.7148 24.2476 21.4478 23.9617 21.4478 23.6157V21.2897C21.4846 21.3001 21.5216 21.3088 21.5587 21.3171C21.5652 21.3186 21.5718 21.3207 21.5783 21.3221C21.6451 21.3364 21.7123 21.3464 21.7799 21.3539C21.7822 21.3542 21.7847 21.3545 21.787 21.3546C21.8592 21.3624 21.9315 21.3676 22.0041 21.3676C22.0221 21.3676 22.0403 21.3673 22.0584 21.3669L22.0581 24.2727ZM23.5223 13.0487C23.3233 13.0487 23.1294 13.1054 22.9618 13.2127C22.662 13.4047 22.4832 13.7319 22.4832 14.0879V18.1985C22.4832 18.2433 22.4803 18.2879 22.476 18.332C22.4749 18.3437 22.4736 18.3553 22.4721 18.3669C22.4677 18.4037 22.462 18.4402 22.4547 18.4763C22.4531 18.4842 22.452 18.4921 22.4502 18.4999C22.4409 18.5427 22.4294 18.585 22.4162 18.6265C22.4129 18.6368 22.409 18.6468 22.4055 18.6569C22.3948 18.6878 22.3831 18.7181 22.3704 18.7482C22.3645 18.7622 22.3586 18.7761 22.3522 18.7899C22.3388 18.8189 22.3241 18.8472 22.3088 18.8751C22.2963 18.8979 22.2829 18.9203 22.269 18.9425C22.2572 18.9618 22.245 18.9809 22.232 18.9996C22.204 19.0402 22.1739 19.0791 22.142 19.1163C22.1382 19.1206 22.1349 19.1254 22.1311 19.1298C22.095 19.1711 22.0566 19.2102 22.0163 19.2467L21.633 13.1335C21.6499 7.99051 25.8481 3.80638 30.9914 3.80638H39.3863C44.5297 3.80638 48.7278 7.99051 48.7447 13.1325L48.3614 19.2491C48.2897 19.1843 48.2242 19.1117 48.1665 19.0329C48.1664 19.0327 48.1664 19.0326 48.1663 19.0324C48.1583 19.0216 48.1515 19.0103 48.144 18.9994C48.1265 18.9738 48.1093 18.9481 48.0935 18.9216C48.0857 18.9086 48.0785 18.8952 48.0711 18.8819C48.0552 18.8531 48.0402 18.8238 48.0264 18.794C48.0219 18.7842 48.0171 18.7745 48.0127 18.7646C47.9765 18.6815 47.9483 18.5949 47.9285 18.5059C47.9266 18.4971 47.925 18.4882 47.9232 18.4793C47.9159 18.4435 47.9103 18.4074 47.906 18.3709C47.9046 18.3597 47.9031 18.3484 47.902 18.3371C47.8976 18.2921 47.8949 18.2469 47.8949 18.2012C47.8949 17.3107 47.4016 16.5042 46.6075 16.0963C46.4828 16.0322 46.3527 15.9795 46.2193 15.9385C45.9968 15.8703 45.7651 15.835 45.534 15.835C45.0465 15.835 44.5784 15.9859 44.1798 16.2713C43.0091 17.1102 41.3906 17.5355 39.3691 17.5355C38.1786 17.5355 36.5587 17.3843 34.4364 16.8992C33.8711 16.77 33.2713 16.6179 32.6331 16.4375C32.6289 16.4363 32.6244 16.4349 32.62 16.4337C31.106 16.0056 29.3835 15.4244 27.4328 14.6434C26.6194 14.3177 25.7648 13.9558 24.8708 13.5574C24.5702 13.4234 24.2666 13.2867 23.9568 13.144C23.8196 13.0808 23.6733 13.0487 23.5223 13.0487ZM24.137 26.0015L24.1365 24.0213L24.1369 19.8688C24.2754 19.615 24.3808 19.3442 24.4523 19.0622C24.4524 19.0616 24.4527 19.0609 24.4529 19.0601C24.4697 18.9936 24.4846 18.9266 24.4976 18.8589C24.4985 18.8536 24.4997 18.8483 24.5007 18.843C24.5122 18.781 24.522 18.7185 24.5302 18.6556C24.5316 18.6457 24.5332 18.6358 24.5345 18.6258C24.5416 18.5672 24.5471 18.5081 24.5512 18.4488C24.5521 18.4361 24.5536 18.4234 24.5544 18.4105C24.5587 18.3401 24.5611 18.2694 24.5611 18.1983V15.6936C29.8093 17.9904 34.3057 19.2903 37.9256 19.5572C38.3998 19.5922 38.8661 19.6099 39.3113 19.6099C41.8175 19.6099 43.8626 19.055 45.3902 17.9606C45.435 17.9284 45.483 17.9122 45.5328 17.9122C45.5738 17.9122 45.6159 17.9231 45.6578 17.9446C45.7171 17.9751 45.8166 18.0489 45.8166 18.2008C45.8166 18.2741 45.8194 18.3471 45.8239 18.4195C45.825 18.4381 45.8271 18.4566 45.8285 18.4752C45.8328 18.5306 45.8381 18.5856 45.8449 18.6405C45.8472 18.6592 45.8501 18.6779 45.8528 18.6967C45.8608 18.7529 45.8701 18.8088 45.8807 18.8644C45.8836 18.8796 45.8866 18.8948 45.8898 18.9099C45.9028 18.9728 45.9174 19.0352 45.9337 19.0971C45.9354 19.1041 45.9372 19.1111 45.9391 19.118C46.0186 19.4117 46.1361 19.6922 46.2886 19.9541V25.9751C46.2886 29.3168 43.7025 33.2508 40.5877 35.152C40.5665 35.1648 40.5453 35.1773 40.5241 35.19C40.4382 35.2415 40.352 35.2911 40.2653 35.3394C40.2278 35.3603 40.1904 35.3812 40.1529 35.4013C40.0759 35.4429 39.9986 35.4827 39.9212 35.5218C39.8844 35.5402 39.8476 35.5597 39.811 35.5776C39.7035 35.6298 39.5958 35.6796 39.4875 35.7266C39.4536 35.7414 39.4197 35.7545 39.3858 35.7687C39.3064 35.8019 39.2268 35.8342 39.1471 35.8645C39.1059 35.8803 39.0649 35.895 39.0239 35.9098C38.9467 35.9377 38.8693 35.9641 38.7919 35.989C38.7554 36.0007 38.7189 36.0129 38.6824 36.024C38.5699 36.0583 38.4572 36.0905 38.3445 36.1186L38.2112 36.1516C37.7982 36.2543 37.4284 36.3424 37.0888 36.4148C36.3418 36.5742 35.7414 36.6585 35.1503 36.6585C34.2814 36.6585 33.3914 36.4754 32.0529 36.138C31.939 36.1093 31.8253 36.0763 31.7116 36.0413C31.6756 36.0301 31.6393 36.0178 31.6032 36.0059C31.5245 35.9802 31.4457 35.9533 31.3673 35.9246C31.3265 35.9097 31.2856 35.8943 31.2448 35.8786C31.1671 35.8487 31.0896 35.8171 31.0123 35.7844C30.9751 35.7687 30.938 35.7537 30.9008 35.7373C30.7955 35.6909 30.6906 35.6424 30.586 35.5911C30.5785 35.5874 30.571 35.5841 30.5633 35.5804C30.4465 35.5227 30.3301 35.4616 30.2143 35.3979C30.1964 35.3881 30.1785 35.3774 30.1604 35.3674C30.0579 35.3102 29.9558 35.2512 29.8543 35.1896C29.8427 35.1825 29.8311 35.1752 29.8195 35.1681C26.7147 33.2629 24.137 29.3327 24.137 26.0015ZM40.3037 40.3396L35.2126 43.8293L30.1212 40.3395C30.253 40.087 30.3226 39.8016 30.3226 39.5136L30.3229 37.7508C30.3725 37.7711 30.4223 37.7894 30.4719 37.8087C30.5513 37.8393 30.6306 37.8695 30.7105 37.898C30.812 37.9343 30.9135 37.9686 31.0149 38.0012C31.0579 38.0149 31.1008 38.0282 31.1439 38.0412C31.2778 38.082 31.4117 38.1204 31.5447 38.154C33.0174 38.5254 34.0795 38.7403 35.1497 38.7403C35.9442 38.7403 36.7329 38.6226 37.6912 38.4111C38.0105 38.3406 38.3488 38.2597 38.7123 38.1693L38.8456 38.1363C38.9791 38.103 39.1134 38.0649 39.2481 38.0244C39.2936 38.0107 39.3392 37.9967 39.3846 37.9823C39.4756 37.9535 39.5667 37.9227 39.6577 37.8907C39.7618 37.8543 39.8653 37.8155 39.9685 37.7753C40.0129 37.758 40.0575 37.7417 40.1019 37.7236L40.1021 39.5138C40.1022 39.802 40.1719 40.0874 40.3037 40.3396ZM21.1184 40.4271C21.6902 37.8672 23.9787 35.9474 26.7084 35.9474H27.3163C27.6183 36.1914 27.928 36.4209 28.2447 36.6341L28.2445 39.0527L28.1656 38.9985C27.7588 38.7196 27.2816 38.5723 26.7854 38.5723C26.5081 38.5723 26.2358 38.6187 25.9758 38.7107L21.1184 40.4271ZM26.2056 40.834L26.668 40.6706C26.7062 40.6571 26.7463 40.6502 26.787 40.6502C26.8599 40.6502 26.9302 40.672 26.9902 40.713L33.4668 45.1521L32.8264 45.6629L30.6353 47.4106C30.6342 47.4115 30.6332 47.4126 30.632 47.4136L29.4041 48.393L26.2056 40.834ZM32.0908 54.7418L30.2456 50.3812L30.8304 49.9146L32.3371 52.5193C32.3602 52.5592 32.3866 52.5964 32.4136 52.6332L32.0908 54.7418ZM35.2127 62.1201L33.6346 58.3906L34.4337 53.1723H35.9918L36.7924 58.387L35.2127 62.1201ZM36.5196 51.0938H33.9138L32.4733 48.6038L35.2127 46.4184L37.9522 48.6038L36.5196 51.0938ZM38.335 54.7419L38.012 52.6333C38.0388 52.5967 38.0652 52.5596 38.0882 52.5199L39.5952 49.9147L40.1801 50.3813L38.335 54.7419ZM41.0212 48.3929L39.7935 47.4136C39.7924 47.4126 39.7914 47.4115 39.7902 47.4106L37.599 45.6629L36.9586 45.1521L43.4353 40.7127C43.4951 40.6717 43.5653 40.6501 43.6384 40.6501C43.6792 40.6501 43.7192 40.6569 43.7572 40.6703L44.2197 40.8338L41.0212 48.3929ZM44.4497 38.7107C44.1898 38.619 43.9175 38.5724 43.6402 38.5724C43.1439 38.5724 42.6666 38.7198 42.2602 38.9985L42.1805 39.0532L42.1795 36.608C42.4852 36.4024 42.7843 36.1817 43.0762 35.9477H43.7172C46.447 35.9477 48.7356 37.8675 49.3072 40.4274L44.4497 38.7107ZM53.8599 56.9393C53.8599 58.7243 52.4078 60.1762 50.623 60.1762C48.8381 60.1762 47.386 58.7241 47.386 56.9393C47.386 55.1544 48.8382 53.7023 50.623 53.7023C52.4078 53.7023 53.8599 55.1544 53.8599 56.9393Z" fill="#1F7D3A"/>
<path d="M70.2068 66.0519L69.5898 54.7172C69.3381 50.7559 66.9681 47.2178 63.4048 45.4837C63.2615 45.4139 63.1088 45.3787 62.9508 45.3787C62.5495 45.3787 62.1912 45.6026 62.0155 45.9633C61.7647 46.4786 61.9799 47.1017 62.4951 47.3525C65.3872 48.7601 67.3107 51.629 67.5148 54.8396L68.132 66.1744C68.1521 66.494 68.0428 66.7983 67.8241 67.0315C67.6062 67.2636 67.311 67.3914 66.9933 67.3914H59.4957V56.4447C59.4957 55.8717 59.0295 55.4055 58.4566 55.4055C57.8836 55.4055 57.4174 55.8717 57.4174 56.4447V67.3914H12.8743V56.4447C12.8743 55.8717 12.4081 55.4055 11.8351 55.4055C11.2622 55.4055 10.7959 55.8717 10.7959 56.4447V67.3914H3.43256C3.11455 67.3914 2.81951 67.2636 2.60172 67.0315C2.38297 66.7983 2.27387 66.4906 2.29451 66.1649L2.54785 61.5117C2.57902 60.9395 2.13865 60.4487 1.56662 60.4176C1.54653 60.4163 1.52684 60.4158 1.50701 60.4158C0.956858 60.4158 0.502406 60.8475 0.472328 61.3986L0.219536 66.0423C0.163344 66.928 0.479164 67.8069 1.08606 68.4536C1.69213 69.0993 2.5473 69.4698 3.43256 69.4698H66.9933C67.8785 69.4698 68.7335 69.0995 69.3398 68.4536C69.9466 67.8068 70.2627 66.9314 70.2068 66.0519Z" fill="#1F7D3A"/>
</g>
<defs>
<clipPath id="clip0_0_844">
<rect width="70" height="70" fill="white" transform="translate(0.212891 0.599121)"/>
</clipPath>
</defs>
</svg>
