<svg width="71" height="71" viewBox="0 0 71 71" fill="none" xmlns="http://www.w3.org/2000/svg">
<path d="M68.7949 39.5186C68.7974 36.6026 67.9666 33.7467 66.4002 31.2872C64.8339 28.8276 62.5973 26.8669 59.9539 25.636C57.3105 24.4051 54.3704 23.9553 51.4799 24.3395C48.5893 24.7236 45.8688 25.9258 43.6387 27.8045C40.8868 25.4777 37.3987 24.2026 33.7949 24.2061V11.0811C33.7923 10.2116 33.4458 9.37852 32.831 8.76373C32.2162 8.14894 31.3831 7.8024 30.5137 7.7998H10.8262C9.95674 7.8024 9.12365 8.14894 8.50886 8.76373C7.89407 9.37852 7.54753 10.2116 7.54494 11.0811V19.6232L3.38869 29.992C3.24654 30.3773 3.17252 30.7844 3.16994 31.1951V42.4389C3.16708 43.6226 3.55116 44.7748 4.26369 45.7201L4.98556 46.6826C5.43335 47.2823 5.75445 47.9668 5.92932 48.6945C6.10419 49.4221 6.12917 50.1778 6.00275 50.9154L4.27463 66.742C4.25823 66.8954 4.27409 67.0505 4.32118 67.1975C4.36826 67.3444 4.44555 67.4798 4.54806 67.5951C4.65032 67.7084 4.77516 67.7991 4.91456 67.8612C5.05395 67.9234 5.20481 67.9557 5.35744 67.9561H17.3887C17.5442 67.9572 17.6981 67.9246 17.8398 67.8604C17.9814 67.7961 18.1074 67.7019 18.209 67.5842C18.3122 67.4697 18.3892 67.334 18.4345 67.1866C18.4799 67.0393 18.4925 66.8838 18.4715 66.7311L16.4262 50.0404C16.3785 49.7582 16.4412 49.4684 16.6012 49.2311L17.2465 48.2686H21.0965C21.7555 49.41 22.4899 50.5062 23.2949 51.5498H19.5762V53.7373H25.1215C31.5746 60.9232 40.8387 66.1732 43.6387 66.1732C46.4824 66.1732 55.7684 60.9998 62.2215 53.7373H67.7012V51.5498H64.0262C66.8481 47.842 68.7949 43.7186 68.7949 39.5186ZM14.4246 40.2951L15.0153 40.8857C15.1399 41.0025 15.2534 41.1307 15.3543 41.2686C15.3543 41.2795 15.3652 41.2795 15.3762 41.2795L15.3652 41.2904C15.9654 42.0549 16.2926 42.9982 16.2949 43.9701V44.4295C16.2962 45.2935 16.0412 46.1386 15.5621 46.8576L14.7856 48.017C14.3213 48.7028 14.1374 49.5404 14.2715 50.3576L16.1528 65.7686H6.58244L8.16838 51.2217C8.33324 50.2001 8.29137 49.1558 8.04525 48.1506C7.79913 47.1455 7.35378 46.2 6.73556 45.3701L6.01369 44.4076C5.58897 43.839 5.35885 43.1486 5.35744 42.4389V31.1951C5.3553 31.0529 5.38132 30.9116 5.434 30.7795L7.54494 25.5076V32.5076C7.54636 33.0849 7.77413 33.6386 8.17931 34.0498L9.44806 35.3186C9.79591 35.6613 10.2474 35.8793 10.7321 35.9387C11.2168 35.998 11.7075 35.8953 12.1277 35.6467L13.5715 34.7717L15.5512 33.5904C15.7193 33.495 15.914 33.4572 16.1056 33.4829C16.2972 33.5086 16.4751 33.5963 16.6121 33.7326C16.7555 33.8703 16.8469 34.0533 16.8708 34.2506C16.8947 34.448 16.8497 34.6475 16.7434 34.8154L14.2606 38.9607C14.138 39.1704 14.0877 39.4146 14.1174 39.6556C14.147 39.8967 14.2549 40.1213 14.4246 40.2951ZM16.7434 39.5186C16.6887 39.4639 16.634 39.4092 16.5793 39.3436L18.6246 35.942C18.9789 35.3535 19.1261 34.6635 19.0428 33.9816C18.9596 33.2998 18.6507 32.6655 18.1652 32.1795C17.6735 31.7079 17.0422 31.4083 16.3659 31.3254C15.6896 31.2426 15.0047 31.3811 14.4137 31.7201L14.1074 31.9061V14.3623H27.2324V39.5186H16.7434ZM18.2528 46.0811C18.401 45.5429 18.4782 44.9877 18.4824 44.4295V43.9701C18.4768 43.197 18.3361 42.4308 18.0668 41.7061H28.3262C28.6163 41.7061 28.8945 41.5908 29.0996 41.3857C29.3047 41.1806 29.4199 40.9024 29.4199 40.6123V13.2686C29.4199 12.9785 29.3047 12.7003 29.0996 12.4952C28.8945 12.29 28.6163 12.1748 28.3262 12.1748H13.0137C12.7236 12.1748 12.4454 12.29 12.2403 12.4952C12.0352 12.7003 11.9199 12.9785 11.9199 13.2686V33.2076L11.0012 33.7654L9.73244 32.5076V11.0811C9.73244 10.791 9.84767 10.5128 10.0528 10.3077C10.2579 10.1025 10.5361 9.9873 10.8262 9.9873H30.5137C30.8038 9.9873 31.082 10.1025 31.2871 10.3077C31.4922 10.5128 31.6074 10.791 31.6074 11.0811V44.9873C31.6074 45.2774 31.4922 45.5556 31.2871 45.7607C31.082 45.9658 30.8038 46.0811 30.5137 46.0811H18.2528ZM43.6387 63.9857C41.8996 63.9857 34.1559 59.8404 28.1074 53.7373H34.8887C35.0995 53.7387 35.306 53.6783 35.4829 53.5636C35.6598 53.4489 35.7992 53.285 35.884 53.092L39.1215 45.8186L43.6934 59.5561C43.7668 59.7733 43.9065 59.962 44.093 60.0954C44.2795 60.2289 44.5031 60.3004 44.7324 60.2998H44.7762C45.0123 60.288 45.2384 60.201 45.4214 60.0514C45.6045 59.9018 45.7348 59.6976 45.7934 59.4686L49.9059 43.0186L51.3059 52.7967C51.3428 53.0576 51.4726 53.2964 51.6716 53.4693C51.8705 53.6421 52.1252 53.7373 52.3887 53.7373H59.1918C53.2199 59.7639 45.509 63.9857 43.6387 63.9857ZM61.2043 51.5498H53.3402L51.284 37.1779C51.2464 36.9271 51.1237 36.6968 50.9365 36.5255C50.7494 36.3543 50.5091 36.2525 50.2559 36.2373C50.0023 36.2249 49.7524 36.301 49.5489 36.4527C49.3453 36.6043 49.2009 36.8221 49.1403 37.0686L44.5793 55.3014L40.3028 42.4498C40.2326 42.2412 40.1011 42.0586 39.9254 41.9259C39.7498 41.7932 39.5382 41.7166 39.3184 41.7061C39.0998 41.7008 38.8843 41.759 38.698 41.8735C38.5117 41.988 38.3625 42.154 38.2684 42.3514L34.1778 51.5498H26.0949C25.2021 50.515 24.3834 49.4186 23.6449 48.2686H30.5137C31.3831 48.266 32.2162 47.9194 32.831 47.3046C33.4458 46.6898 33.7923 45.8567 33.7949 44.9873V26.3936C37.1845 26.3936 40.4421 27.7068 42.884 30.0576C43.0874 30.2515 43.3577 30.3597 43.6387 30.3597C43.9197 30.3597 44.19 30.2515 44.3934 30.0576C46.2482 28.2737 48.5867 27.0746 51.1179 26.6097C53.649 26.1448 56.261 26.4346 58.6287 27.443C60.9964 28.4514 63.0152 30.1339 64.4339 32.281C65.8526 34.4281 66.6085 36.9451 66.6074 39.5186C66.6074 43.7186 64.3324 47.8857 61.2043 51.5498Z" fill="#1F7D3A"/>
<path d="M25.0449 23.1123C25.0449 22.247 24.7883 21.4012 24.3076 20.6817C23.8269 19.9622 23.1436 19.4015 22.3442 19.0703C21.5447 18.7392 20.6651 18.6526 19.8164 18.8214C18.9677 18.9902 18.1882 19.4069 17.5763 20.0187C16.9645 20.6306 16.5478 21.4101 16.379 22.2588C16.2102 23.1075 16.2968 23.9871 16.628 24.7865C16.9591 25.586 17.5198 26.2693 18.2393 26.75C18.9588 27.2307 19.8046 27.4873 20.6699 27.4873C21.8302 27.4873 22.943 27.0264 23.7635 26.2059C24.584 25.3854 25.0449 24.2726 25.0449 23.1123ZM18.4824 23.1123C18.4824 22.6797 18.6107 22.2567 18.8511 21.897C19.0915 21.5373 19.4331 21.2569 19.8328 21.0913C20.2325 20.9258 20.6724 20.8824 21.0967 20.9668C21.521 21.0512 21.9108 21.2596 22.2167 21.5655C22.5226 21.8714 22.731 22.2612 22.8154 22.6855C22.8998 23.1099 22.8565 23.5497 22.6909 23.9494C22.5253 24.3491 22.245 24.6908 21.8852 24.9311C21.5255 25.1715 21.1026 25.2998 20.6699 25.2998C20.0898 25.2998 19.5334 25.0693 19.1231 24.6591C18.7129 24.2489 18.4824 23.6925 18.4824 23.1123Z" fill="#1F7D3A"/>
<path d="M48.6546 18.2845C48.3486 18.5904 48.1402 18.9802 48.0558 19.4045C47.9713 19.8289 48.0146 20.2688 48.1801 20.6685C48.3457 21.0683 48.626 21.4099 48.9858 21.6503C49.3455 21.8907 49.7685 22.019 50.2012 22.019C50.6338 22.019 51.0568 21.8907 51.4165 21.6503C51.7763 21.4099 52.0567 21.0683 52.2222 20.6685C52.3878 20.2688 52.431 19.8289 52.3466 19.4045C52.2621 18.9802 52.0537 18.5904 51.7477 18.2845C51.3375 17.8744 50.7812 17.644 50.2012 17.644C49.6211 17.644 49.0648 17.8744 48.6546 18.2845Z" fill="#1F7D3A"/>
<path d="M54.8419 15.1903C53.6101 13.9612 51.9411 13.2709 50.2011 13.2709C48.461 13.2709 46.792 13.9612 45.5603 15.1903L47.1069 16.7368C47.9284 15.9179 49.0411 15.458 50.2011 15.458C51.3611 15.458 52.4738 15.9179 53.2953 16.7368L54.8419 15.1903Z" fill="#1F7D3A"/>
<path d="M57.9351 12.0971C55.8839 10.046 53.102 8.89368 50.2012 8.89368C47.3004 8.89368 44.5185 10.046 42.4673 12.0971L44.0138 13.6437C44.8264 12.8311 45.791 12.1866 46.8526 11.7468C47.9142 11.307 49.0521 11.0807 50.2012 11.0807C51.3503 11.0807 52.4881 11.307 53.5498 11.7468C54.6114 12.1866 55.576 12.8311 56.3885 13.6437L57.9351 12.0971Z" fill="#1F7D3A"/>
<path d="M59.4816 10.5506L61.0293 9.00295C58.1556 6.13471 54.2613 4.5238 50.2012 4.5238C46.141 4.5238 42.2467 6.13471 39.373 9.00295L40.9196 10.5495C43.383 8.09158 46.7209 6.71127 50.2009 6.71148C53.6808 6.71168 57.0185 8.09238 59.4816 10.5506Z" fill="#1F7D3A"/>
</svg>
